<?xml version="1.0" encoding="UTF-8" standalone="no"?>
<!DOCTYPE svg PUBLIC "-//W3C//DTD SVG 1.1//EN"
 "http://www.w3.org/Graphics/SVG/1.1/DTD/svg11.dtd">
<!-- Generated by graphviz version 4.0.0 (20220529.0937)
 -->
<!-- Title: baralho.hpp Pages: 1 -->
<svg width="351pt" height="137pt"
 viewBox="0.00 0.00 350.50 137.00" xmlns="http://www.w3.org/2000/svg" xmlns:xlink="http://www.w3.org/1999/xlink">
<g id="graph0" class="graph" transform="scale(1 1) rotate(0) translate(4 133)">
<title>baralho.hpp</title>
<!-- Node1 -->
<g id="node1" class="node">
<title>Node1</title>
<g id="a_node1"><a xlink:title="Classe com a lógica do baralho.">
<polygon fill="#999999" stroke="#666666" points="216.5,-129 149.5,-129 149.5,-110 216.5,-110 216.5,-129"/>
<text text-anchor="middle" x="183" y="-117" font-family="Helvetica,sans-Serif" font-size="10.00">baralho.hpp</text>
</a>
</g>
</g>
<!-- Node2 -->
<g id="node2" class="node">
<title>Node2</title>
<g id="a_node2"><a xlink:href="carta_8hpp.html" target="_top" xlink:title="Classe com a lógica da carta.">
<polygon fill="white" stroke="#666666" points="211.5,-74 154.5,-74 154.5,-55 211.5,-55 211.5,-74"/>
<text text-anchor="middle" x="183" y="-62" font-family="Helvetica,sans-Serif" font-size="10.00">carta.hpp</text>
</a>
</g>
</g>
<!-- Node1&#45;&gt;Node2 -->
<g id="edge1" class="edge">
<title>Node1&#45;&gt;Node2</title>
<path fill="none" stroke="#63b8ff" d="M183,-109.75C183,-102.8 183,-92.85 183,-84.13"/>
<polygon fill="#63b8ff" stroke="#63b8ff" points="186.5,-84.09 183,-74.09 179.5,-84.09 186.5,-84.09"/>
</g>
<!-- Node3 -->
<g id="node3" class="node">
<title>Node3</title>
<g id="a_node3"><a xlink:title=" ">
<polygon fill="#e0e0e0" stroke="#999999" points="50,-19 0,-19 0,0 50,0 50,-19"/>
<text text-anchor="middle" x="25" y="-7" font-family="Helvetica,sans-Serif" font-size="10.00">iomanip</text>
</a>
</g>
</g>
<!-- Node1&#45;&gt;Node3 -->
<g id="edge8" class="edge">
<title>Node1&#45;&gt;Node3</title>
<path fill="none" stroke="#63b8ff" d="M170.34,-109.84C143.3,-91.36 79.66,-47.86 46.28,-25.05"/>
<polygon fill="#63b8ff" stroke="#63b8ff" points="47.95,-21.95 37.72,-19.2 44,-27.73 47.95,-21.95"/>
</g>
<!-- Node4 -->
<g id="node4" class="node">
<title>Node4</title>
<g id="a_node4"><a xlink:title=" ">
<polygon fill="#e0e0e0" stroke="#999999" points="122,-19 68,-19 68,0 122,0 122,-19"/>
<text text-anchor="middle" x="95" y="-7" font-family="Helvetica,sans-Serif" font-size="10.00">iostream</text>
</a>
</g>
</g>
<!-- Node1&#45;&gt;Node4 -->
<g id="edge9" class="edge">
<title>Node1&#45;&gt;Node4</title>
<path fill="none" stroke="#63b8ff" d="M173.41,-109.74C164.16,-101.06 149.96,-87.21 139,-74 126.59,-59.05 114.14,-40.69 105.66,-27.56"/>
<polygon fill="#63b8ff" stroke="#63b8ff" points="108.57,-25.62 100.25,-19.06 102.67,-29.37 108.57,-25.62"/>
</g>
<!-- Node5 -->
<g id="node5" class="node">
<title>Node5</title>
<g id="a_node5"><a xlink:title=" ">
<polygon fill="#e0e0e0" stroke="#999999" points="181.5,-19 140.5,-19 140.5,0 181.5,0 181.5,-19"/>
<text text-anchor="middle" x="161" y="-7" font-family="Helvetica,sans-Serif" font-size="10.00">string</text>
</a>
</g>
</g>
<!-- Node1&#45;&gt;Node5 -->
<g id="edge10" class="edge">
<title>Node1&#45;&gt;Node5</title>
<path fill="none" stroke="#63b8ff" d="M172.29,-109.93C163.07,-101.8 150.41,-88.68 145,-74 139.47,-59.02 144.83,-41.36 150.79,-28.48"/>
<polygon fill="#63b8ff" stroke="#63b8ff" points="154.04,-29.8 155.5,-19.31 147.82,-26.6 154.04,-29.8"/>
</g>
<!-- Node6 -->
<g id="node6" class="node">
<title>Node6</title>
<g id="a_node6"><a xlink:title=" ">
<polygon fill="#e0e0e0" stroke="#999999" points="234.5,-19 199.5,-19 199.5,0 234.5,0 234.5,-19"/>
<text text-anchor="middle" x="217" y="-7" font-family="Helvetica,sans-Serif" font-size="10.00">map</text>
</a>
</g>
</g>
<!-- Node1&#45;&gt;Node6 -->
<g id="edge11" class="edge">
<title>Node1&#45;&gt;Node6</title>
<path fill="none" stroke="#63b8ff" d="M193.44,-109.87C202.42,-101.7 214.74,-88.55 220,-74 225.22,-59.55 223.88,-42.04 221.56,-29.07"/>
<polygon fill="#63b8ff" stroke="#63b8ff" points="224.93,-28.08 219.42,-19.03 218.09,-29.54 224.93,-28.08"/>
</g>
<!-- Node7 -->
<g id="node7" class="node">
<title>Node7</title>
<g id="a_node7"><a xlink:title=" ">
<polygon fill="#e0e0e0" stroke="#999999" points="295,-19 253,-19 253,0 295,0 295,-19"/>
<text text-anchor="middle" x="274" y="-7" font-family="Helvetica,sans-Serif" font-size="10.00">vector</text>
</a>
</g>
</g>
<!-- Node1&#45;&gt;Node7 -->
<g id="edge12" class="edge">
<title>Node1&#45;&gt;Node7</title>
<path fill="none" stroke="#63b8ff" d="M195.38,-109.96C206.82,-101.67 223.84,-88.26 236,-74 247.95,-59.97 258.44,-41.73 265.35,-28.4"/>
<polygon fill="#63b8ff" stroke="#63b8ff" points="268.56,-29.82 269.91,-19.31 262.3,-26.68 268.56,-29.82"/>
</g>
<!-- Node8 -->
<g id="node8" class="node">
<title>Node8</title>
<g id="a_node8"><a xlink:title=" ">
<polygon fill="#e0e0e0" stroke="#999999" points="342.5,-19 313.5,-19 313.5,0 342.5,0 342.5,-19"/>
<text text-anchor="middle" x="328" y="-7" font-family="Helvetica,sans-Serif" font-size="10.00">list</text>
</a>
</g>
</g>
<!-- Node1&#45;&gt;Node8 -->
<g id="edge13" class="edge">
<title>Node1&#45;&gt;Node8</title>
<path fill="none" stroke="#63b8ff" d="M199.14,-109.95C214.52,-101.54 238.06,-87.97 257,-74 277.02,-59.23 298.04,-39.88 311.96,-26.45"/>
<polygon fill="#63b8ff" stroke="#63b8ff" points="314.57,-28.79 319.28,-19.29 309.68,-23.78 314.57,-28.79"/>
</g>
<!-- Node2&#45;&gt;Node3 -->
<g id="edge2" class="edge">
<title>Node2&#45;&gt;Node3</title>
<path fill="none" stroke="#63b8ff" d="M157.61,-54.98C131.05,-46.07 89.16,-32.02 59.58,-22.1"/>
<polygon fill="#63b8ff" stroke="#63b8ff" points="60.66,-18.77 50.06,-18.91 58.43,-25.41 60.66,-18.77"/>
</g>
<!-- Node2&#45;&gt;Node4 -->
<g id="edge3" class="edge">
<title>Node2&#45;&gt;Node4</title>
<path fill="none" stroke="#63b8ff" d="M168.86,-54.98C155.21,-46.77 134.31,-34.18 118.22,-24.49"/>
<polygon fill="#63b8ff" stroke="#63b8ff" points="119.77,-21.33 109.4,-19.17 116.16,-27.33 119.77,-21.33"/>
</g>
<!-- Node2&#45;&gt;Node5 -->
<g id="edge4" class="edge">
<title>Node2&#45;&gt;Node5</title>
<path fill="none" stroke="#63b8ff" d="M179.37,-54.75C176.42,-47.65 172.17,-37.4 168.49,-28.56"/>
<polygon fill="#63b8ff" stroke="#63b8ff" points="171.63,-26.98 164.57,-19.09 165.17,-29.67 171.63,-26.98"/>
</g>
<!-- Node2&#45;&gt;Node6 -->
<g id="edge5" class="edge">
<title>Node2&#45;&gt;Node6</title>
<path fill="none" stroke="#63b8ff" d="M188.61,-54.75C193.32,-47.42 200.17,-36.73 205.97,-27.7"/>
<polygon fill="#63b8ff" stroke="#63b8ff" points="209.04,-29.4 211.49,-19.09 203.14,-25.62 209.04,-29.4"/>
</g>
<!-- Node2&#45;&gt;Node7 -->
<g id="edge6" class="edge">
<title>Node2&#45;&gt;Node7</title>
<path fill="none" stroke="#63b8ff" d="M197.62,-54.98C211.86,-46.69 233.75,-33.94 250.45,-24.22"/>
<polygon fill="#63b8ff" stroke="#63b8ff" points="252.23,-27.23 259.11,-19.17 248.71,-21.18 252.23,-27.23"/>
</g>
<!-- Node2&#45;&gt;Node8 -->
<g id="edge7" class="edge">
<title>Node2&#45;&gt;Node8</title>
<path fill="none" stroke="#63b8ff" d="M206.3,-54.98C232.99,-45.23 276.52,-29.32 303.65,-19.4"/>
<polygon fill="#63b8ff" stroke="#63b8ff" points="304.98,-22.64 313.17,-15.92 302.58,-16.07 304.98,-22.64"/>
</g>
</g>
</svg>
