<?xml version="1.0" encoding="UTF-8" standalone="no"?>
<!DOCTYPE svg PUBLIC "-//W3C//DTD SVG 1.1//EN"
 "http://www.w3.org/Graphics/SVG/1.1/DTD/svg11.dtd">
<!-- Generated by graphviz version 4.0.0 (20220529.0937)
 -->
<!-- Title: baralho.hpp Pages: 1 -->
<svg width="353pt" height="302pt"
 viewBox="0.00 0.00 352.86 302.00" xmlns="http://www.w3.org/2000/svg" xmlns:xlink="http://www.w3.org/1999/xlink">
<g id="graph0" class="graph" transform="scale(1 1) rotate(0) translate(4 298)">
<title>baralho.hpp</title>
<!-- Node1 -->
<g id="node1" class="node">
<title>Node1</title>
<g id="a_node1"><a xlink:title="Classe com a lógica do baralho.">
<polygon fill="#999999" stroke="#666666" points="173.5,-294 106.5,-294 106.5,-275 173.5,-275 173.5,-294"/>
<text text-anchor="middle" x="140" y="-282" font-family="Helvetica,sans-Serif" font-size="10.00">baralho.hpp</text>
</a>
</g>
</g>
<!-- Node2 -->
<g id="node2" class="node">
<title>Node2</title>
<g id="a_node2"><a xlink:href="bot_8hpp.html" target="_top" xlink:title="Classe com a lógica do bot.">
<polygon fill="white" stroke="#666666" points="131.5,-184 82.5,-184 82.5,-165 131.5,-165 131.5,-184"/>
<text text-anchor="middle" x="107" y="-172" font-family="Helvetica,sans-Serif" font-size="10.00">bot.hpp</text>
</a>
</g>
</g>
<!-- Node1&#45;&gt;Node2 -->
<g id="edge1" class="edge">
<title>Node1&#45;&gt;Node2</title>
<path fill="none" stroke="#63b8ff" d="M134.29,-264.8C127.08,-241.2 114.97,-201.58 109.65,-184.16"/>
<polygon fill="#63b8ff" stroke="#63b8ff" points="131.03,-266.12 137.3,-274.66 137.72,-264.08 131.03,-266.12"/>
</g>
<!-- Node3 -->
<g id="node3" class="node">
<title>Node3</title>
<g id="a_node3"><a xlink:href="jogo_8hpp.html" target="_top" xlink:title="Classe com a lógica do jogo.">
<polygon fill="white" stroke="#666666" points="201.5,-19 148.5,-19 148.5,0 201.5,0 201.5,-19"/>
<text text-anchor="middle" x="175" y="-7" font-family="Helvetica,sans-Serif" font-size="10.00">jogo.hpp</text>
</a>
</g>
</g>
<!-- Node1&#45;&gt;Node3 -->
<g id="edge18" class="edge">
<title>Node1&#45;&gt;Node3</title>
<path fill="none" stroke="#63b8ff" d="M100.04,-271.66C58.66,-256.64 0,-226.37 0,-175.5 0,-175.5 0,-175.5 0,-118.5 0,-49.6 99.47,-23.2 148.42,-14.38"/>
<polygon fill="#63b8ff" stroke="#63b8ff" points="99.03,-275.01 109.62,-274.98 101.32,-268.4 99.03,-275.01"/>
</g>
<!-- Node4 -->
<g id="node4" class="node">
<title>Node4</title>
<g id="a_node4"><a xlink:href="menu_8hpp.html" target="_top" xlink:title="Classe com a lógica do menu.">
<polygon fill="white" stroke="#666666" points="233.5,-74 174.5,-74 174.5,-55 233.5,-55 233.5,-74"/>
<text text-anchor="middle" x="204" y="-62" font-family="Helvetica,sans-Serif" font-size="10.00">menu.hpp</text>
</a>
</g>
</g>
<!-- Node1&#45;&gt;Node4 -->
<g id="edge19" class="edge">
<title>Node1&#45;&gt;Node4</title>
<path fill="none" stroke="#63b8ff" d="M121.15,-268.19C96.73,-246.38 58.87,-204.59 73,-165 90.19,-116.85 147.39,-87.39 180.24,-74.02"/>
<polygon fill="#63b8ff" stroke="#63b8ff" points="118.95,-270.93 128.82,-274.79 123.52,-265.62 118.95,-270.93"/>
</g>
<!-- Node5 -->
<g id="node5" class="node">
<title>Node5</title>
<g id="a_node5"><a xlink:href="rodada_8hpp.html" target="_top" xlink:title="Classe com a lógica da rodada.">
<polygon fill="white" stroke="#666666" points="207.5,-129 142.5,-129 142.5,-110 207.5,-110 207.5,-129"/>
<text text-anchor="middle" x="175" y="-117" font-family="Helvetica,sans-Serif" font-size="10.00">rodada.hpp</text>
</a>
</g>
</g>
<!-- Node1&#45;&gt;Node5 -->
<g id="edge20" class="edge">
<title>Node1&#45;&gt;Node5</title>
<path fill="none" stroke="#63b8ff" d="M144.01,-264.83C151.56,-229.67 167.61,-154.9 173.11,-129.31"/>
<polygon fill="#63b8ff" stroke="#63b8ff" points="140.56,-264.22 141.88,-274.74 147.4,-265.69 140.56,-264.22"/>
</g>
<!-- Node6 -->
<g id="node6" class="node">
<title>Node6</title>
<g id="a_node6"><a xlink:href="humano_8hpp.html" target="_top" xlink:title="Classe com a lógica do humano.">
<polygon fill="white" stroke="#666666" points="334,-184 264,-184 264,-165 334,-165 334,-184"/>
<text text-anchor="middle" x="299" y="-172" font-family="Helvetica,sans-Serif" font-size="10.00">humano.hpp</text>
</a>
</g>
</g>
<!-- Node1&#45;&gt;Node6 -->
<g id="edge8" class="edge">
<title>Node1&#45;&gt;Node6</title>
<path fill="none" stroke="#63b8ff" d="M183.75,-278.1C211.98,-272.55 247.82,-261.39 272,-239 288.17,-224.02 295.05,-197.77 297.63,-184.19"/>
<polygon fill="#63b8ff" stroke="#63b8ff" points="182.95,-274.68 173.72,-279.89 184.19,-281.57 182.95,-274.68"/>
</g>
<!-- Node7 -->
<g id="node7" class="node">
<title>Node7</title>
<g id="a_node7"><a xlink:href="jogador_8hpp.html" target="_top" xlink:title="Classe com a lógica do jogador.">
<polygon fill="white" stroke="#666666" points="262.5,-239 195.5,-239 195.5,-220 262.5,-220 262.5,-239"/>
<text text-anchor="middle" x="229" y="-227" font-family="Helvetica,sans-Serif" font-size="10.00">jogador.hpp</text>
</a>
</g>
</g>
<!-- Node1&#45;&gt;Node7 -->
<g id="edge12" class="edge">
<title>Node1&#45;&gt;Node7</title>
<path fill="none" stroke="#63b8ff" d="M163.18,-269.7C179.39,-260.04 200.55,-247.44 214.44,-239.17"/>
<polygon fill="#63b8ff" stroke="#63b8ff" points="161.1,-266.86 154.3,-274.98 164.68,-272.88 161.1,-266.86"/>
</g>
<!-- Node2&#45;&gt;Node3 -->
<g id="edge2" class="edge">
<title>Node2&#45;&gt;Node3</title>
<path fill="none" stroke="#63b8ff" d="M108.53,-154.63C109.99,-141.76 112.78,-124.49 118,-110 131.03,-73.85 156.81,-35.66 168.71,-19.04"/>
<polygon fill="#63b8ff" stroke="#63b8ff" points="105.04,-154.33 107.56,-164.63 112.01,-155.01 105.04,-154.33"/>
</g>
<!-- Node2&#45;&gt;Node4 -->
<g id="edge3" class="edge">
<title>Node2&#45;&gt;Node4</title>
<path fill="none" stroke="#63b8ff" d="M111.61,-155.12C115.73,-141.5 122.87,-123.12 134,-110 147.69,-93.85 168.74,-81.58 184.18,-74.05"/>
<polygon fill="#63b8ff" stroke="#63b8ff" points="108.22,-154.25 108.93,-164.82 114.97,-156.11 108.22,-154.25"/>
</g>
<!-- Node2&#45;&gt;Node5 -->
<g id="edge5" class="edge">
<title>Node2&#45;&gt;Node5</title>
<path fill="none" stroke="#63b8ff" d="M126.12,-158.6C138.3,-149.11 153.66,-137.13 163.88,-129.17"/>
<polygon fill="#63b8ff" stroke="#63b8ff" points="123.66,-156.08 117.93,-164.98 127.96,-161.6 123.66,-156.08"/>
</g>
<!-- Node4&#45;&gt;Node3 -->
<g id="edge4" class="edge">
<title>Node4&#45;&gt;Node3</title>
<path fill="none" stroke="#63b8ff" d="M194.32,-45.82C189.4,-36.82 183.64,-26.29 179.7,-19.09"/>
<polygon fill="#63b8ff" stroke="#63b8ff" points="191.34,-47.66 199.21,-54.75 197.48,-44.3 191.34,-47.66"/>
</g>
<!-- Node5&#45;&gt;Node3 -->
<g id="edge6" class="edge">
<title>Node5&#45;&gt;Node3</title>
<path fill="none" stroke="#63b8ff" d="M170.34,-99.73C168.61,-91.84 166.85,-82.53 166,-74 164.03,-54.28 169.15,-31.28 172.45,-19.1"/>
<polygon fill="#63b8ff" stroke="#63b8ff" points="166.99,-100.78 172.68,-109.71 173.8,-99.18 166.99,-100.78"/>
</g>
<!-- Node5&#45;&gt;Node4 -->
<g id="edge7" class="edge">
<title>Node5&#45;&gt;Node4</title>
<path fill="none" stroke="#63b8ff" d="M184.68,-100.82C189.6,-91.82 195.36,-81.29 199.3,-74.09"/>
<polygon fill="#63b8ff" stroke="#63b8ff" points="181.52,-99.3 179.79,-109.75 187.66,-102.66 181.52,-99.3"/>
</g>
<!-- Node6&#45;&gt;Node3 -->
<g id="edge9" class="edge">
<title>Node6&#45;&gt;Node3</title>
<path fill="none" stroke="#63b8ff" d="M293.95,-155.1C286.34,-130.07 269.87,-84.95 243,-55 228.96,-39.35 208.23,-26.84 193.35,-19.12"/>
<polygon fill="#63b8ff" stroke="#63b8ff" points="290.61,-156.16 296.76,-164.79 297.34,-154.21 290.61,-156.16"/>
</g>
<!-- Node6&#45;&gt;Node4 -->
<g id="edge10" class="edge">
<title>Node6&#45;&gt;Node4</title>
<path fill="none" stroke="#63b8ff" d="M286.91,-156.48C277.36,-143.38 263.44,-125.04 250,-110 238.3,-96.91 223.52,-83.03 213.92,-74.32"/>
<polygon fill="#63b8ff" stroke="#63b8ff" points="284.34,-158.9 293.03,-164.97 290.02,-154.81 284.34,-158.9"/>
</g>
<!-- Node6&#45;&gt;Node5 -->
<g id="edge11" class="edge">
<title>Node6&#45;&gt;Node5</title>
<path fill="none" stroke="#63b8ff" d="M269.82,-161.03C246.89,-151.23 215.55,-137.83 195.29,-129.17"/>
<polygon fill="#63b8ff" stroke="#63b8ff" points="268.51,-164.27 279.08,-164.98 271.26,-157.84 268.51,-164.27"/>
</g>
<!-- Node7&#45;&gt;Node2 -->
<g id="edge13" class="edge">
<title>Node7&#45;&gt;Node2</title>
<path fill="none" stroke="#63b8ff" d="M199.99,-215.9C177.46,-206.11 146.8,-192.79 126.96,-184.17"/>
<polygon fill="#63b8ff" stroke="#63b8ff" points="198.83,-219.21 209.4,-219.98 201.62,-212.79 198.83,-219.21"/>
</g>
<!-- Node7&#45;&gt;Node3 -->
<g id="edge15" class="edge">
<title>Node7&#45;&gt;Node3</title>
<path fill="none" stroke="#63b8ff" d="M272.71,-222.36C309.29,-214.81 353.92,-198.58 343,-165 324.31,-107.51 309.04,-94.18 263,-55 243.96,-38.8 218.02,-26.6 199.24,-19.11"/>
<polygon fill="#63b8ff" stroke="#63b8ff" points="271.82,-218.97 262.65,-224.27 273.13,-225.85 271.82,-218.97"/>
</g>
<!-- Node7&#45;&gt;Node4 -->
<g id="edge16" class="edge">
<title>Node7&#45;&gt;Node4</title>
<path fill="none" stroke="#63b8ff" d="M228.15,-209.5C226.85,-185.96 223.77,-144.73 217,-110 214.54,-97.36 210.07,-83.14 207.07,-74.25"/>
<polygon fill="#63b8ff" stroke="#63b8ff" points="224.67,-209.98 228.66,-219.8 231.66,-209.63 224.67,-209.98"/>
</g>
<!-- Node7&#45;&gt;Node5 -->
<g id="edge17" class="edge">
<title>Node7&#45;&gt;Node5</title>
<path fill="none" stroke="#63b8ff" d="M219.97,-210.44C208.21,-186.92 188.12,-146.73 179.33,-129.16"/>
<polygon fill="#63b8ff" stroke="#63b8ff" points="216.98,-212.28 224.58,-219.66 223.24,-209.15 216.98,-212.28"/>
</g>
<!-- Node7&#45;&gt;Node6 -->
<g id="edge14" class="edge">
<title>Node7&#45;&gt;Node6</title>
<path fill="none" stroke="#63b8ff" d="M248.31,-213.88C260.91,-204.34 276.93,-192.21 287.55,-184.17"/>
<polygon fill="#63b8ff" stroke="#63b8ff" points="246.11,-211.16 240.25,-219.98 250.33,-216.74 246.11,-211.16"/>
</g>
</g>
</svg>
