<?xml version="1.0" encoding="UTF-8" standalone="no"?>
<!DOCTYPE svg PUBLIC "-//W3C//DTD SVG 1.1//EN"
 "http://www.w3.org/Graphics/SVG/1.1/DTD/svg11.dtd">
<!-- Generated by graphviz version 4.0.0 (20220529.0937)
 -->
<!-- Title: bot.hpp Pages: 1 -->
<svg width="133pt" height="192pt"
 viewBox="0.00 0.00 133.11 192.00" xmlns="http://www.w3.org/2000/svg" xmlns:xlink="http://www.w3.org/1999/xlink">
<g id="graph0" class="graph" transform="scale(1 1) rotate(0) translate(4 188)">
<title>bot.hpp</title>
<!-- Node1 -->
<g id="node1" class="node">
<title>Node1</title>
<g id="a_node1"><a xlink:title="Classe com a l贸gica do bot.">
<polygon fill="#999999" stroke="#666666" points="56.11,-184 7.11,-184 7.11,-165 56.11,-165 56.11,-184"/>
<text text-anchor="middle" x="31.61" y="-172" font-family="Helvetica,sans-Serif" font-size="10.00">bot.hpp</text>
</a>
</g>
</g>
<!-- Node2 -->
<g id="node2" class="node">
<title>Node2</title>
<g id="a_node2"><a xlink:href="jogo_8hpp.html" target="_top" xlink:title="Classe com a l贸gica do jogo.">
<polygon fill="white" stroke="#666666" points="70.11,-19 17.11,-19 17.11,0 70.11,0 70.11,-19"/>
<text text-anchor="middle" x="43.61" y="-7" font-family="Helvetica,sans-Serif" font-size="10.00">jogo.hpp</text>
</a>
</g>
</g>
<!-- Node1&#45;&gt;Node2 -->
<g id="edge1" class="edge">
<title>Node1&#45;&gt;Node2</title>
<path fill="none" stroke="#63b8ff" d="M21.5,-156.15C9.18,-132.67 -8.45,-89.73 4.61,-55 10.18,-40.19 23.17,-27.1 32.63,-19.01"/>
<polygon fill="#63b8ff" stroke="#63b8ff" points="18.45,-157.87 26.34,-164.94 24.58,-154.49 18.45,-157.87"/>
</g>
<!-- Node3 -->
<g id="node3" class="node">
<title>Node3</title>
<g id="a_node3"><a xlink:href="menu_8hpp.html" target="_top" xlink:title="Classe com a l贸gica do menu.">
<polygon fill="white" stroke="#666666" points="73.11,-74 14.11,-74 14.11,-55 73.11,-55 73.11,-74"/>
<text text-anchor="middle" x="43.61" y="-62" font-family="Helvetica,sans-Serif" font-size="10.00">menu.hpp</text>
</a>
</g>
</g>
<!-- Node1&#45;&gt;Node3 -->
<g id="edge2" class="edge">
<title>Node1&#45;&gt;Node3</title>
<path fill="none" stroke="#63b8ff" d="M33.73,-154.48C36.35,-130.84 40.73,-91.5 42.65,-74.16"/>
<polygon fill="#63b8ff" stroke="#63b8ff" points="30.22,-154.34 32.6,-164.66 37.18,-155.11 30.22,-154.34"/>
</g>
<!-- Node4 -->
<g id="node4" class="node">
<title>Node4</title>
<g id="a_node4"><a xlink:href="rodada_8hpp.html" target="_top" xlink:title="Classe com a l贸gica da rodada.">
<polygon fill="white" stroke="#666666" points="125.11,-129 60.11,-129 60.11,-110 125.11,-110 125.11,-129"/>
<text text-anchor="middle" x="92.61" y="-117" font-family="Helvetica,sans-Serif" font-size="10.00">rodada.hpp</text>
</a>
</g>
</g>
<!-- Node1&#45;&gt;Node4 -->
<g id="edge4" class="edge">
<title>Node1&#45;&gt;Node4</title>
<path fill="none" stroke="#63b8ff" d="M49.08,-158.32C59.96,-148.87 73.56,-137.06 82.64,-129.17"/>
<polygon fill="#63b8ff" stroke="#63b8ff" points="46.67,-155.78 41.42,-164.98 51.26,-161.07 46.67,-155.78"/>
</g>
<!-- Node3&#45;&gt;Node2 -->
<g id="edge3" class="edge">
<title>Node3&#45;&gt;Node2</title>
<path fill="none" stroke="#63b8ff" d="M43.61,-44.66C43.61,-35.93 43.61,-25.99 43.61,-19.09"/>
<polygon fill="#63b8ff" stroke="#63b8ff" points="40.11,-44.75 43.61,-54.75 47.11,-44.75 40.11,-44.75"/>
</g>
<!-- Node4&#45;&gt;Node2 -->
<g id="edge5" class="edge">
<title>Node4&#45;&gt;Node2</title>
<path fill="none" stroke="#63b8ff" d="M91.97,-99.72C90.91,-86.64 88.24,-69.1 81.61,-55 74.96,-40.84 62.56,-27.61 53.74,-19.32"/>
<polygon fill="#63b8ff" stroke="#63b8ff" points="88.48,-100.07 92.55,-109.85 95.47,-99.67 88.48,-100.07"/>
</g>
<!-- Node4&#45;&gt;Node3 -->
<g id="edge6" class="edge">
<title>Node4&#45;&gt;Node3</title>
<path fill="none" stroke="#63b8ff" d="M77.58,-102.24C68.99,-92.95 58.57,-81.68 51.56,-74.09"/>
<polygon fill="#63b8ff" stroke="#63b8ff" points="75.16,-104.78 84.52,-109.75 80.3,-100.03 75.16,-104.78"/>
</g>
</g>
</svg>
