<?xml version="1.0" encoding="UTF-8" standalone="no"?>
<!DOCTYPE svg PUBLIC "-//W3C//DTD SVG 1.1//EN"
 "http://www.w3.org/Graphics/SVG/1.1/DTD/svg11.dtd">
<!-- Generated by graphviz version 4.0.0 (20220529.0937)
 -->
<!-- Title: carta.hpp Pages: 1 -->
<svg width="351pt" height="82pt"
 viewBox="0.00 0.00 350.50 82.00" xmlns="http://www.w3.org/2000/svg" xmlns:xlink="http://www.w3.org/1999/xlink">
<g id="graph0" class="graph" transform="scale(1 1) rotate(0) translate(4 78)">
<title>carta.hpp</title>
<!-- Node1 -->
<g id="node1" class="node">
<title>Node1</title>
<g id="a_node1"><a xlink:title="Classe com a lógica da carta.">
<polygon fill="#999999" stroke="#666666" points="217.5,-74 160.5,-74 160.5,-55 217.5,-55 217.5,-74"/>
<text text-anchor="middle" x="189" y="-62" font-family="Helvetica,sans-Serif" font-size="10.00">carta.hpp</text>
</a>
</g>
</g>
<!-- Node2 -->
<g id="node2" class="node">
<title>Node2</title>
<g id="a_node2"><a xlink:title=" ">
<polygon fill="#e0e0e0" stroke="#999999" points="50,-19 0,-19 0,0 50,0 50,-19"/>
<text text-anchor="middle" x="25" y="-7" font-family="Helvetica,sans-Serif" font-size="10.00">iomanip</text>
</a>
</g>
</g>
<!-- Node1&#45;&gt;Node2 -->
<g id="edge1" class="edge">
<title>Node1&#45;&gt;Node2</title>
<path fill="none" stroke="#63b8ff" d="M162.65,-54.98C134.83,-45.99 90.83,-31.77 60.08,-21.84"/>
<polygon fill="#63b8ff" stroke="#63b8ff" points="60.8,-18.39 50.21,-18.65 58.65,-25.05 60.8,-18.39"/>
</g>
<!-- Node3 -->
<g id="node3" class="node">
<title>Node3</title>
<g id="a_node3"><a xlink:title=" ">
<polygon fill="#e0e0e0" stroke="#999999" points="122,-19 68,-19 68,0 122,0 122,-19"/>
<text text-anchor="middle" x="95" y="-7" font-family="Helvetica,sans-Serif" font-size="10.00">iostream</text>
</a>
</g>
</g>
<!-- Node1&#45;&gt;Node3 -->
<g id="edge2" class="edge">
<title>Node1&#45;&gt;Node3</title>
<path fill="none" stroke="#63b8ff" d="M173.9,-54.98C159.18,-46.69 136.58,-33.94 119.33,-24.22"/>
<polygon fill="#63b8ff" stroke="#63b8ff" points="120.81,-21.03 110.38,-19.17 117.37,-27.13 120.81,-21.03"/>
</g>
<!-- Node4 -->
<g id="node4" class="node">
<title>Node4</title>
<g id="a_node4"><a xlink:title=" ">
<polygon fill="#e0e0e0" stroke="#999999" points="181.5,-19 140.5,-19 140.5,0 181.5,0 181.5,-19"/>
<text text-anchor="middle" x="161" y="-7" font-family="Helvetica,sans-Serif" font-size="10.00">string</text>
</a>
</g>
</g>
<!-- Node1&#45;&gt;Node4 -->
<g id="edge3" class="edge">
<title>Node1&#45;&gt;Node4</title>
<path fill="none" stroke="#63b8ff" d="M184.38,-54.75C180.54,-47.49 174.98,-36.95 170.24,-27.98"/>
<polygon fill="#63b8ff" stroke="#63b8ff" points="173.3,-26.3 165.54,-19.09 167.11,-29.57 173.3,-26.3"/>
</g>
<!-- Node5 -->
<g id="node5" class="node">
<title>Node5</title>
<g id="a_node5"><a xlink:title=" ">
<polygon fill="#e0e0e0" stroke="#999999" points="234.5,-19 199.5,-19 199.5,0 234.5,0 234.5,-19"/>
<text text-anchor="middle" x="217" y="-7" font-family="Helvetica,sans-Serif" font-size="10.00">map</text>
</a>
</g>
</g>
<!-- Node1&#45;&gt;Node5 -->
<g id="edge4" class="edge">
<title>Node1&#45;&gt;Node5</title>
<path fill="none" stroke="#63b8ff" d="M193.62,-54.75C197.46,-47.49 203.02,-36.95 207.76,-27.98"/>
<polygon fill="#63b8ff" stroke="#63b8ff" points="210.89,-29.57 212.46,-19.09 204.7,-26.3 210.89,-29.57"/>
</g>
<!-- Node6 -->
<g id="node6" class="node">
<title>Node6</title>
<g id="a_node6"><a xlink:title=" ">
<polygon fill="#e0e0e0" stroke="#999999" points="295,-19 253,-19 253,0 295,0 295,-19"/>
<text text-anchor="middle" x="274" y="-7" font-family="Helvetica,sans-Serif" font-size="10.00">vector</text>
</a>
</g>
</g>
<!-- Node1&#45;&gt;Node6 -->
<g id="edge5" class="edge">
<title>Node1&#45;&gt;Node6</title>
<path fill="none" stroke="#63b8ff" d="M202.66,-54.98C215.84,-46.77 236.03,-34.18 251.57,-24.49"/>
<polygon fill="#63b8ff" stroke="#63b8ff" points="253.46,-27.43 260.09,-19.17 249.76,-21.49 253.46,-27.43"/>
</g>
<!-- Node7 -->
<g id="node7" class="node">
<title>Node7</title>
<g id="a_node7"><a xlink:title=" ">
<polygon fill="#e0e0e0" stroke="#999999" points="342.5,-19 313.5,-19 313.5,0 342.5,0 342.5,-19"/>
<text text-anchor="middle" x="328" y="-7" font-family="Helvetica,sans-Serif" font-size="10.00">list</text>
</a>
</g>
</g>
<!-- Node1&#45;&gt;Node7 -->
<g id="edge6" class="edge">
<title>Node1&#45;&gt;Node7</title>
<path fill="none" stroke="#63b8ff" d="M211.33,-54.98C236.67,-45.32 277.85,-29.62 303.9,-19.69"/>
<polygon fill="#63b8ff" stroke="#63b8ff" points="305.3,-22.9 313.4,-16.07 302.81,-16.36 305.3,-22.9"/>
</g>
</g>
</svg>
