<?xml version="1.0" encoding="UTF-8" standalone="no"?>
<!DOCTYPE svg PUBLIC "-//W3C//DTD SVG 1.1//EN"
 "http://www.w3.org/Graphics/SVG/1.1/DTD/svg11.dtd">
<!-- Generated by graphviz version 4.0.0 (20220529.0937)
 -->
<!-- Title: carta.hpp Pages: 1 -->
<svg width="460pt" height="357pt"
 viewBox="0.00 0.00 459.59 357.00" xmlns="http://www.w3.org/2000/svg" xmlns:xlink="http://www.w3.org/1999/xlink">
<g id="graph0" class="graph" transform="scale(1 1) rotate(0) translate(4 353)">
<title>carta.hpp</title>
<!-- Node1 -->
<g id="node1" class="node">
<title>Node1</title>
<g id="a_node1"><a xlink:title="Classe com a lógica da carta.">
<polygon fill="#999999" stroke="#666666" points="228.5,-349 171.5,-349 171.5,-330 228.5,-330 228.5,-349"/>
<text text-anchor="middle" x="200" y="-337" font-family="Helvetica,sans-Serif" font-size="10.00">carta.hpp</text>
</a>
</g>
</g>
<!-- Node2 -->
<g id="node2" class="node">
<title>Node2</title>
<g id="a_node2"><a xlink:href="baralho_8hpp.html" target="_top" xlink:title="Classe com a lógica do baralho.">
<polygon fill="white" stroke="#666666" points="233.5,-294 166.5,-294 166.5,-275 233.5,-275 233.5,-294"/>
<text text-anchor="middle" x="200" y="-282" font-family="Helvetica,sans-Serif" font-size="10.00">baralho.hpp</text>
</a>
</g>
</g>
<!-- Node1&#45;&gt;Node2 -->
<g id="edge1" class="edge">
<title>Node1&#45;&gt;Node2</title>
<path fill="none" stroke="#63b8ff" d="M200,-319.66C200,-310.93 200,-300.99 200,-294.09"/>
<polygon fill="#63b8ff" stroke="#63b8ff" points="196.5,-319.75 200,-329.75 203.5,-319.75 196.5,-319.75"/>
</g>
<!-- Node3 -->
<g id="node3" class="node">
<title>Node3</title>
<g id="a_node3"><a xlink:href="bot_8hpp.html" target="_top" xlink:title="Classe com a lógica do bot.">
<polygon fill="white" stroke="#666666" points="199.5,-184 150.5,-184 150.5,-165 199.5,-165 199.5,-184"/>
<text text-anchor="middle" x="175" y="-172" font-family="Helvetica,sans-Serif" font-size="10.00">bot.hpp</text>
</a>
</g>
</g>
<!-- Node1&#45;&gt;Node3 -->
<g id="edge22" class="edge">
<title>Node1&#45;&gt;Node3</title>
<path fill="none" stroke="#63b8ff" d="M179.96,-323.24C171.47,-315.52 162.52,-305.37 158,-294 142.57,-255.18 161.85,-204.27 170.85,-184.18"/>
<polygon fill="#63b8ff" stroke="#63b8ff" points="177.89,-326.08 187.79,-329.86 182.41,-320.73 177.89,-326.08"/>
</g>
<!-- Node4 -->
<g id="node4" class="node">
<title>Node4</title>
<g id="a_node4"><a xlink:href="jogo_8hpp.html" target="_top" xlink:title="Classe com a lógica do jogo.">
<polygon fill="white" stroke="#666666" points="238.5,-19 185.5,-19 185.5,0 238.5,0 238.5,-19"/>
<text text-anchor="middle" x="212" y="-7" font-family="Helvetica,sans-Serif" font-size="10.00">jogo.hpp</text>
</a>
</g>
</g>
<!-- Node1&#45;&gt;Node4 -->
<g id="edge25" class="edge">
<title>Node1&#45;&gt;Node4</title>
<path fill="none" stroke="#63b8ff" d="M161.4,-334.9C103.27,-327.12 0,-303.09 0,-230.5 0,-230.5 0,-230.5 0,-118.5 0,-36.3 128.1,-16.64 185.15,-11.95"/>
<polygon fill="#63b8ff" stroke="#63b8ff" points="160.99,-338.38 171.34,-336.13 161.85,-331.43 160.99,-338.38"/>
</g>
<!-- Node5 -->
<g id="node5" class="node">
<title>Node5</title>
<g id="a_node5"><a xlink:href="menu_8hpp.html" target="_top" xlink:title="Classe com a lógica do menu.">
<polygon fill="white" stroke="#666666" points="241.5,-74 182.5,-74 182.5,-55 241.5,-55 241.5,-74"/>
<text text-anchor="middle" x="212" y="-62" font-family="Helvetica,sans-Serif" font-size="10.00">menu.hpp</text>
</a>
</g>
</g>
<!-- Node1&#45;&gt;Node5 -->
<g id="edge26" class="edge">
<title>Node1&#45;&gt;Node5</title>
<path fill="none" stroke="#63b8ff" d="M176.99,-324.15C166.71,-316.5 155.48,-306.15 149,-294 121.86,-243.12 125.45,-221.87 135,-165 139.28,-139.49 138.88,-130.98 154,-110 165.13,-94.56 183.13,-81.93 196.13,-74.13"/>
<polygon fill="#63b8ff" stroke="#63b8ff" points="175.07,-327.08 185.28,-329.93 179.07,-321.34 175.07,-327.08"/>
</g>
<!-- Node6 -->
<g id="node6" class="node">
<title>Node6</title>
<g id="a_node6"><a xlink:href="rodada_8hpp.html" target="_top" xlink:title="Classe com a lógica da rodada.">
<polygon fill="white" stroke="#666666" points="336.5,-129 271.5,-129 271.5,-110 336.5,-110 336.5,-129"/>
<text text-anchor="middle" x="304" y="-117" font-family="Helvetica,sans-Serif" font-size="10.00">rodada.hpp</text>
</a>
</g>
</g>
<!-- Node1&#45;&gt;Node6 -->
<g id="edge27" class="edge">
<title>Node1&#45;&gt;Node6</title>
<path fill="none" stroke="#63b8ff" d="M218.11,-323.06C226.59,-315.08 236.27,-304.77 243,-294 278.87,-236.6 297.16,-155.28 302.39,-129.03"/>
<polygon fill="#63b8ff" stroke="#63b8ff" points="215.57,-320.64 210.49,-329.94 220.26,-325.84 215.57,-320.64"/>
</g>
<!-- Node7 -->
<g id="node7" class="node">
<title>Node7</title>
<g id="a_node7"><a xlink:href="humano_8hpp.html" target="_top" xlink:title="Classe com a lógica do humano.">
<polygon fill="white" stroke="#666666" points="440,-184 370,-184 370,-165 440,-165 440,-184"/>
<text text-anchor="middle" x="405" y="-172" font-family="Helvetica,sans-Serif" font-size="10.00">humano.hpp</text>
</a>
</g>
</g>
<!-- Node1&#45;&gt;Node7 -->
<g id="edge23" class="edge">
<title>Node1&#45;&gt;Node7</title>
<path fill="none" stroke="#63b8ff" d="M238.3,-331.56C285.2,-320.79 362.72,-295.14 398,-239 408.74,-221.91 407.75,-197.02 406.28,-184.07"/>
<polygon fill="#63b8ff" stroke="#63b8ff" points="237.53,-328.14 228.5,-333.69 239.02,-334.98 237.53,-328.14"/>
</g>
<!-- Node8 -->
<g id="node8" class="node">
<title>Node8</title>
<g id="a_node8"><a xlink:href="jogador_8hpp.html" target="_top" xlink:title="Classe com a lógica do jogador.">
<polygon fill="white" stroke="#666666" points="368.5,-239 301.5,-239 301.5,-220 368.5,-220 368.5,-239"/>
<text text-anchor="middle" x="335" y="-227" font-family="Helvetica,sans-Serif" font-size="10.00">jogador.hpp</text>
</a>
</g>
</g>
<!-- Node1&#45;&gt;Node8 -->
<g id="edge24" class="edge">
<title>Node1&#45;&gt;Node8</title>
<path fill="none" stroke="#63b8ff" d="M233.15,-325.79C250.35,-318.19 271.03,-307.4 287,-294 306.27,-277.83 322.4,-252.56 330.12,-239.3"/>
<polygon fill="#63b8ff" stroke="#63b8ff" points="231.33,-322.76 223.5,-329.89 234.07,-329.2 231.33,-322.76"/>
</g>
<!-- Node2&#45;&gt;Node3 -->
<g id="edge2" class="edge">
<title>Node2&#45;&gt;Node3</title>
<path fill="none" stroke="#63b8ff" d="M195.67,-264.8C190.21,-241.2 181.04,-201.58 177,-184.16"/>
<polygon fill="#63b8ff" stroke="#63b8ff" points="192.29,-265.71 197.95,-274.66 199.11,-264.13 192.29,-265.71"/>
</g>
<!-- Node2&#45;&gt;Node4 -->
<g id="edge19" class="edge">
<title>Node2&#45;&gt;Node4</title>
<path fill="none" stroke="#63b8ff" d="M175.61,-269.43C164.57,-261.82 152.36,-251.42 145,-239 128.07,-210.45 130.59,-197.89 135,-165 141.73,-114.77 138.97,-98.48 165,-55 173.77,-40.35 188.7,-27.41 199.38,-19.31"/>
<polygon fill="#63b8ff" stroke="#63b8ff" points="173.8,-272.43 184.1,-274.93 177.6,-266.56 173.8,-272.43"/>
</g>
<!-- Node2&#45;&gt;Node5 -->
<g id="edge20" class="edge">
<title>Node2&#45;&gt;Node5</title>
<path fill="none" stroke="#63b8ff" d="M183.15,-267.77C161.64,-245.67 128.58,-203.79 141,-165 153.36,-126.4 186.8,-90.01 202.98,-74.02"/>
<polygon fill="#63b8ff" stroke="#63b8ff" points="180.88,-270.44 190.45,-274.97 185.79,-265.45 180.88,-270.44"/>
</g>
<!-- Node2&#45;&gt;Node6 -->
<g id="edge21" class="edge">
<title>Node2&#45;&gt;Node6</title>
<path fill="none" stroke="#63b8ff" d="M211.05,-266.18C233.1,-231.62 281.84,-155.23 298.38,-129.31"/>
<polygon fill="#63b8ff" stroke="#63b8ff" points="208.02,-264.42 205.59,-274.74 213.92,-268.19 208.02,-264.42"/>
</g>
<!-- Node2&#45;&gt;Node7 -->
<g id="edge9" class="edge">
<title>Node2&#45;&gt;Node7</title>
<path fill="none" stroke="#63b8ff" d="M243.62,-283.17C283.02,-280.63 340.42,-271.09 378,-239 394.76,-224.68 401.38,-198.14 403.77,-184.35"/>
<polygon fill="#63b8ff" stroke="#63b8ff" points="243.32,-279.68 233.52,-283.69 243.69,-286.67 243.32,-279.68"/>
</g>
<!-- Node2&#45;&gt;Node8 -->
<g id="edge13" class="edge">
<title>Node2&#45;&gt;Node8</title>
<path fill="none" stroke="#63b8ff" d="M231.1,-271.29C256.12,-261.47 290.66,-247.91 312.92,-239.17"/>
<polygon fill="#63b8ff" stroke="#63b8ff" points="229.72,-268.07 221.69,-274.98 232.28,-274.59 229.72,-268.07"/>
</g>
<!-- Node3&#45;&gt;Node4 -->
<g id="edge3" class="edge">
<title>Node3&#45;&gt;Node4</title>
<path fill="none" stroke="#63b8ff" d="M170.91,-154.95C166.5,-131.02 161.65,-88.49 174,-55 179.41,-40.32 192.07,-27.2 201.29,-19.07"/>
<polygon fill="#63b8ff" stroke="#63b8ff" points="167.49,-155.7 172.9,-164.81 174.35,-154.32 167.49,-155.7"/>
</g>
<!-- Node3&#45;&gt;Node5 -->
<g id="edge4" class="edge">
<title>Node3&#45;&gt;Node5</title>
<path fill="none" stroke="#63b8ff" d="M181.3,-155.12C189.37,-131.56 203.04,-91.66 209.03,-74.16"/>
<polygon fill="#63b8ff" stroke="#63b8ff" points="177.96,-154.07 178.03,-164.66 184.58,-156.34 177.96,-154.07"/>
</g>
<!-- Node3&#45;&gt;Node6 -->
<g id="edge6" class="edge">
<title>Node3&#45;&gt;Node6</title>
<path fill="none" stroke="#63b8ff" d="M205.04,-161.16C228.92,-151.35 261.72,-137.87 282.9,-129.17"/>
<polygon fill="#63b8ff" stroke="#63b8ff" points="203.65,-157.95 195.73,-164.98 206.31,-164.42 203.65,-157.95"/>
</g>
<!-- Node5&#45;&gt;Node4 -->
<g id="edge5" class="edge">
<title>Node5&#45;&gt;Node4</title>
<path fill="none" stroke="#63b8ff" d="M212,-44.66C212,-35.93 212,-25.99 212,-19.09"/>
<polygon fill="#63b8ff" stroke="#63b8ff" points="208.5,-44.75 212,-54.75 215.5,-44.75 208.5,-44.75"/>
</g>
<!-- Node6&#45;&gt;Node4 -->
<g id="edge7" class="edge">
<title>Node6&#45;&gt;Node4</title>
<path fill="none" stroke="#63b8ff" d="M290.3,-101.86C279.66,-89 264.5,-70.78 251,-55 240.32,-42.51 227.75,-28.25 219.83,-19.31"/>
<polygon fill="#63b8ff" stroke="#63b8ff" points="287.8,-104.33 296.86,-109.82 293.2,-99.88 287.8,-104.33"/>
</g>
<!-- Node6&#45;&gt;Node5 -->
<g id="edge8" class="edge">
<title>Node6&#45;&gt;Node5</title>
<path fill="none" stroke="#63b8ff" d="M280.51,-104.97C263.69,-95.28 241.55,-82.52 227.05,-74.17"/>
<polygon fill="#63b8ff" stroke="#63b8ff" points="278.81,-108.03 289.22,-109.98 282.3,-101.96 278.81,-108.03"/>
</g>
<!-- Node7&#45;&gt;Node4 -->
<g id="edge10" class="edge">
<title>Node7&#45;&gt;Node4</title>
<path fill="none" stroke="#63b8ff" d="M398.18,-155.12C392.47,-141.5 383.26,-123.12 371,-110 329.87,-65.99 265.15,-33.62 232.41,-19.06"/>
<polygon fill="#63b8ff" stroke="#63b8ff" points="395.09,-156.8 402.02,-164.82 401.6,-154.23 395.09,-156.8"/>
</g>
<!-- Node7&#45;&gt;Node5 -->
<g id="edge11" class="edge">
<title>Node7&#45;&gt;Node5</title>
<path fill="none" stroke="#63b8ff" d="M393,-156.4C382.19,-142.16 365.11,-122.28 346,-110 313.42,-89.05 270.01,-77.01 241.55,-70.86"/>
<polygon fill="#63b8ff" stroke="#63b8ff" points="390.42,-158.81 399.15,-164.81 396.07,-154.67 390.42,-158.81"/>
</g>
<!-- Node7&#45;&gt;Node6 -->
<g id="edge12" class="edge">
<title>Node7&#45;&gt;Node6</title>
<path fill="none" stroke="#63b8ff" d="M379.72,-160.23C361.2,-150.51 336.58,-137.6 320.52,-129.17"/>
<polygon fill="#63b8ff" stroke="#63b8ff" points="378.29,-163.44 388.77,-164.98 381.54,-157.24 378.29,-163.44"/>
</g>
<!-- Node8&#45;&gt;Node3 -->
<g id="edge14" class="edge">
<title>Node8&#45;&gt;Node3</title>
<path fill="none" stroke="#63b8ff" d="M299.52,-216.75C269.18,-206.7 226.29,-192.49 199.59,-183.65"/>
<polygon fill="#63b8ff" stroke="#63b8ff" points="298.7,-220.16 309.29,-219.98 300.9,-213.52 298.7,-220.16"/>
</g>
<!-- Node8&#45;&gt;Node4 -->
<g id="edge16" class="edge">
<title>Node8&#45;&gt;Node4</title>
<path fill="none" stroke="#63b8ff" d="M378.62,-222.15C416.46,-214.34 463.13,-197.86 449,-165 410.98,-76.56 292.25,-32.98 238.69,-17.41"/>
<polygon fill="#63b8ff" stroke="#63b8ff" points="377.9,-218.72 368.74,-224.04 379.22,-225.6 377.9,-218.72"/>
</g>
<!-- Node8&#45;&gt;Node5 -->
<g id="edge17" class="edge">
<title>Node8&#45;&gt;Node5</title>
<path fill="none" stroke="#63b8ff" d="M322.26,-211.62C296.35,-177.28 238.29,-100.34 218.65,-74.31"/>
<polygon fill="#63b8ff" stroke="#63b8ff" points="319.57,-213.86 328.39,-219.74 325.16,-209.65 319.57,-213.86"/>
</g>
<!-- Node8&#45;&gt;Node6 -->
<g id="edge18" class="edge">
<title>Node8&#45;&gt;Node6</title>
<path fill="none" stroke="#63b8ff" d="M330.28,-210.01C326.98,-197.31 322.39,-180.09 318,-165 314.38,-152.56 309.82,-138.29 306.9,-129.33"/>
<polygon fill="#63b8ff" stroke="#63b8ff" points="326.92,-211.03 332.81,-219.84 333.7,-209.28 326.92,-211.03"/>
</g>
<!-- Node8&#45;&gt;Node7 -->
<g id="edge15" class="edge">
<title>Node8&#45;&gt;Node7</title>
<path fill="none" stroke="#63b8ff" d="M354.31,-213.88C366.91,-204.34 382.93,-192.21 393.55,-184.17"/>
<polygon fill="#63b8ff" stroke="#63b8ff" points="352.11,-211.16 346.25,-219.98 356.33,-216.74 352.11,-211.16"/>
</g>
</g>
</svg>
