<?xml version="1.0" encoding="UTF-8" standalone="no"?>
<!DOCTYPE svg PUBLIC "-//W3C//DTD SVG 1.1//EN"
 "http://www.w3.org/Graphics/SVG/1.1/DTD/svg11.dtd">
<!-- Generated by graphviz version 4.0.0 (20220529.0937)
 -->
<!-- Title: Jogador Pages: 1 -->
<svg width="220pt" height="423pt"
 viewBox="0.00 0.00 220.00 423.00" xmlns="http://www.w3.org/2000/svg" xmlns:xlink="http://www.w3.org/1999/xlink">
<g id="graph0" class="graph" transform="scale(1 1) rotate(0) translate(4 419)">
<title>Jogador</title>
<!-- Node1 -->
<g id="node1" class="node">
<title>Node1</title>
<g id="a_node1"><a xlink:title="Armazena e processa as informações do jogador.">
<polygon fill="#999999" stroke="#666666" points="152,-195 54,-195 54,0 152,0 152,-195"/>
<text text-anchor="middle" x="103" y="-183" font-family="Helvetica,sans-Serif" font-size="10.00">{Jogador</text>
<text text-anchor="start" x="62" y="-172" font-family="Helvetica,sans-Serif" font-size="10.00">|# _pontos</text>
<text text-anchor="start" x="62" y="-161" font-family="Helvetica,sans-Serif" font-size="10.00"># _idJogador</text>
<text text-anchor="start" x="62" y="-150" font-family="Helvetica,sans-Serif" font-size="10.00"># _idDupla</text>
<text text-anchor="start" x="62" y="-139" font-family="Helvetica,sans-Serif" font-size="10.00"># _pedindoTruco</text>
<text text-anchor="start" x="62" y="-128" font-family="Helvetica,sans-Serif" font-size="10.00"># _aceitandoTruco</text>
<text text-anchor="start" x="62" y="-117" font-family="Helvetica,sans-Serif" font-size="10.00">|+ Jogador()</text>
<text text-anchor="start" x="62" y="-106" font-family="Helvetica,sans-Serif" font-size="10.00">+ Jogador()</text>
<text text-anchor="start" x="62" y="-95" font-family="Helvetica,sans-Serif" font-size="10.00">+ pedirTruco()</text>
<text text-anchor="start" x="62" y="-84" font-family="Helvetica,sans-Serif" font-size="10.00">+ aceitarTruco()</text>
<text text-anchor="start" x="62" y="-73" font-family="Helvetica,sans-Serif" font-size="10.00">+ getPontos()</text>
<text text-anchor="start" x="62" y="-62" font-family="Helvetica,sans-Serif" font-size="10.00">+ adicionaPontos()</text>
<text text-anchor="start" x="62" y="-51" font-family="Helvetica,sans-Serif" font-size="10.00">+ getNome()</text>
<text text-anchor="start" x="62" y="-40" font-family="Helvetica,sans-Serif" font-size="10.00">+ jogarCarta()</text>
<text text-anchor="start" x="62" y="-29" font-family="Helvetica,sans-Serif" font-size="10.00">+ setMao()</text>
<text text-anchor="start" x="62" y="-18" font-family="Helvetica,sans-Serif" font-size="10.00">+ getMaoSize()</text>
<text text-anchor="middle" x="103" y="-7" font-family="Helvetica,sans-Serif" font-size="10.00">}</text>
</a>
</g>
</g>
<!-- Node2 -->
<g id="node2" class="node">
<title>Node2</title>
<g id="a_node2"><a xlink:title=" ">
<polygon fill="white" stroke="#666666" points="83.5,-272 20.5,-272 20.5,-242 83.5,-242 83.5,-272"/>
<text text-anchor="middle" x="52" y="-260" font-family="Helvetica,sans-Serif" font-size="10.00">{std::string</text>
<text text-anchor="middle" x="52" y="-249" font-family="Helvetica,sans-Serif" font-size="10.00">||}</text>
</a>
</g>
</g>
<!-- Node2&#45;&gt;Node1 -->
<g id="edge1" class="edge">
<title>Node2&#45;&gt;Node1</title>
<path fill="none" stroke="#404040" d="M56.62,-241.75C59.49,-232.87 63.48,-220.56 67.92,-206.84"/>
<polygon fill="none" stroke="#404040" points="68.05,-206.45 66.09,-199.51 71.74,-195.03 73.7,-201.97 68.05,-206.45"/>
<text text-anchor="middle" x="85" y="-216" font-family="Helvetica,sans-Serif" font-size="10.00"> #_nome</text>
</g>
<!-- Node3 -->
<g id="node3" class="node">
<title>Node3</title>
<g id="a_node3"><a xlink:title=" ">
<polygon fill="white" stroke="#666666" points="98,-387.5 0,-387.5 0,-346.5 98,-346.5 98,-387.5"/>
<text text-anchor="start" x="8" y="-375.5" font-family="Helvetica,sans-Serif" font-size="10.00">{std::basic_string&lt;</text>
<text text-anchor="middle" x="49" y="-364.5" font-family="Helvetica,sans-Serif" font-size="10.00"> Char &gt;</text>
<text text-anchor="middle" x="49" y="-353.5" font-family="Helvetica,sans-Serif" font-size="10.00">||}</text>
</a>
</g>
</g>
<!-- Node3&#45;&gt;Node2 -->
<g id="edge2" class="edge">
<title>Node3&#45;&gt;Node2</title>
<path fill="none" stroke="#63b8ff" d="M49.83,-336.18C50.41,-315.34 51.15,-288.44 51.6,-272.24"/>
<polygon fill="none" stroke="#63b8ff" points="46.32,-336.35 49.54,-346.44 53.32,-336.54 46.32,-336.35"/>
</g>
<!-- Node4 -->
<g id="node4" class="node">
<title>Node4</title>
<g id="a_node4"><a xlink:title=" ">
<polygon fill="white" stroke="#666666" points="212,-272 106,-272 106,-242 212,-242 212,-272"/>
<text text-anchor="middle" x="159" y="-260" font-family="Helvetica,sans-Serif" font-size="10.00">{std::vector&lt; Carta &gt;</text>
<text text-anchor="middle" x="159" y="-249" font-family="Helvetica,sans-Serif" font-size="10.00">||}</text>
</a>
</g>
</g>
<!-- Node4&#45;&gt;Node1 -->
<g id="edge3" class="edge">
<title>Node4&#45;&gt;Node1</title>
<path fill="none" stroke="#404040" d="M153.93,-241.75C150.74,-232.78 146.31,-220.31 141.37,-206.43"/>
<polygon fill="none" stroke="#404040" points="141.34,-206.34 135.56,-202.02 137.32,-195.03 143.1,-199.34 141.34,-206.34"/>
<text text-anchor="middle" x="163.5" y="-216" font-family="Helvetica,sans-Serif" font-size="10.00"> #_mao</text>
</g>
<!-- Node5 -->
<g id="node5" class="node">
<title>Node5</title>
<g id="a_node5"><a xlink:href="class_carta.html" target="_top" xlink:title="Armazena informações básicas de uma carta para o jogo.">
<polygon fill="white" stroke="#666666" points="205.5,-415 116.5,-415 116.5,-319 205.5,-319 205.5,-415"/>
<text text-anchor="middle" x="161" y="-403" font-family="Helvetica,sans-Serif" font-size="10.00">{Carta</text>
<text text-anchor="start" x="124.5" y="-392" font-family="Helvetica,sans-Serif" font-size="10.00">||+ Carta()</text>
<text text-anchor="start" x="124.5" y="-381" font-family="Helvetica,sans-Serif" font-size="10.00">+ getNome()</text>
<text text-anchor="start" x="124.5" y="-370" font-family="Helvetica,sans-Serif" font-size="10.00">+ getPeso()</text>
<text text-anchor="start" x="124.5" y="-359" font-family="Helvetica,sans-Serif" font-size="10.00">+ getId()</text>
<text text-anchor="start" x="124.5" y="-348" font-family="Helvetica,sans-Serif" font-size="10.00">+ setId()</text>
<text text-anchor="start" x="124.5" y="-337" font-family="Helvetica,sans-Serif" font-size="10.00">+ imprimeCarta()</text>
<text text-anchor="middle" x="161" y="-326" font-family="Helvetica,sans-Serif" font-size="10.00">}</text>
</a>
</g>
</g>
<!-- Node5&#45;&gt;Node4 -->
<g id="edge4" class="edge">
<title>Node5&#45;&gt;Node4</title>
<path fill="none" stroke="#404040" d="M160.13,-318.94C159.91,-307.11 159.68,-294.83 159.49,-284.42"/>
<polygon fill="none" stroke="#404040" points="159.49,-284.4 155.38,-278.48 159.27,-272.4 163.38,-278.33 159.49,-284.4"/>
<text text-anchor="middle" x="184.5" y="-293" font-family="Helvetica,sans-Serif" font-size="10.00"> +elements</text>
</g>
</g>
</svg>
