<?xml version="1.0" encoding="UTF-8" standalone="no"?>
<!DOCTYPE svg PUBLIC "-//W3C//DTD SVG 1.1//EN"
 "http://www.w3.org/Graphics/SVG/1.1/DTD/svg11.dtd">
<!-- Generated by graphviz version 4.0.0 (20220529.0937)
 -->
<!-- Title: Jogo Pages: 1 -->
<svg width="704pt" height="1157pt"
 viewBox="0.00 0.00 704.00 1157.00" xmlns="http://www.w3.org/2000/svg" xmlns:xlink="http://www.w3.org/1999/xlink">
<g id="graph0" class="graph" transform="scale(1 1) rotate(0) translate(4 1153)">
<title>Jogo</title>
<!-- Node1 -->
<g id="node1" class="node">
<title>Node1</title>
<g id="a_node1"><a xlink:title="Armazena e processa o jogo em si.">
<polygon fill="#999999" stroke="#666666" points="342.5,-228 193.5,-228 193.5,0 342.5,0 342.5,-228"/>
<text text-anchor="middle" x="268" y="-216" font-family="Helvetica,sans-Serif" font-size="10.00">{Jogo</text>
<text text-anchor="start" x="201.5" y="-205" font-family="Helvetica,sans-Serif" font-size="10.00">||+ Jogo()</text>
<text text-anchor="start" x="201.5" y="-194" font-family="Helvetica,sans-Serif" font-size="10.00">+ inicializaBaralho()</text>
<text text-anchor="start" x="201.5" y="-183" font-family="Helvetica,sans-Serif" font-size="10.00">+ sequenciaJogadasIniciando</text>
<text text-anchor="start" x="201.5" y="-172" font-family="Helvetica,sans-Serif" font-size="10.00">Usuario()</text>
<text text-anchor="start" x="201.5" y="-161" font-family="Helvetica,sans-Serif" font-size="10.00">+ sequenciaJogadasIniciando</text>
<text text-anchor="start" x="201.5" y="-150" font-family="Helvetica,sans-Serif" font-size="10.00">Bot1()</text>
<text text-anchor="start" x="201.5" y="-139" font-family="Helvetica,sans-Serif" font-size="10.00">+ sequenciaJogadasIniciando</text>
<text text-anchor="start" x="201.5" y="-128" font-family="Helvetica,sans-Serif" font-size="10.00">Bot2()</text>
<text text-anchor="start" x="201.5" y="-117" font-family="Helvetica,sans-Serif" font-size="10.00">+ sequenciaJogadasIniciando</text>
<text text-anchor="start" x="201.5" y="-106" font-family="Helvetica,sans-Serif" font-size="10.00">Bot3()</text>
<text text-anchor="start" x="201.5" y="-95" font-family="Helvetica,sans-Serif" font-size="10.00">+ sequenciaJogadasMd3()</text>
<text text-anchor="start" x="201.5" y="-84" font-family="Helvetica,sans-Serif" font-size="10.00">+ checaPedidoTrucoJogador()</text>
<text text-anchor="start" x="201.5" y="-73" font-family="Helvetica,sans-Serif" font-size="10.00">+ checaPedidoTrucoBot1()</text>
<text text-anchor="start" x="201.5" y="-62" font-family="Helvetica,sans-Serif" font-size="10.00">+ checaPedidoTrucoBot2()</text>
<text text-anchor="start" x="201.5" y="-51" font-family="Helvetica,sans-Serif" font-size="10.00">+ checaPedidoTrucoBot3()</text>
<text text-anchor="start" x="201.5" y="-40" font-family="Helvetica,sans-Serif" font-size="10.00">+ procedimentosFinalRodada()</text>
<text text-anchor="start" x="201.5" y="-29" font-family="Helvetica,sans-Serif" font-size="10.00">+ verificachar()</text>
<text text-anchor="start" x="201.5" y="-18" font-family="Helvetica,sans-Serif" font-size="10.00">+ polimorfismoJogarCarta()</text>
<text text-anchor="middle" x="268" y="-7" font-family="Helvetica,sans-Serif" font-size="10.00">}</text>
</a>
</g>
</g>
<!-- Node2 -->
<g id="node2" class="node">
<title>Node2</title>
<g id="a_node2"><a xlink:href="class_menu.html" target="_top" xlink:title="Cria dentro do jogo um sistema de conta dos jogadores.">
<polygon fill="white" stroke="#666666" points="326,-716 210,-716 210,-532 326,-532 326,-716"/>
<text text-anchor="middle" x="268" y="-704" font-family="Helvetica,sans-Serif" font-size="10.00">{Menu</text>
<text text-anchor="start" x="218" y="-693" font-family="Helvetica,sans-Serif" font-size="10.00">||+ Menu()</text>
<text text-anchor="start" x="218" y="-682" font-family="Helvetica,sans-Serif" font-size="10.00">+ cadastroUsuario()</text>
<text text-anchor="start" x="218" y="-671" font-family="Helvetica,sans-Serif" font-size="10.00">+ ranking()</text>
<text text-anchor="start" x="218" y="-660" font-family="Helvetica,sans-Serif" font-size="10.00">+ loginUsuario()</text>
<text text-anchor="start" x="218" y="-649" font-family="Helvetica,sans-Serif" font-size="10.00">+ uptadeRanking()</text>
<text text-anchor="start" x="218" y="-638" font-family="Helvetica,sans-Serif" font-size="10.00">+ limparTela()</text>
<text text-anchor="start" x="218" y="-627" font-family="Helvetica,sans-Serif" font-size="10.00">+ strMaxTamChecker()</text>
<text text-anchor="start" x="218" y="-616" font-family="Helvetica,sans-Serif" font-size="10.00">+ strMinTamChecker()</text>
<text text-anchor="start" x="218" y="-605" font-family="Helvetica,sans-Serif" font-size="10.00">+ strSpaceChecker()</text>
<text text-anchor="start" x="218" y="-594" font-family="Helvetica,sans-Serif" font-size="10.00">+ findName()</text>
<text text-anchor="start" x="218" y="-583" font-family="Helvetica,sans-Serif" font-size="10.00">+ passwordChecker()</text>
<text text-anchor="start" x="218" y="-572" font-family="Helvetica,sans-Serif" font-size="10.00">+ playerCreate()</text>
<text text-anchor="start" x="218" y="-561" font-family="Helvetica,sans-Serif" font-size="10.00">+ pvs()</text>
<text text-anchor="start" x="218" y="-550" font-family="Helvetica,sans-Serif" font-size="10.00">+ nicks()</text>
<text text-anchor="middle" x="268" y="-539" font-family="Helvetica,sans-Serif" font-size="10.00">}</text>
</a>
</g>
</g>
<!-- Node2&#45;&gt;Node1 -->
<g id="edge1" class="edge">
<title>Node2&#45;&gt;Node1</title>
<path fill="none" stroke="#404040" d="M268,-531.89C268,-450.54 268,-330.64 268,-240.28"/>
<polygon fill="none" stroke="#404040" points="268,-240.01 264,-234.01 268,-228.01 272,-234.01 268,-240.01"/>
<text text-anchor="middle" x="295" y="-403" font-family="Helvetica,sans-Serif" font-size="10.00"> +menuJogo</text>
</g>
<!-- Node3 -->
<g id="node3" class="node">
<title>Node3</title>
<g id="a_node3"><a xlink:title=" ">
<polygon fill="white" stroke="#666666" points="296.5,-1006 233.5,-1006 233.5,-976 296.5,-976 296.5,-1006"/>
<text text-anchor="middle" x="265" y="-994" font-family="Helvetica,sans-Serif" font-size="10.00">{std::string</text>
<text text-anchor="middle" x="265" y="-983" font-family="Helvetica,sans-Serif" font-size="10.00">||}</text>
</a>
</g>
</g>
<!-- Node3&#45;&gt;Node2 -->
<g id="edge2" class="edge">
<title>Node3&#45;&gt;Node2</title>
<path fill="none" stroke="#404040" d="M265.12,-975.69C265.45,-935.09 266.43,-816.42 267.15,-728.31"/>
<polygon fill="none" stroke="#404040" points="267.15,-728.09 263.2,-722.06 267.25,-716.09 271.2,-722.12 267.15,-728.09"/>
<text text-anchor="middle" x="302" y="-950" font-family="Helvetica,sans-Serif" font-size="10.00"> +_nomeUsuario</text>
</g>
<!-- Node8 -->
<g id="node8" class="node">
<title>Node8</title>
<g id="a_node8"><a xlink:href="class_jogador.html" target="_top" xlink:title="Armazena e processa as informações do jogador.">
<polygon fill="white" stroke="#666666" points="216,-929 118,-929 118,-734 216,-734 216,-929"/>
<text text-anchor="middle" x="167" y="-917" font-family="Helvetica,sans-Serif" font-size="10.00">{Jogador</text>
<text text-anchor="start" x="126" y="-906" font-family="Helvetica,sans-Serif" font-size="10.00">|# _pontos</text>
<text text-anchor="start" x="126" y="-895" font-family="Helvetica,sans-Serif" font-size="10.00"># _idJogador</text>
<text text-anchor="start" x="126" y="-884" font-family="Helvetica,sans-Serif" font-size="10.00"># _idDupla</text>
<text text-anchor="start" x="126" y="-873" font-family="Helvetica,sans-Serif" font-size="10.00"># _pedindoTruco</text>
<text text-anchor="start" x="126" y="-862" font-family="Helvetica,sans-Serif" font-size="10.00"># _aceitandoTruco</text>
<text text-anchor="start" x="126" y="-851" font-family="Helvetica,sans-Serif" font-size="10.00">|+ Jogador()</text>
<text text-anchor="start" x="126" y="-840" font-family="Helvetica,sans-Serif" font-size="10.00">+ Jogador()</text>
<text text-anchor="start" x="126" y="-829" font-family="Helvetica,sans-Serif" font-size="10.00">+ pedirTruco()</text>
<text text-anchor="start" x="126" y="-818" font-family="Helvetica,sans-Serif" font-size="10.00">+ aceitarTruco()</text>
<text text-anchor="start" x="126" y="-807" font-family="Helvetica,sans-Serif" font-size="10.00">+ getPontos()</text>
<text text-anchor="start" x="126" y="-796" font-family="Helvetica,sans-Serif" font-size="10.00">+ adicionaPontos()</text>
<text text-anchor="start" x="126" y="-785" font-family="Helvetica,sans-Serif" font-size="10.00">+ getNome()</text>
<text text-anchor="start" x="126" y="-774" font-family="Helvetica,sans-Serif" font-size="10.00">+ jogarCarta()</text>
<text text-anchor="start" x="126" y="-763" font-family="Helvetica,sans-Serif" font-size="10.00">+ setMao()</text>
<text text-anchor="start" x="126" y="-752" font-family="Helvetica,sans-Serif" font-size="10.00">+ getMaoSize()</text>
<text text-anchor="middle" x="167" y="-741" font-family="Helvetica,sans-Serif" font-size="10.00">}</text>
</a>
</g>
</g>
<!-- Node3&#45;&gt;Node8 -->
<g id="edge8" class="edge">
<title>Node3&#45;&gt;Node8</title>
<path fill="none" stroke="#404040" d="M233.25,-977.52C224.05,-972.61 214.7,-966.16 208,-958 203.48,-952.5 199.45,-946.48 195.87,-940.16"/>
<polygon fill="none" stroke="#404040" points="195.75,-939.92 189.44,-936.43 190.24,-929.26 196.55,-932.75 195.75,-939.92"/>
<text text-anchor="middle" x="227" y="-950" font-family="Helvetica,sans-Serif" font-size="10.00"> #_nome</text>
</g>
<!-- Node4 -->
<g id="node4" class="node">
<title>Node4</title>
<g id="a_node4"><a xlink:title=" ">
<polygon fill="white" stroke="#666666" points="314,-1121.5 216,-1121.5 216,-1080.5 314,-1080.5 314,-1121.5"/>
<text text-anchor="start" x="224" y="-1109.5" font-family="Helvetica,sans-Serif" font-size="10.00">{std::basic_string&lt;</text>
<text text-anchor="middle" x="265" y="-1098.5" font-family="Helvetica,sans-Serif" font-size="10.00"> Char &gt;</text>
<text text-anchor="middle" x="265" y="-1087.5" font-family="Helvetica,sans-Serif" font-size="10.00">||}</text>
</a>
</g>
</g>
<!-- Node4&#45;&gt;Node3 -->
<g id="edge3" class="edge">
<title>Node4&#45;&gt;Node3</title>
<path fill="none" stroke="#63b8ff" d="M265,-1070.18C265,-1049.34 265,-1022.44 265,-1006.24"/>
<polygon fill="none" stroke="#63b8ff" points="261.5,-1070.44 265,-1080.44 268.5,-1070.44 261.5,-1070.44"/>
</g>
<!-- Node5 -->
<g id="node5" class="node">
<title>Node5</title>
<g id="a_node5"><a xlink:href="class_baralho.html" target="_top" xlink:title="Modifica e armazena as cartas dos jogadores.">
<polygon fill="white" stroke="#666666" points="504,-481 340,-481 340,-330 504,-330 504,-481"/>
<text text-anchor="middle" x="422" y="-469" font-family="Helvetica,sans-Serif" font-size="10.00">{Baralho</text>
<text text-anchor="start" x="348" y="-458" font-family="Helvetica,sans-Serif" font-size="10.00">||+ Baralho()</text>
<text text-anchor="start" x="348" y="-447" font-family="Helvetica,sans-Serif" font-size="10.00">+ sortearCarta()</text>
<text text-anchor="start" x="348" y="-436" font-family="Helvetica,sans-Serif" font-size="10.00">+ inicializarBaralhoCompleto()</text>
<text text-anchor="start" x="348" y="-425" font-family="Helvetica,sans-Serif" font-size="10.00">+ deletarCartaBaralho()</text>
<text text-anchor="start" x="348" y="-414" font-family="Helvetica,sans-Serif" font-size="10.00">+ inicializarMaoJogadores()</text>
<text text-anchor="start" x="348" y="-403" font-family="Helvetica,sans-Serif" font-size="10.00">+ resetarBaralhoEMaoJogadores()</text>
<text text-anchor="start" x="348" y="-392" font-family="Helvetica,sans-Serif" font-size="10.00">+ getMaoJogador0()</text>
<text text-anchor="start" x="348" y="-381" font-family="Helvetica,sans-Serif" font-size="10.00">+ getMaoJogador1()</text>
<text text-anchor="start" x="348" y="-370" font-family="Helvetica,sans-Serif" font-size="10.00">+ getMaoJogador2()</text>
<text text-anchor="start" x="348" y="-359" font-family="Helvetica,sans-Serif" font-size="10.00">+ getMaoJogador3()</text>
<text text-anchor="start" x="348" y="-348" font-family="Helvetica,sans-Serif" font-size="10.00">+ getBaralhoSize()</text>
<text text-anchor="middle" x="422" y="-337" font-family="Helvetica,sans-Serif" font-size="10.00">}</text>
</a>
</g>
</g>
<!-- Node5&#45;&gt;Node1 -->
<g id="edge4" class="edge">
<title>Node5&#45;&gt;Node1</title>
<path fill="none" stroke="#404040" d="M382.34,-329.95C367.59,-302.22 350.43,-269.96 333.96,-239"/>
<polygon fill="none" stroke="#404040" points="333.81,-238.7 327.46,-235.29 328.17,-228.11 334.52,-231.53 333.81,-238.7"/>
<text text-anchor="middle" x="396" y="-260" font-family="Helvetica,sans-Serif" font-size="10.00"> +baralhoDaQueda</text>
</g>
<!-- Node6 -->
<g id="node6" class="node">
<title>Node6</title>
<g id="a_node6"><a xlink:href="class_rodada.html" target="_top" xlink:title="Armazena e processa os dados de uma partida.">
<polygon fill="white" stroke="#666666" points="696,-514 522,-514 522,-297 696,-297 696,-514"/>
<text text-anchor="middle" x="609" y="-502" font-family="Helvetica,sans-Serif" font-size="10.00">{Rodada</text>
<text text-anchor="start" x="530" y="-491" font-family="Helvetica,sans-Serif" font-size="10.00">||+ Rodada()</text>
<text text-anchor="start" x="530" y="-480" font-family="Helvetica,sans-Serif" font-size="10.00">+ inserirCartaDupla1()</text>
<text text-anchor="start" x="530" y="-469" font-family="Helvetica,sans-Serif" font-size="10.00">+ inserirCartaDupla2()</text>
<text text-anchor="start" x="530" y="-458" font-family="Helvetica,sans-Serif" font-size="10.00">+ idJogadorMaiorCarta()</text>
<text text-anchor="start" x="530" y="-447" font-family="Helvetica,sans-Serif" font-size="10.00">+ getMaiorIdMd3()</text>
<text text-anchor="start" x="530" y="-436" font-family="Helvetica,sans-Serif" font-size="10.00">+ setMaiorIdMd3()</text>
<text text-anchor="start" x="530" y="-425" font-family="Helvetica,sans-Serif" font-size="10.00">+ checagemDuplaVencedora()</text>
<text text-anchor="start" x="530" y="-414" font-family="Helvetica,sans-Serif" font-size="10.00">+ getVitoriasParciaisDupla1()</text>
<text text-anchor="start" x="530" y="-403" font-family="Helvetica,sans-Serif" font-size="10.00">+ getVitoriasParciaisDupla2()</text>
<text text-anchor="start" x="530" y="-392" font-family="Helvetica,sans-Serif" font-size="10.00">+ getPontuacaoRodadaAtual()</text>
<text text-anchor="start" x="530" y="-381" font-family="Helvetica,sans-Serif" font-size="10.00">+ aumentaPontuacaoRodadaAtual()</text>
<text text-anchor="start" x="530" y="-370" font-family="Helvetica,sans-Serif" font-size="10.00">+ resetPontuacaoRodadaAtual()</text>
<text text-anchor="start" x="530" y="-359" font-family="Helvetica,sans-Serif" font-size="10.00">+ resetVitoriasParciaisDuplas()</text>
<text text-anchor="start" x="530" y="-348" font-family="Helvetica,sans-Serif" font-size="10.00">+ checagemVitoriaParcial()</text>
<text text-anchor="start" x="530" y="-337" font-family="Helvetica,sans-Serif" font-size="10.00">+ getQtdQuedasRodadaAtual()</text>
<text text-anchor="start" x="530" y="-326" font-family="Helvetica,sans-Serif" font-size="10.00">+ aumentaQtdQuedasRodadaAtual()</text>
<text text-anchor="start" x="530" y="-315" font-family="Helvetica,sans-Serif" font-size="10.00">+ resetQtdQuedasRodadaAtual()</text>
<text text-anchor="middle" x="609" y="-304" font-family="Helvetica,sans-Serif" font-size="10.00">}</text>
</a>
</g>
</g>
<!-- Node6&#45;&gt;Node1 -->
<g id="edge5" class="edge">
<title>Node6&#45;&gt;Node1</title>
<path fill="none" stroke="#404040" d="M521.87,-305.33C518.92,-302.48 515.96,-299.7 513,-297 462.77,-251.1 401.3,-205.46 352.49,-171.36"/>
<polygon fill="none" stroke="#404040" points="352.44,-171.33 345.23,-171.19 342.59,-164.49 349.8,-164.62 352.44,-171.33"/>
<text text-anchor="middle" x="518.5" y="-260" font-family="Helvetica,sans-Serif" font-size="10.00"> +rodadaAtual</text>
</g>
<!-- Node7 -->
<g id="node7" class="node">
<title>Node7</title>
<g id="a_node7"><a xlink:href="class_humano.html" target="_top" xlink:title="Classe que armazena e processa as informações do usuário.">
<polygon fill="white" stroke="#666666" points="128,-453.5 0,-453.5 0,-357.5 128,-357.5 128,-453.5"/>
<text text-anchor="middle" x="64" y="-441.5" font-family="Helvetica,sans-Serif" font-size="10.00">{Humano</text>
<text text-anchor="start" x="8" y="-430.5" font-family="Helvetica,sans-Serif" font-size="10.00">||+ Humano()</text>
<text text-anchor="start" x="8" y="-419.5" font-family="Helvetica,sans-Serif" font-size="10.00">+ Humano()</text>
<text text-anchor="start" x="8" y="-408.5" font-family="Helvetica,sans-Serif" font-size="10.00">+ imprimeCartasJogador()</text>
<text text-anchor="start" x="8" y="-397.5" font-family="Helvetica,sans-Serif" font-size="10.00">+ msgSelecionarCartas()</text>
<text text-anchor="start" x="8" y="-386.5" font-family="Helvetica,sans-Serif" font-size="10.00">+ checaIndice()</text>
<text text-anchor="start" x="8" y="-375.5" font-family="Helvetica,sans-Serif" font-size="10.00">+ jogarCarta()</text>
<text text-anchor="middle" x="64" y="-364.5" font-family="Helvetica,sans-Serif" font-size="10.00">}</text>
</a>
</g>
</g>
<!-- Node7&#45;&gt;Node1 -->
<g id="edge6" class="edge">
<title>Node7&#45;&gt;Node1</title>
<path fill="none" stroke="#404040" d="M95.52,-357.48C108.29,-338.6 123.23,-316.69 137,-297 152.81,-274.39 169.91,-250.35 186.37,-227.4"/>
<polygon fill="none" stroke="#404040" points="186.38,-227.39 186.63,-220.18 193.38,-217.64 193.13,-224.85 186.38,-227.39"/>
<text text-anchor="middle" x="193.5" y="-260" font-family="Helvetica,sans-Serif" font-size="10.00"> +usuario</text>
</g>
<!-- Node8&#45;&gt;Node7 -->
<g id="edge7" class="edge">
<title>Node8&#45;&gt;Node7</title>
<path fill="none" stroke="#63b8ff" d="M141.1,-723.87C120.01,-637.05 91.24,-518.62 75.48,-453.76"/>
<polygon fill="none" stroke="#63b8ff" points="137.74,-724.87 143.5,-733.76 144.54,-723.21 137.74,-724.87"/>
</g>
<!-- Node11 -->
<g id="node11" class="node">
<title>Node11</title>
<g id="a_node11"><a xlink:href="class_bot.html" target="_top" xlink:title="Armazena e processa as informações do bot.">
<polygon fill="white" stroke="#666666" points="231.5,-448 146.5,-448 146.5,-363 231.5,-363 231.5,-448"/>
<text text-anchor="middle" x="189" y="-436" font-family="Helvetica,sans-Serif" font-size="10.00">{Bot</text>
<text text-anchor="start" x="154.5" y="-425" font-family="Helvetica,sans-Serif" font-size="10.00">||+ Bot()</text>
<text text-anchor="start" x="154.5" y="-414" font-family="Helvetica,sans-Serif" font-size="10.00">+ Bot()</text>
<text text-anchor="start" x="154.5" y="-403" font-family="Helvetica,sans-Serif" font-size="10.00">+ pedirTruco()</text>
<text text-anchor="start" x="154.5" y="-392" font-family="Helvetica,sans-Serif" font-size="10.00">+ aceitarTruco()</text>
<text text-anchor="start" x="154.5" y="-381" font-family="Helvetica,sans-Serif" font-size="10.00">+ jogarCarta()</text>
<text text-anchor="middle" x="189" y="-370" font-family="Helvetica,sans-Serif" font-size="10.00">}</text>
</a>
</g>
</g>
<!-- Node8&#45;&gt;Node11 -->
<g id="edge12" class="edge">
<title>Node8&#45;&gt;Node11</title>
<path fill="none" stroke="#63b8ff" d="M172.55,-723.59C177.18,-634.27 183.54,-511.66 186.83,-448.25"/>
<polygon fill="none" stroke="#63b8ff" points="169.04,-723.59 172.02,-733.76 176.03,-723.95 169.04,-723.59"/>
</g>
<!-- Node9 -->
<g id="node9" class="node">
<title>Node9</title>
<g id="a_node9"><a xlink:title=" ">
<polygon fill="white" stroke="#666666" points="204,-1006 98,-1006 98,-976 204,-976 204,-1006"/>
<text text-anchor="middle" x="151" y="-994" font-family="Helvetica,sans-Serif" font-size="10.00">{std::vector&lt; Carta &gt;</text>
<text text-anchor="middle" x="151" y="-983" font-family="Helvetica,sans-Serif" font-size="10.00">||}</text>
</a>
</g>
</g>
<!-- Node9&#45;&gt;Node8 -->
<g id="edge9" class="edge">
<title>Node9&#45;&gt;Node8</title>
<path fill="none" stroke="#404040" d="M150.95,-975.65C151.02,-967.28 151.27,-956.53 152,-947 152.15,-945.1 152.3,-943.18 152.47,-941.25"/>
<polygon fill="none" stroke="#404040" points="152.47,-941.2 149.05,-934.85 153.59,-929.25 157.01,-935.6 152.47,-941.2"/>
<text text-anchor="middle" x="168.5" y="-950" font-family="Helvetica,sans-Serif" font-size="10.00"> #_mao</text>
</g>
<!-- Node10 -->
<g id="node10" class="node">
<title>Node10</title>
<g id="a_node10"><a xlink:href="class_carta.html" target="_top" xlink:title="Armazena informações básicas de uma carta para o jogo.">
<polygon fill="white" stroke="#666666" points="195.5,-1149 106.5,-1149 106.5,-1053 195.5,-1053 195.5,-1149"/>
<text text-anchor="middle" x="151" y="-1137" font-family="Helvetica,sans-Serif" font-size="10.00">{Carta</text>
<text text-anchor="start" x="114.5" y="-1126" font-family="Helvetica,sans-Serif" font-size="10.00">||+ Carta()</text>
<text text-anchor="start" x="114.5" y="-1115" font-family="Helvetica,sans-Serif" font-size="10.00">+ getNome()</text>
<text text-anchor="start" x="114.5" y="-1104" font-family="Helvetica,sans-Serif" font-size="10.00">+ getPeso()</text>
<text text-anchor="start" x="114.5" y="-1093" font-family="Helvetica,sans-Serif" font-size="10.00">+ getId()</text>
<text text-anchor="start" x="114.5" y="-1082" font-family="Helvetica,sans-Serif" font-size="10.00">+ setId()</text>
<text text-anchor="start" x="114.5" y="-1071" font-family="Helvetica,sans-Serif" font-size="10.00">+ imprimeCarta()</text>
<text text-anchor="middle" x="151" y="-1060" font-family="Helvetica,sans-Serif" font-size="10.00">}</text>
</a>
</g>
</g>
<!-- Node10&#45;&gt;Node9 -->
<g id="edge10" class="edge">
<title>Node10&#45;&gt;Node9</title>
<path fill="none" stroke="#404040" d="M151,-1052.94C151,-1041.11 151,-1028.83 151,-1018.42"/>
<polygon fill="none" stroke="#404040" points="151,-1018.4 147,-1012.4 151,-1006.4 155,-1012.4 151,-1018.4"/>
<text text-anchor="middle" x="175.5" y="-1027" font-family="Helvetica,sans-Serif" font-size="10.00"> +elements</text>
</g>
<!-- Node11&#45;&gt;Node1 -->
<g id="edge11" class="edge">
<title>Node11&#45;&gt;Node1</title>
<path fill="none" stroke="#404040" d="M197.75,-362.89C204.73,-330.78 215.12,-285.35 226,-246 226.58,-243.89 227.18,-241.76 227.78,-239.62"/>
<polygon fill="none" stroke="#404040" points="227.79,-239.61 225.61,-232.74 231.12,-228.08 233.29,-234.96 227.79,-239.61"/>
<text text-anchor="middle" x="240" y="-271" font-family="Helvetica,sans-Serif" font-size="10.00"> +bot1</text>
<text text-anchor="middle" x="240" y="-260" font-family="Helvetica,sans-Serif" font-size="10.00">+bot2</text>
<text text-anchor="middle" x="240" y="-249" font-family="Helvetica,sans-Serif" font-size="10.00">+bot3</text>
</g>
</g>
</svg>
