<?xml version="1.0" encoding="UTF-8" standalone="no"?>
<!DOCTYPE svg PUBLIC "-//W3C//DTD SVG 1.1//EN"
 "http://www.w3.org/Graphics/SVG/1.1/DTD/svg11.dtd">
<!-- Generated by graphviz version 4.0.0 (20220529.0937)
 -->
<!-- Title: Humano Pages: 1 -->
<svg width="220pt" height="556pt"
 viewBox="0.00 0.00 220.00 556.00" xmlns="http://www.w3.org/2000/svg" xmlns:xlink="http://www.w3.org/1999/xlink">
<g id="graph0" class="graph" transform="scale(1 1) rotate(0) translate(4 552)">
<title>Humano</title>
<!-- Node1 -->
<g id="node1" class="node">
<title>Node1</title>
<g id="a_node1"><a xlink:title="Classe que armazena e processa as informações do usuário.">
<polygon fill="#999999" stroke="#666666" points="167,-96 39,-96 39,0 167,0 167,-96"/>
<text text-anchor="middle" x="103" y="-84" font-family="Helvetica,sans-Serif" font-size="10.00">{Humano</text>
<text text-anchor="start" x="47" y="-73" font-family="Helvetica,sans-Serif" font-size="10.00">||+ Humano()</text>
<text text-anchor="start" x="47" y="-62" font-family="Helvetica,sans-Serif" font-size="10.00">+ Humano()</text>
<text text-anchor="start" x="47" y="-51" font-family="Helvetica,sans-Serif" font-size="10.00">+ imprimeCartasJogador()</text>
<text text-anchor="start" x="47" y="-40" font-family="Helvetica,sans-Serif" font-size="10.00">+ msgSelecionarCartas()</text>
<text text-anchor="start" x="47" y="-29" font-family="Helvetica,sans-Serif" font-size="10.00">+ checaIndice()</text>
<text text-anchor="start" x="47" y="-18" font-family="Helvetica,sans-Serif" font-size="10.00">+ jogarCarta()</text>
<text text-anchor="middle" x="103" y="-7" font-family="Helvetica,sans-Serif" font-size="10.00">}</text>
</a>
</g>
</g>
<!-- Node2 -->
<g id="node2" class="node">
<title>Node2</title>
<g id="a_node2"><a xlink:href="class_jogador.html" target="_top" xlink:title="Armazena e processa as informações do jogador.">
<polygon fill="white" stroke="#666666" points="152,-328 54,-328 54,-133 152,-133 152,-328"/>
<text text-anchor="middle" x="103" y="-316" font-family="Helvetica,sans-Serif" font-size="10.00">{Jogador</text>
<text text-anchor="start" x="62" y="-305" font-family="Helvetica,sans-Serif" font-size="10.00">|# _pontos</text>
<text text-anchor="start" x="62" y="-294" font-family="Helvetica,sans-Serif" font-size="10.00"># _idJogador</text>
<text text-anchor="start" x="62" y="-283" font-family="Helvetica,sans-Serif" font-size="10.00"># _idDupla</text>
<text text-anchor="start" x="62" y="-272" font-family="Helvetica,sans-Serif" font-size="10.00"># _pedindoTruco</text>
<text text-anchor="start" x="62" y="-261" font-family="Helvetica,sans-Serif" font-size="10.00"># _aceitandoTruco</text>
<text text-anchor="start" x="62" y="-250" font-family="Helvetica,sans-Serif" font-size="10.00">|+ Jogador()</text>
<text text-anchor="start" x="62" y="-239" font-family="Helvetica,sans-Serif" font-size="10.00">+ Jogador()</text>
<text text-anchor="start" x="62" y="-228" font-family="Helvetica,sans-Serif" font-size="10.00">+ pedirTruco()</text>
<text text-anchor="start" x="62" y="-217" font-family="Helvetica,sans-Serif" font-size="10.00">+ aceitarTruco()</text>
<text text-anchor="start" x="62" y="-206" font-family="Helvetica,sans-Serif" font-size="10.00">+ getPontos()</text>
<text text-anchor="start" x="62" y="-195" font-family="Helvetica,sans-Serif" font-size="10.00">+ adicionaPontos()</text>
<text text-anchor="start" x="62" y="-184" font-family="Helvetica,sans-Serif" font-size="10.00">+ getNome()</text>
<text text-anchor="start" x="62" y="-173" font-family="Helvetica,sans-Serif" font-size="10.00">+ jogarCarta()</text>
<text text-anchor="start" x="62" y="-162" font-family="Helvetica,sans-Serif" font-size="10.00">+ setMao()</text>
<text text-anchor="start" x="62" y="-151" font-family="Helvetica,sans-Serif" font-size="10.00">+ getMaoSize()</text>
<text text-anchor="middle" x="103" y="-140" font-family="Helvetica,sans-Serif" font-size="10.00">}</text>
</a>
</g>
</g>
<!-- Node2&#45;&gt;Node1 -->
<g id="edge1" class="edge">
<title>Node2&#45;&gt;Node1</title>
<path fill="none" stroke="#63b8ff" d="M103,-122.81C103,-113.57 103,-104.57 103,-96.22"/>
<polygon fill="none" stroke="#63b8ff" points="99.5,-122.91 103,-132.91 106.5,-122.91 99.5,-122.91"/>
</g>
<!-- Node3 -->
<g id="node3" class="node">
<title>Node3</title>
<g id="a_node3"><a xlink:title=" ">
<polygon fill="white" stroke="#666666" points="83.5,-405 20.5,-405 20.5,-375 83.5,-375 83.5,-405"/>
<text text-anchor="middle" x="52" y="-393" font-family="Helvetica,sans-Serif" font-size="10.00">{std::string</text>
<text text-anchor="middle" x="52" y="-382" font-family="Helvetica,sans-Serif" font-size="10.00">||}</text>
</a>
</g>
</g>
<!-- Node3&#45;&gt;Node2 -->
<g id="edge2" class="edge">
<title>Node3&#45;&gt;Node2</title>
<path fill="none" stroke="#404040" d="M56.62,-374.75C59.49,-365.87 63.48,-353.56 67.92,-339.84"/>
<polygon fill="none" stroke="#404040" points="68.05,-339.45 66.09,-332.51 71.74,-328.03 73.7,-334.97 68.05,-339.45"/>
<text text-anchor="middle" x="85" y="-349" font-family="Helvetica,sans-Serif" font-size="10.00"> #_nome</text>
</g>
<!-- Node4 -->
<g id="node4" class="node">
<title>Node4</title>
<g id="a_node4"><a xlink:title=" ">
<polygon fill="white" stroke="#666666" points="98,-520.5 0,-520.5 0,-479.5 98,-479.5 98,-520.5"/>
<text text-anchor="start" x="8" y="-508.5" font-family="Helvetica,sans-Serif" font-size="10.00">{std::basic_string&lt;</text>
<text text-anchor="middle" x="49" y="-497.5" font-family="Helvetica,sans-Serif" font-size="10.00"> Char &gt;</text>
<text text-anchor="middle" x="49" y="-486.5" font-family="Helvetica,sans-Serif" font-size="10.00">||}</text>
</a>
</g>
</g>
<!-- Node4&#45;&gt;Node3 -->
<g id="edge3" class="edge">
<title>Node4&#45;&gt;Node3</title>
<path fill="none" stroke="#63b8ff" d="M49.83,-469.18C50.41,-448.34 51.15,-421.44 51.6,-405.24"/>
<polygon fill="none" stroke="#63b8ff" points="46.32,-469.35 49.54,-479.44 53.32,-469.54 46.32,-469.35"/>
</g>
<!-- Node5 -->
<g id="node5" class="node">
<title>Node5</title>
<g id="a_node5"><a xlink:title=" ">
<polygon fill="white" stroke="#666666" points="212,-405 106,-405 106,-375 212,-375 212,-405"/>
<text text-anchor="middle" x="159" y="-393" font-family="Helvetica,sans-Serif" font-size="10.00">{std::vector&lt; Carta &gt;</text>
<text text-anchor="middle" x="159" y="-382" font-family="Helvetica,sans-Serif" font-size="10.00">||}</text>
</a>
</g>
</g>
<!-- Node5&#45;&gt;Node2 -->
<g id="edge4" class="edge">
<title>Node5&#45;&gt;Node2</title>
<path fill="none" stroke="#404040" d="M153.93,-374.75C150.74,-365.78 146.31,-353.31 141.37,-339.43"/>
<polygon fill="none" stroke="#404040" points="141.34,-339.34 135.56,-335.02 137.32,-328.03 143.1,-332.34 141.34,-339.34"/>
<text text-anchor="middle" x="163.5" y="-349" font-family="Helvetica,sans-Serif" font-size="10.00"> #_mao</text>
</g>
<!-- Node6 -->
<g id="node6" class="node">
<title>Node6</title>
<g id="a_node6"><a xlink:href="class_carta.html" target="_top" xlink:title="Armazena informações básicas de uma carta para o jogo.">
<polygon fill="white" stroke="#666666" points="205.5,-548 116.5,-548 116.5,-452 205.5,-452 205.5,-548"/>
<text text-anchor="middle" x="161" y="-536" font-family="Helvetica,sans-Serif" font-size="10.00">{Carta</text>
<text text-anchor="start" x="124.5" y="-525" font-family="Helvetica,sans-Serif" font-size="10.00">||+ Carta()</text>
<text text-anchor="start" x="124.5" y="-514" font-family="Helvetica,sans-Serif" font-size="10.00">+ getNome()</text>
<text text-anchor="start" x="124.5" y="-503" font-family="Helvetica,sans-Serif" font-size="10.00">+ getPeso()</text>
<text text-anchor="start" x="124.5" y="-492" font-family="Helvetica,sans-Serif" font-size="10.00">+ getId()</text>
<text text-anchor="start" x="124.5" y="-481" font-family="Helvetica,sans-Serif" font-size="10.00">+ setId()</text>
<text text-anchor="start" x="124.5" y="-470" font-family="Helvetica,sans-Serif" font-size="10.00">+ imprimeCarta()</text>
<text text-anchor="middle" x="161" y="-459" font-family="Helvetica,sans-Serif" font-size="10.00">}</text>
</a>
</g>
</g>
<!-- Node6&#45;&gt;Node5 -->
<g id="edge5" class="edge">
<title>Node6&#45;&gt;Node5</title>
<path fill="none" stroke="#404040" d="M160.13,-451.94C159.91,-440.11 159.68,-427.83 159.49,-417.42"/>
<polygon fill="none" stroke="#404040" points="159.49,-417.4 155.38,-411.48 159.27,-405.4 163.38,-411.33 159.49,-417.4"/>
<text text-anchor="middle" x="184.5" y="-426" font-family="Helvetica,sans-Serif" font-size="10.00"> +elements</text>
</g>
</g>
</svg>
