<?xml version="1.0" encoding="UTF-8" standalone="no"?>
<!DOCTYPE svg PUBLIC "-//W3C//DTD SVG 1.1//EN"
 "http://www.w3.org/Graphics/SVG/1.1/DTD/svg11.dtd">
<!-- Generated by graphviz version 4.0.0 (20220529.0937)
 -->
<!-- Title: Bot Pages: 1 -->
<svg width="220pt" height="545pt"
 viewBox="0.00 0.00 220.00 545.00" xmlns="http://www.w3.org/2000/svg" xmlns:xlink="http://www.w3.org/1999/xlink">
<g id="graph0" class="graph" transform="scale(1 1) rotate(0) translate(4 541)">
<title>Bot</title>
<!-- Node1 -->
<g id="node1" class="node">
<title>Node1</title>
<g id="a_node1"><a xlink:title="Armazena e processa as informações do bot.">
<polygon fill="#999999" stroke="#666666" points="145.5,-85 60.5,-85 60.5,0 145.5,0 145.5,-85"/>
<text text-anchor="middle" x="103" y="-73" font-family="Helvetica,sans-Serif" font-size="10.00">{Bot</text>
<text text-anchor="start" x="68.5" y="-62" font-family="Helvetica,sans-Serif" font-size="10.00">||+ Bot()</text>
<text text-anchor="start" x="68.5" y="-51" font-family="Helvetica,sans-Serif" font-size="10.00">+ Bot()</text>
<text text-anchor="start" x="68.5" y="-40" font-family="Helvetica,sans-Serif" font-size="10.00">+ pedirTruco()</text>
<text text-anchor="start" x="68.5" y="-29" font-family="Helvetica,sans-Serif" font-size="10.00">+ aceitarTruco()</text>
<text text-anchor="start" x="68.5" y="-18" font-family="Helvetica,sans-Serif" font-size="10.00">+ jogarCarta()</text>
<text text-anchor="middle" x="103" y="-7" font-family="Helvetica,sans-Serif" font-size="10.00">}</text>
</a>
</g>
</g>
<!-- Node2 -->
<g id="node2" class="node">
<title>Node2</title>
<g id="a_node2"><a xlink:href="class_jogador.html" target="_top" xlink:title="Armazena e processa as informações do jogador.">
<polygon fill="white" stroke="#666666" points="152,-317 54,-317 54,-122 152,-122 152,-317"/>
<text text-anchor="middle" x="103" y="-305" font-family="Helvetica,sans-Serif" font-size="10.00">{Jogador</text>
<text text-anchor="start" x="62" y="-294" font-family="Helvetica,sans-Serif" font-size="10.00">|# _pontos</text>
<text text-anchor="start" x="62" y="-283" font-family="Helvetica,sans-Serif" font-size="10.00"># _idJogador</text>
<text text-anchor="start" x="62" y="-272" font-family="Helvetica,sans-Serif" font-size="10.00"># _idDupla</text>
<text text-anchor="start" x="62" y="-261" font-family="Helvetica,sans-Serif" font-size="10.00"># _pedindoTruco</text>
<text text-anchor="start" x="62" y="-250" font-family="Helvetica,sans-Serif" font-size="10.00"># _aceitandoTruco</text>
<text text-anchor="start" x="62" y="-239" font-family="Helvetica,sans-Serif" font-size="10.00">|+ Jogador()</text>
<text text-anchor="start" x="62" y="-228" font-family="Helvetica,sans-Serif" font-size="10.00">+ Jogador()</text>
<text text-anchor="start" x="62" y="-217" font-family="Helvetica,sans-Serif" font-size="10.00">+ pedirTruco()</text>
<text text-anchor="start" x="62" y="-206" font-family="Helvetica,sans-Serif" font-size="10.00">+ aceitarTruco()</text>
<text text-anchor="start" x="62" y="-195" font-family="Helvetica,sans-Serif" font-size="10.00">+ getPontos()</text>
<text text-anchor="start" x="62" y="-184" font-family="Helvetica,sans-Serif" font-size="10.00">+ adicionaPontos()</text>
<text text-anchor="start" x="62" y="-173" font-family="Helvetica,sans-Serif" font-size="10.00">+ getNome()</text>
<text text-anchor="start" x="62" y="-162" font-family="Helvetica,sans-Serif" font-size="10.00">+ jogarCarta()</text>
<text text-anchor="start" x="62" y="-151" font-family="Helvetica,sans-Serif" font-size="10.00">+ setMao()</text>
<text text-anchor="start" x="62" y="-140" font-family="Helvetica,sans-Serif" font-size="10.00">+ getMaoSize()</text>
<text text-anchor="middle" x="103" y="-129" font-family="Helvetica,sans-Serif" font-size="10.00">}</text>
</a>
</g>
</g>
<!-- Node2&#45;&gt;Node1 -->
<g id="edge1" class="edge">
<title>Node2&#45;&gt;Node1</title>
<path fill="none" stroke="#63b8ff" d="M103,-111.66C103,-102.42 103,-93.48 103,-85.28"/>
<polygon fill="none" stroke="#63b8ff" points="99.5,-111.79 103,-121.79 106.5,-111.79 99.5,-111.79"/>
</g>
<!-- Node3 -->
<g id="node3" class="node">
<title>Node3</title>
<g id="a_node3"><a xlink:title=" ">
<polygon fill="white" stroke="#666666" points="83.5,-394 20.5,-394 20.5,-364 83.5,-364 83.5,-394"/>
<text text-anchor="middle" x="52" y="-382" font-family="Helvetica,sans-Serif" font-size="10.00">{std::string</text>
<text text-anchor="middle" x="52" y="-371" font-family="Helvetica,sans-Serif" font-size="10.00">||}</text>
</a>
</g>
</g>
<!-- Node3&#45;&gt;Node2 -->
<g id="edge2" class="edge">
<title>Node3&#45;&gt;Node2</title>
<path fill="none" stroke="#404040" d="M56.62,-363.75C59.49,-354.87 63.48,-342.56 67.92,-328.84"/>
<polygon fill="none" stroke="#404040" points="68.05,-328.45 66.09,-321.51 71.74,-317.03 73.7,-323.97 68.05,-328.45"/>
<text text-anchor="middle" x="85" y="-338" font-family="Helvetica,sans-Serif" font-size="10.00"> #_nome</text>
</g>
<!-- Node4 -->
<g id="node4" class="node">
<title>Node4</title>
<g id="a_node4"><a xlink:title=" ">
<polygon fill="white" stroke="#666666" points="98,-509.5 0,-509.5 0,-468.5 98,-468.5 98,-509.5"/>
<text text-anchor="start" x="8" y="-497.5" font-family="Helvetica,sans-Serif" font-size="10.00">{std::basic_string&lt;</text>
<text text-anchor="middle" x="49" y="-486.5" font-family="Helvetica,sans-Serif" font-size="10.00"> Char &gt;</text>
<text text-anchor="middle" x="49" y="-475.5" font-family="Helvetica,sans-Serif" font-size="10.00">||}</text>
</a>
</g>
</g>
<!-- Node4&#45;&gt;Node3 -->
<g id="edge3" class="edge">
<title>Node4&#45;&gt;Node3</title>
<path fill="none" stroke="#63b8ff" d="M49.83,-458.18C50.41,-437.34 51.15,-410.44 51.6,-394.24"/>
<polygon fill="none" stroke="#63b8ff" points="46.32,-458.35 49.54,-468.44 53.32,-458.54 46.32,-458.35"/>
</g>
<!-- Node5 -->
<g id="node5" class="node">
<title>Node5</title>
<g id="a_node5"><a xlink:title=" ">
<polygon fill="white" stroke="#666666" points="212,-394 106,-394 106,-364 212,-364 212,-394"/>
<text text-anchor="middle" x="159" y="-382" font-family="Helvetica,sans-Serif" font-size="10.00">{std::vector&lt; Carta &gt;</text>
<text text-anchor="middle" x="159" y="-371" font-family="Helvetica,sans-Serif" font-size="10.00">||}</text>
</a>
</g>
</g>
<!-- Node5&#45;&gt;Node2 -->
<g id="edge4" class="edge">
<title>Node5&#45;&gt;Node2</title>
<path fill="none" stroke="#404040" d="M153.93,-363.75C150.74,-354.78 146.31,-342.31 141.37,-328.43"/>
<polygon fill="none" stroke="#404040" points="141.34,-328.34 135.56,-324.02 137.32,-317.03 143.1,-321.34 141.34,-328.34"/>
<text text-anchor="middle" x="163.5" y="-338" font-family="Helvetica,sans-Serif" font-size="10.00"> #_mao</text>
</g>
<!-- Node6 -->
<g id="node6" class="node">
<title>Node6</title>
<g id="a_node6"><a xlink:href="class_carta.html" target="_top" xlink:title="Armazena informações básicas de uma carta para o jogo.">
<polygon fill="white" stroke="#666666" points="205.5,-537 116.5,-537 116.5,-441 205.5,-441 205.5,-537"/>
<text text-anchor="middle" x="161" y="-525" font-family="Helvetica,sans-Serif" font-size="10.00">{Carta</text>
<text text-anchor="start" x="124.5" y="-514" font-family="Helvetica,sans-Serif" font-size="10.00">||+ Carta()</text>
<text text-anchor="start" x="124.5" y="-503" font-family="Helvetica,sans-Serif" font-size="10.00">+ getNome()</text>
<text text-anchor="start" x="124.5" y="-492" font-family="Helvetica,sans-Serif" font-size="10.00">+ getPeso()</text>
<text text-anchor="start" x="124.5" y="-481" font-family="Helvetica,sans-Serif" font-size="10.00">+ getId()</text>
<text text-anchor="start" x="124.5" y="-470" font-family="Helvetica,sans-Serif" font-size="10.00">+ setId()</text>
<text text-anchor="start" x="124.5" y="-459" font-family="Helvetica,sans-Serif" font-size="10.00">+ imprimeCarta()</text>
<text text-anchor="middle" x="161" y="-448" font-family="Helvetica,sans-Serif" font-size="10.00">}</text>
</a>
</g>
</g>
<!-- Node6&#45;&gt;Node5 -->
<g id="edge5" class="edge">
<title>Node6&#45;&gt;Node5</title>
<path fill="none" stroke="#404040" d="M160.13,-440.94C159.91,-429.11 159.68,-416.83 159.49,-406.42"/>
<polygon fill="none" stroke="#404040" points="159.49,-406.4 155.38,-400.48 159.27,-394.4 163.38,-400.33 159.49,-406.4"/>
<text text-anchor="middle" x="184.5" y="-415" font-family="Helvetica,sans-Serif" font-size="10.00"> +elements</text>
</g>
</g>
</svg>
