<?xml version="1.0" encoding="UTF-8" standalone="no"?>
<!DOCTYPE svg PUBLIC "-//W3C//DTD SVG 1.1//EN"
 "http://www.w3.org/Graphics/SVG/1.1/DTD/svg11.dtd">
<!-- Generated by graphviz version 4.0.0 (20220529.0937)
 -->
<!-- Title: humano.hpp Pages: 1 -->
<svg width="572pt" height="247pt"
 viewBox="0.00 0.00 571.50 247.00" xmlns="http://www.w3.org/2000/svg" xmlns:xlink="http://www.w3.org/1999/xlink">
<g id="graph0" class="graph" transform="scale(1 1) rotate(0) translate(4 243)">
<title>humano.hpp</title>
<!-- Node1 -->
<g id="node1" class="node">
<title>Node1</title>
<g id="a_node1"><a xlink:title="Classe com a l贸gica do humano.">
<polygon fill="#999999" stroke="#666666" points="277,-239 207,-239 207,-220 277,-220 277,-239"/>
<text text-anchor="middle" x="242" y="-227" font-family="Helvetica,sans-Serif" font-size="10.00">humano.hpp</text>
</a>
</g>
</g>
<!-- Node2 -->
<g id="node2" class="node">
<title>Node2</title>
<g id="a_node2"><a xlink:href="carta_8hpp.html" target="_top" xlink:title="Classe com a l贸gica da carta.">
<polygon fill="white" stroke="#666666" points="275.5,-74 218.5,-74 218.5,-55 275.5,-55 275.5,-74"/>
<text text-anchor="middle" x="247" y="-62" font-family="Helvetica,sans-Serif" font-size="10.00">carta.hpp</text>
</a>
</g>
</g>
<!-- Node1&#45;&gt;Node2 -->
<g id="edge1" class="edge">
<title>Node1&#45;&gt;Node2</title>
<path fill="none" stroke="#63b8ff" d="M229.79,-219.86C219.65,-211.88 205.96,-199.01 200,-184 196.88,-176.15 198.15,-173.24 200,-165 206.9,-134.22 224.45,-101.76 236.04,-82.58"/>
<polygon fill="#63b8ff" stroke="#63b8ff" points="239.02,-84.42 241.33,-74.08 233.08,-80.72 239.02,-84.42"/>
</g>
<!-- Node3 -->
<g id="node3" class="node">
<title>Node3</title>
<g id="a_node3"><a xlink:title=" ">
<polygon fill="#e0e0e0" stroke="#999999" points="243,-19 193,-19 193,0 243,0 243,-19"/>
<text text-anchor="middle" x="218" y="-7" font-family="Helvetica,sans-Serif" font-size="10.00">iomanip</text>
</a>
</g>
</g>
<!-- Node1&#45;&gt;Node3 -->
<g id="edge25" class="edge">
<title>Node1&#45;&gt;Node3</title>
<path fill="none" stroke="#63b8ff" d="M227.63,-219.96C216.13,-212.21 200.82,-199.62 194,-184 170.84,-130.94 195.4,-60.84 209.52,-28.39"/>
<polygon fill="#63b8ff" stroke="#63b8ff" points="212.72,-29.8 213.66,-19.25 206.34,-26.91 212.72,-29.8"/>
</g>
<!-- Node4 -->
<g id="node4" class="node">
<title>Node4</title>
<g id="a_node4"><a xlink:title=" ">
<polygon fill="#e0e0e0" stroke="#999999" points="54,-19 0,-19 0,0 54,0 54,-19"/>
<text text-anchor="middle" x="27" y="-7" font-family="Helvetica,sans-Serif" font-size="10.00">iostream</text>
</a>
</g>
</g>
<!-- Node1&#45;&gt;Node4 -->
<g id="edge26" class="edge">
<title>Node1&#45;&gt;Node4</title>
<path fill="none" stroke="#63b8ff" d="M224.11,-219.99C208.37,-211.99 185.32,-199.04 168,-184 111.44,-134.9 60.04,-61.25 38.15,-27.95"/>
<polygon fill="#63b8ff" stroke="#63b8ff" points="40.94,-25.82 32.56,-19.33 35.07,-29.63 40.94,-25.82"/>
</g>
<!-- Node5 -->
<g id="node5" class="node">
<title>Node5</title>
<g id="a_node5"><a xlink:title=" ">
<polygon fill="#e0e0e0" stroke="#999999" points="462.5,-19 421.5,-19 421.5,0 462.5,0 462.5,-19"/>
<text text-anchor="middle" x="442" y="-7" font-family="Helvetica,sans-Serif" font-size="10.00">string</text>
</a>
</g>
</g>
<!-- Node1&#45;&gt;Node5 -->
<g id="edge27" class="edge">
<title>Node1&#45;&gt;Node5</title>
<path fill="none" stroke="#63b8ff" d="M268.15,-219.95C288.48,-212.5 316.72,-200.32 338,-184 388.58,-145.22 402.76,-131.62 430,-74 436.68,-59.88 439.64,-42.34 440.95,-29.27"/>
<polygon fill="#63b8ff" stroke="#63b8ff" points="444.46,-29.38 441.74,-19.14 437.48,-28.84 444.46,-29.38"/>
</g>
<!-- Node6 -->
<g id="node6" class="node">
<title>Node6</title>
<g id="a_node6"><a xlink:title=" ">
<polygon fill="#e0e0e0" stroke="#999999" points="563.5,-19 528.5,-19 528.5,0 563.5,0 563.5,-19"/>
<text text-anchor="middle" x="546" y="-7" font-family="Helvetica,sans-Serif" font-size="10.00">map</text>
</a>
</g>
</g>
<!-- Node1&#45;&gt;Node6 -->
<g id="edge28" class="edge">
<title>Node1&#45;&gt;Node6</title>
<path fill="none" stroke="#63b8ff" d="M276.28,-219.94C301.48,-212.71 335.9,-200.82 363,-184 435.73,-138.85 504.11,-61.46 532.36,-27.41"/>
<polygon fill="#63b8ff" stroke="#63b8ff" points="535.32,-29.33 538.95,-19.38 529.9,-24.89 535.32,-29.33"/>
</g>
<!-- Node7 -->
<g id="node7" class="node">
<title>Node7</title>
<g id="a_node7"><a xlink:title=" ">
<polygon fill="#e0e0e0" stroke="#999999" points="382,-19 340,-19 340,0 382,0 382,-19"/>
<text text-anchor="middle" x="361" y="-7" font-family="Helvetica,sans-Serif" font-size="10.00">vector</text>
</a>
</g>
</g>
<!-- Node1&#45;&gt;Node7 -->
<g id="edge29" class="edge">
<title>Node1&#45;&gt;Node7</title>
<path fill="none" stroke="#63b8ff" d="M259.03,-219.8C286.1,-205.03 338.56,-172.39 365,-129 382.42,-100.42 385.39,-87.86 379,-55 377.21,-45.8 373.52,-36.09 369.94,-28.1"/>
<polygon fill="#63b8ff" stroke="#63b8ff" points="373.09,-26.57 365.62,-19.06 366.77,-29.59 373.09,-26.57"/>
</g>
<!-- Node8 -->
<g id="node8" class="node">
<title>Node8</title>
<g id="a_node8"><a xlink:title=" ">
<polygon fill="#e0e0e0" stroke="#999999" points="147.5,-19 118.5,-19 118.5,0 147.5,0 147.5,-19"/>
<text text-anchor="middle" x="133" y="-7" font-family="Helvetica,sans-Serif" font-size="10.00">list</text>
</a>
</g>
</g>
<!-- Node1&#45;&gt;Node8 -->
<g id="edge30" class="edge">
<title>Node1&#45;&gt;Node8</title>
<path fill="none" stroke="#63b8ff" d="M225.68,-219.85C212.59,-212.11 194.7,-199.6 184,-184 150.33,-134.9 138.56,-63.33 134.72,-29.53"/>
<polygon fill="#63b8ff" stroke="#63b8ff" points="138.16,-28.84 133.67,-19.25 131.2,-29.55 138.16,-28.84"/>
</g>
<!-- Node9 -->
<g id="node9" class="node">
<title>Node9</title>
<g id="a_node9"><a xlink:href="baralho_8hpp.html" target="_top" xlink:title="Classe com a l贸gica do baralho.">
<polygon fill="white" stroke="#666666" points="337.5,-129 270.5,-129 270.5,-110 337.5,-110 337.5,-129"/>
<text text-anchor="middle" x="304" y="-117" font-family="Helvetica,sans-Serif" font-size="10.00">baralho.hpp</text>
</a>
</g>
</g>
<!-- Node1&#45;&gt;Node9 -->
<g id="edge8" class="edge">
<title>Node1&#45;&gt;Node9</title>
<path fill="none" stroke="#63b8ff" d="M253.06,-219.74C262.78,-211.48 276.64,-198.28 285,-184 293.09,-170.17 298,-152.61 300.8,-139.45"/>
<polygon fill="#63b8ff" stroke="#63b8ff" points="304.31,-139.72 302.74,-129.24 297.43,-138.41 304.31,-139.72"/>
</g>
<!-- Node10 -->
<g id="node10" class="node">
<title>Node10</title>
<g id="a_node10"><a xlink:href="jogador_8hpp.html" target="_top" xlink:title="Classe com a l贸gica do jogador.">
<polygon fill="white" stroke="#666666" points="275.5,-184 208.5,-184 208.5,-165 275.5,-165 275.5,-184"/>
<text text-anchor="middle" x="242" y="-172" font-family="Helvetica,sans-Serif" font-size="10.00">jogador.hpp</text>
</a>
</g>
</g>
<!-- Node1&#45;&gt;Node10 -->
<g id="edge16" class="edge">
<title>Node1&#45;&gt;Node10</title>
<path fill="none" stroke="#63b8ff" d="M242,-219.75C242,-212.8 242,-202.85 242,-194.13"/>
<polygon fill="#63b8ff" stroke="#63b8ff" points="245.5,-194.09 242,-184.09 238.5,-194.09 245.5,-194.09"/>
</g>
<!-- Node2&#45;&gt;Node3 -->
<g id="edge2" class="edge">
<title>Node2&#45;&gt;Node3</title>
<path fill="none" stroke="#63b8ff" d="M242.21,-54.75C238.24,-47.49 232.47,-36.95 227.57,-27.98"/>
<polygon fill="#63b8ff" stroke="#63b8ff" points="230.57,-26.18 222.7,-19.09 224.43,-29.54 230.57,-26.18"/>
</g>
<!-- Node2&#45;&gt;Node4 -->
<g id="edge3" class="edge">
<title>Node2&#45;&gt;Node4</title>
<path fill="none" stroke="#63b8ff" d="M218.24,-56.57C178.67,-47.04 107.4,-29.87 63.93,-19.4"/>
<polygon fill="#63b8ff" stroke="#63b8ff" points="64.58,-15.95 54.04,-17.01 62.94,-22.76 64.58,-15.95"/>
</g>
<!-- Node2&#45;&gt;Node5 -->
<g id="edge4" class="edge">
<title>Node2&#45;&gt;Node5</title>
<path fill="none" stroke="#63b8ff" d="M275.77,-55.68C312.18,-45.78 374.61,-28.82 411.72,-18.73"/>
<polygon fill="#63b8ff" stroke="#63b8ff" points="412.75,-22.08 421.48,-16.08 410.91,-15.32 412.75,-22.08"/>
</g>
<!-- Node2&#45;&gt;Node6 -->
<g id="edge5" class="edge">
<title>Node2&#45;&gt;Node6</title>
<path fill="none" stroke="#63b8ff" d="M275.67,-58.42C333.07,-48.24 461.44,-25.49 518.15,-15.44"/>
<polygon fill="#63b8ff" stroke="#63b8ff" points="518.95,-18.85 528.19,-13.66 517.73,-11.96 518.95,-18.85"/>
</g>
<!-- Node2&#45;&gt;Node7 -->
<g id="edge6" class="edge">
<title>Node2&#45;&gt;Node7</title>
<path fill="none" stroke="#63b8ff" d="M265.32,-54.98C283.66,-46.46 312.11,-33.23 333.23,-23.41"/>
<polygon fill="#63b8ff" stroke="#63b8ff" points="334.76,-26.56 342.35,-19.17 331.81,-20.21 334.76,-26.56"/>
</g>
<!-- Node2&#45;&gt;Node8 -->
<g id="edge7" class="edge">
<title>Node2&#45;&gt;Node8</title>
<path fill="none" stroke="#63b8ff" d="M228.68,-54.98C209.14,-45.9 178.12,-31.48 156.72,-21.53"/>
<polygon fill="#63b8ff" stroke="#63b8ff" points="158.19,-18.35 147.65,-17.31 155.24,-24.7 158.19,-18.35"/>
</g>
<!-- Node9&#45;&gt;Node2 -->
<g id="edge9" class="edge">
<title>Node9&#45;&gt;Node2</title>
<path fill="none" stroke="#63b8ff" d="M294.84,-109.98C286.5,-102.23 273.97,-90.58 263.82,-81.14"/>
<polygon fill="#63b8ff" stroke="#63b8ff" points="266.03,-78.42 256.32,-74.17 261.26,-83.54 266.03,-78.42"/>
</g>
<!-- Node9&#45;&gt;Node3 -->
<g id="edge10" class="edge">
<title>Node9&#45;&gt;Node3</title>
<path fill="none" stroke="#63b8ff" d="M303.28,-109.87C301.81,-96.82 297.47,-71.83 285,-55 275.14,-41.69 260.03,-31.16 246.66,-23.69"/>
<polygon fill="#63b8ff" stroke="#63b8ff" points="248.24,-20.57 237.76,-19.01 244.98,-26.77 248.24,-20.57"/>
</g>
<!-- Node9&#45;&gt;Node4 -->
<g id="edge11" class="edge">
<title>Node9&#45;&gt;Node4</title>
<path fill="none" stroke="#63b8ff" d="M279.38,-109.95C254.46,-101.21 214.89,-87.11 181,-74 137.19,-57.05 86.98,-36.05 56.13,-22.96"/>
<polygon fill="#63b8ff" stroke="#63b8ff" points="57.39,-19.69 46.82,-19 54.66,-26.14 57.39,-19.69"/>
</g>
<!-- Node9&#45;&gt;Node5 -->
<g id="edge12" class="edge">
<title>Node9&#45;&gt;Node5</title>
<path fill="none" stroke="#63b8ff" d="M315.29,-109.66C338.86,-91.22 393.51,-48.45 422.74,-25.57"/>
<polygon fill="#63b8ff" stroke="#63b8ff" points="425.22,-28.08 430.94,-19.16 420.9,-22.57 425.22,-28.08"/>
</g>
<!-- Node9&#45;&gt;Node6 -->
<g id="edge13" class="edge">
<title>Node9&#45;&gt;Node6</title>
<path fill="none" stroke="#63b8ff" d="M323.39,-109.84C366.42,-90.64 469.92,-44.46 519.13,-22.49"/>
<polygon fill="#63b8ff" stroke="#63b8ff" points="520.79,-25.59 528.49,-18.31 517.93,-19.19 520.79,-25.59"/>
</g>
<!-- Node9&#45;&gt;Node7 -->
<g id="edge14" class="edge">
<title>Node9&#45;&gt;Node7</title>
<path fill="none" stroke="#63b8ff" d="M308.66,-109.66C318.06,-91.85 339.43,-51.37 351.76,-28.01"/>
<polygon fill="#63b8ff" stroke="#63b8ff" points="354.86,-29.64 356.43,-19.16 348.67,-26.37 354.86,-29.64"/>
</g>
<!-- Node9&#45;&gt;Node8 -->
<g id="edge15" class="edge">
<title>Node9&#45;&gt;Node8</title>
<path fill="none" stroke="#63b8ff" d="M281.92,-109.88C262.34,-101.81 233.32,-88.81 210,-74 187.54,-59.73 164.32,-39.73 149.33,-26.01"/>
<polygon fill="#63b8ff" stroke="#63b8ff" points="151.62,-23.36 141.91,-19.11 146.85,-28.48 151.62,-23.36"/>
</g>
<!-- Node10&#45;&gt;Node2 -->
<g id="edge17" class="edge">
<title>Node10&#45;&gt;Node2</title>
<path fill="none" stroke="#63b8ff" d="M242.41,-164.66C243.22,-147.17 245.04,-107.8 246.13,-84.27"/>
<polygon fill="#63b8ff" stroke="#63b8ff" points="249.63,-84.31 246.6,-74.16 242.64,-83.99 249.63,-84.31"/>
</g>
<!-- Node10&#45;&gt;Node3 -->
<g id="edge19" class="edge">
<title>Node10&#45;&gt;Node3</title>
<path fill="none" stroke="#63b8ff" d="M237.39,-164.77C227.66,-145.41 206.23,-97.24 210,-55 210.76,-46.5 212.32,-37.19 213.86,-29.29"/>
<polygon fill="#63b8ff" stroke="#63b8ff" points="217.32,-29.81 215.94,-19.3 210.47,-28.38 217.32,-29.81"/>
</g>
<!-- Node10&#45;&gt;Node4 -->
<g id="edge20" class="edge">
<title>Node10&#45;&gt;Node4</title>
<path fill="none" stroke="#63b8ff" d="M230.74,-164.97C196.07,-138.68 90.56,-58.69 46.58,-25.34"/>
<polygon fill="#63b8ff" stroke="#63b8ff" points="48.49,-22.4 38.4,-19.15 44.26,-27.98 48.49,-22.4"/>
</g>
<!-- Node10&#45;&gt;Node5 -->
<g id="edge21" class="edge">
<title>Node10&#45;&gt;Node5</title>
<path fill="none" stroke="#63b8ff" d="M275.69,-167.45C302.18,-161.34 338.85,-149.75 365,-129 399.63,-101.52 423.65,-54.02 434.85,-28.3"/>
<polygon fill="#63b8ff" stroke="#63b8ff" points="438.1,-29.59 438.74,-19.01 431.65,-26.88 438.1,-29.59"/>
</g>
<!-- Node10&#45;&gt;Node6 -->
<g id="edge22" class="edge">
<title>Node10&#45;&gt;Node6</title>
<path fill="none" stroke="#63b8ff" d="M275.73,-166.73C306.17,-159.82 351.61,-147.47 388,-129 444.53,-100.31 501.81,-51.26 529.28,-26.21"/>
<polygon fill="#63b8ff" stroke="#63b8ff" points="531.84,-28.62 536.81,-19.26 527.09,-23.47 531.84,-28.62"/>
</g>
<!-- Node10&#45;&gt;Node7 -->
<g id="edge23" class="edge">
<title>Node10&#45;&gt;Node7</title>
<path fill="none" stroke="#63b8ff" d="M275.63,-168.32C299.45,-162.8 330.07,-151.57 347,-129 368.89,-99.83 367.29,-54.74 364.16,-29.42"/>
<polygon fill="#63b8ff" stroke="#63b8ff" points="367.59,-28.7 362.69,-19.31 360.67,-29.71 367.59,-28.7"/>
</g>
<!-- Node10&#45;&gt;Node8 -->
<g id="edge24" class="edge">
<title>Node10&#45;&gt;Node8</title>
<path fill="none" stroke="#63b8ff" d="M236.24,-164.98C230.19,-156.03 220.41,-141.54 212,-129 187.8,-92.9 159.59,-50.5 144.28,-27.48"/>
<polygon fill="#63b8ff" stroke="#63b8ff" points="147.18,-25.53 138.73,-19.13 141.35,-29.4 147.18,-25.53"/>
</g>
<!-- Node10&#45;&gt;Node9 -->
<g id="edge18" class="edge">
<title>Node10&#45;&gt;Node9</title>
<path fill="none" stroke="#63b8ff" d="M251.96,-164.98C261.13,-157.15 274.94,-145.34 286.03,-135.86"/>
<polygon fill="#63b8ff" stroke="#63b8ff" points="288.53,-138.33 293.86,-129.17 283.98,-133.01 288.53,-138.33"/>
</g>
</g>
</svg>
