<?xml version="1.0" encoding="UTF-8" standalone="no"?>
<!DOCTYPE svg PUBLIC "-//W3C//DTD SVG 1.1//EN"
 "http://www.w3.org/Graphics/SVG/1.1/DTD/svg11.dtd">
<!-- Generated by graphviz version 4.0.0 (20220529.0937)
 -->
<!-- Title: humano.hpp Pages: 1 -->
<svg width="137pt" height="192pt"
 viewBox="0.00 0.00 136.50 192.00" xmlns="http://www.w3.org/2000/svg" xmlns:xlink="http://www.w3.org/1999/xlink">
<g id="graph0" class="graph" transform="scale(1 1) rotate(0) translate(4 188)">
<title>humano.hpp</title>
<!-- Node1 -->
<g id="node1" class="node">
<title>Node1</title>
<g id="a_node1"><a xlink:title="Classe com a l贸gica do humano.">
<polygon fill="#999999" stroke="#666666" points="70,-184 0,-184 0,-165 70,-165 70,-184"/>
<text text-anchor="middle" x="35" y="-172" font-family="Helvetica,sans-Serif" font-size="10.00">humano.hpp</text>
</a>
</g>
</g>
<!-- Node2 -->
<g id="node2" class="node">
<title>Node2</title>
<g id="a_node2"><a xlink:href="jogo_8hpp.html" target="_top" xlink:title="Classe com a l贸gica do jogo.">
<polygon fill="white" stroke="#666666" points="73.5,-19 20.5,-19 20.5,0 73.5,0 73.5,-19"/>
<text text-anchor="middle" x="47" y="-7" font-family="Helvetica,sans-Serif" font-size="10.00">jogo.hpp</text>
</a>
</g>
</g>
<!-- Node1&#45;&gt;Node2 -->
<g id="edge1" class="edge">
<title>Node1&#45;&gt;Node2</title>
<path fill="none" stroke="#63b8ff" d="M24.88,-156.15C12.56,-132.67 -5.07,-89.73 8,-55 13.57,-40.19 26.55,-27.1 36.01,-19.01"/>
<polygon fill="#63b8ff" stroke="#63b8ff" points="21.83,-157.87 29.73,-164.94 27.96,-154.49 21.83,-157.87"/>
</g>
<!-- Node3 -->
<g id="node3" class="node">
<title>Node3</title>
<g id="a_node3"><a xlink:href="menu_8hpp.html" target="_top" xlink:title="Classe com a l贸gica do menu.">
<polygon fill="white" stroke="#666666" points="76.5,-74 17.5,-74 17.5,-55 76.5,-55 76.5,-74"/>
<text text-anchor="middle" x="47" y="-62" font-family="Helvetica,sans-Serif" font-size="10.00">menu.hpp</text>
</a>
</g>
</g>
<!-- Node1&#45;&gt;Node3 -->
<g id="edge2" class="edge">
<title>Node1&#45;&gt;Node3</title>
<path fill="none" stroke="#63b8ff" d="M37.11,-154.48C39.74,-130.84 44.11,-91.5 46.04,-74.16"/>
<polygon fill="#63b8ff" stroke="#63b8ff" points="33.61,-154.34 35.98,-164.66 40.57,-155.11 33.61,-154.34"/>
</g>
<!-- Node4 -->
<g id="node4" class="node">
<title>Node4</title>
<g id="a_node4"><a xlink:href="rodada_8hpp.html" target="_top" xlink:title="Classe com a l贸gica da rodada.">
<polygon fill="white" stroke="#666666" points="128.5,-129 63.5,-129 63.5,-110 128.5,-110 128.5,-129"/>
<text text-anchor="middle" x="96" y="-117" font-family="Helvetica,sans-Serif" font-size="10.00">rodada.hpp</text>
</a>
</g>
</g>
<!-- Node1&#45;&gt;Node4 -->
<g id="edge4" class="edge">
<title>Node1&#45;&gt;Node4</title>
<path fill="none" stroke="#63b8ff" d="M52.47,-158.32C63.34,-148.87 76.94,-137.06 86.02,-129.17"/>
<polygon fill="#63b8ff" stroke="#63b8ff" points="50.05,-155.78 44.8,-164.98 54.65,-161.07 50.05,-155.78"/>
</g>
<!-- Node3&#45;&gt;Node2 -->
<g id="edge3" class="edge">
<title>Node3&#45;&gt;Node2</title>
<path fill="none" stroke="#63b8ff" d="M47,-44.66C47,-35.93 47,-25.99 47,-19.09"/>
<polygon fill="#63b8ff" stroke="#63b8ff" points="43.5,-44.75 47,-54.75 50.5,-44.75 43.5,-44.75"/>
</g>
<!-- Node4&#45;&gt;Node2 -->
<g id="edge5" class="edge">
<title>Node4&#45;&gt;Node2</title>
<path fill="none" stroke="#63b8ff" d="M95.36,-99.72C94.3,-86.64 91.62,-69.1 85,-55 78.35,-40.84 65.95,-27.61 57.12,-19.32"/>
<polygon fill="#63b8ff" stroke="#63b8ff" points="91.87,-100.07 95.93,-109.85 98.86,-99.67 91.87,-100.07"/>
</g>
<!-- Node4&#45;&gt;Node3 -->
<g id="edge6" class="edge">
<title>Node4&#45;&gt;Node3</title>
<path fill="none" stroke="#63b8ff" d="M80.97,-102.24C72.38,-92.95 61.96,-81.68 54.94,-74.09"/>
<polygon fill="#63b8ff" stroke="#63b8ff" points="78.55,-104.78 87.91,-109.75 83.69,-100.03 78.55,-104.78"/>
</g>
</g>
</svg>
