<?xml version="1.0" encoding="UTF-8" standalone="no"?>
<!DOCTYPE svg PUBLIC "-//W3C//DTD SVG 1.1//EN"
 "http://www.w3.org/Graphics/SVG/1.1/DTD/svg11.dtd">
<!-- Generated by graphviz version 4.0.0 (20220529.0937)
 -->
<!-- Title: Graphical Class Hierarchy Pages: 1 -->
<svg width="252pt" height="76pt"
 viewBox="0.00 0.00 252.00 75.50" xmlns="http://www.w3.org/2000/svg" xmlns:xlink="http://www.w3.org/1999/xlink">
<g id="graph0" class="graph" transform="scale(1 1) rotate(0) translate(4 71.5)">
<title>Graphical Class Hierarchy</title>
<!-- Node0 -->
<g id="node1" class="node">
<title>Node0</title>
<g id="a_node1"><a xlink:title=" ">
<polygon fill="#e0e0e0" stroke="#999999" points="78,-45.5 0,-45.5 0,-26.5 78,-26.5 78,-45.5"/>
<text text-anchor="middle" x="39" y="-33.5" font-family="Helvetica,sans-Serif" font-size="10.00">std::exception</text>
</a>
</g>
</g>
<!-- Node1 -->
<g id="node2" class="node">
<title>Node1</title>
<g id="a_node2"><a xlink:href="class_erro_escolha_carta_invalida.html" target="_top" xlink:title="Classe para detectar erros.">
<polygon fill="white" stroke="#666666" points="241.5,-67.5 116.5,-67.5 116.5,-48.5 241.5,-48.5 241.5,-67.5"/>
<text text-anchor="middle" x="179" y="-55.5" font-family="Helvetica,sans-Serif" font-size="10.00">ErroEscolhaCartaInvalida</text>
</a>
</g>
</g>
<!-- Node0&#45;&gt;Node1 -->
<g id="edge1" class="edge">
<title>Node0&#45;&gt;Node1</title>
<path fill="none" stroke="#63b8ff" d="M88,-43.65C97.78,-45.21 108.18,-46.87 118.3,-48.48"/>
<polygon fill="#63b8ff" stroke="#63b8ff" points="88.5,-40.19 78.07,-42.07 87.4,-47.1 88.5,-40.19"/>
</g>
<!-- Node2 -->
<g id="node3" class="node">
<title>Node2</title>
<g id="a_node3"><a xlink:href="class_erro_numero_invalido_pedido_truco.html" target="_top" xlink:title="Classe para detectar erros.">
<polygon fill="white" stroke="#666666" points="244,-30 114,-30 114,0 244,0 244,-30"/>
<text text-anchor="start" x="122" y="-18" font-family="Helvetica,sans-Serif" font-size="10.00">ErroNumeroInvalidoPedido</text>
<text text-anchor="middle" x="179" y="-7" font-family="Helvetica,sans-Serif" font-size="10.00">Truco</text>
</a>
</g>
</g>
<!-- Node0&#45;&gt;Node2 -->
<g id="edge2" class="edge">
<title>Node0&#45;&gt;Node2</title>
<path fill="none" stroke="#63b8ff" d="M87.99,-28.7C96.33,-27.43 105.13,-26.09 113.83,-24.77"/>
<polygon fill="#63b8ff" stroke="#63b8ff" points="87.43,-25.24 78.07,-30.21 88.49,-32.16 87.43,-25.24"/>
</g>
</g>
</svg>
