<?xml version="1.0" encoding="UTF-8" standalone="no"?>
<!DOCTYPE svg PUBLIC "-//W3C//DTD SVG 1.1//EN"
 "http://www.w3.org/Graphics/SVG/1.1/DTD/svg11.dtd">
<!-- Generated by graphviz version 4.0.0 (20220529.0937)
 -->
<!-- Title: Graphical Class Hierarchy Pages: 1 -->
<svg width="147pt" height="64pt"
 viewBox="0.00 0.00 147.00 64.00" xmlns="http://www.w3.org/2000/svg" xmlns:xlink="http://www.w3.org/1999/xlink">
<g id="graph0" class="graph" transform="scale(1 1) rotate(0) translate(4 60)">
<title>Graphical Class Hierarchy</title>
<!-- Node0 -->
<g id="node1" class="node">
<title>Node0</title>
<g id="a_node1"><a xlink:href="class_jogador.html" target="_top" xlink:title="Armazena e processa as informações do jogador.">
<polygon fill="white" stroke="#666666" points="50,-37 0,-37 0,-18 50,-18 50,-37"/>
<text text-anchor="middle" x="25" y="-25" font-family="Helvetica,sans-Serif" font-size="10.00">Jogador</text>
</a>
</g>
</g>
<!-- Node1 -->
<g id="node2" class="node">
<title>Node1</title>
<g id="a_node2"><a xlink:href="class_bot.html" target="_top" xlink:title="Armazena e processa as informações do bot.">
<polygon fill="white" stroke="#666666" points="128.5,-56 96.5,-56 96.5,-37 128.5,-37 128.5,-56"/>
<text text-anchor="middle" x="112.5" y="-44" font-family="Helvetica,sans-Serif" font-size="10.00">Bot</text>
</a>
</g>
</g>
<!-- Node0&#45;&gt;Node1 -->
<g id="edge1" class="edge">
<title>Node0&#45;&gt;Node1</title>
<path fill="none" stroke="#63b8ff" d="M60.05,-35.07C72.62,-37.86 86.25,-40.89 96.32,-43.13"/>
<polygon fill="#63b8ff" stroke="#63b8ff" points="60.79,-31.65 50.27,-32.89 59.27,-38.48 60.79,-31.65"/>
</g>
<!-- Node2 -->
<g id="node3" class="node">
<title>Node2</title>
<g id="a_node3"><a xlink:href="class_humano.html" target="_top" xlink:title="Classe que armazena e processa as informações do usuário.">
<polygon fill="white" stroke="#666666" points="139,-19 86,-19 86,0 139,0 139,-19"/>
<text text-anchor="middle" x="112.5" y="-7" font-family="Helvetica,sans-Serif" font-size="10.00">Humano</text>
</a>
</g>
</g>
<!-- Node0&#45;&gt;Node2 -->
<g id="edge2" class="edge">
<title>Node0&#45;&gt;Node2</title>
<path fill="none" stroke="#63b8ff" d="M60.09,-20.32C68.72,-18.51 77.85,-16.58 85.97,-14.87"/>
<polygon fill="#63b8ff" stroke="#63b8ff" points="59.34,-16.9 50.27,-22.39 60.78,-23.75 59.34,-16.9"/>
</g>
</g>
</svg>
