<?xml version="1.0" encoding="UTF-8" standalone="no"?>
<!DOCTYPE svg PUBLIC "-//W3C//DTD SVG 1.1//EN"
 "http://www.w3.org/Graphics/SVG/1.1/DTD/svg11.dtd">
<!-- Generated by graphviz version 4.0.0 (20220529.0937)
 -->
<!-- Title: jogador.hpp Pages: 1 -->
<svg width="253pt" height="247pt"
 viewBox="0.00 0.00 253.05 247.00" xmlns="http://www.w3.org/2000/svg" xmlns:xlink="http://www.w3.org/1999/xlink">
<g id="graph0" class="graph" transform="scale(1 1) rotate(0) translate(4 243)">
<title>jogador.hpp</title>
<!-- Node1 -->
<g id="node1" class="node">
<title>Node1</title>
<g id="a_node1"><a xlink:title="Classe com a lógica do jogador.">
<polygon fill="#999999" stroke="#666666" points="151.05,-239 84.05,-239 84.05,-220 151.05,-220 151.05,-239"/>
<text text-anchor="middle" x="117.55" y="-227" font-family="Helvetica,sans-Serif" font-size="10.00">jogador.hpp</text>
</a>
</g>
</g>
<!-- Node2 -->
<g id="node2" class="node">
<title>Node2</title>
<g id="a_node2"><a xlink:href="bot_8hpp.html" target="_top" xlink:title="Classe com a lógica do bot.">
<polygon fill="white" stroke="#666666" points="245.05,-184 196.05,-184 196.05,-165 245.05,-165 245.05,-184"/>
<text text-anchor="middle" x="220.55" y="-172" font-family="Helvetica,sans-Serif" font-size="10.00">bot.hpp</text>
</a>
</g>
</g>
<!-- Node1&#45;&gt;Node2 -->
<g id="edge1" class="edge">
<title>Node1&#45;&gt;Node2</title>
<path fill="none" stroke="#63b8ff" d="M143.07,-215.37C161.99,-205.63 187.24,-192.64 203.7,-184.17"/>
<polygon fill="#63b8ff" stroke="#63b8ff" points="141.39,-212.3 134.1,-219.98 144.59,-218.52 141.39,-212.3"/>
</g>
<!-- Node3 -->
<g id="node3" class="node">
<title>Node3</title>
<g id="a_node3"><a xlink:href="jogo_8hpp.html" target="_top" xlink:title="Classe com a lógica do jogo.">
<polygon fill="white" stroke="#666666" points="139.05,-19 86.05,-19 86.05,0 139.05,0 139.05,-19"/>
<text text-anchor="middle" x="112.55" y="-7" font-family="Helvetica,sans-Serif" font-size="10.00">jogo.hpp</text>
</a>
</g>
</g>
<!-- Node1&#45;&gt;Node3 -->
<g id="edge12" class="edge">
<title>Node1&#45;&gt;Node3</title>
<path fill="none" stroke="#63b8ff" d="M74.08,-222.15C51.07,-216.33 24.7,-205.21 10.55,-184 -30.37,-122.67 65.45,-44.57 100.41,-19.01"/>
<polygon fill="#63b8ff" stroke="#63b8ff" points="73.51,-225.6 84.03,-224.4 75.05,-218.78 73.51,-225.6"/>
</g>
<!-- Node4 -->
<g id="node4" class="node">
<title>Node4</title>
<g id="a_node4"><a xlink:href="menu_8hpp.html" target="_top" xlink:title="Classe com a lógica do menu.">
<polygon fill="white" stroke="#666666" points="142.05,-74 83.05,-74 83.05,-55 142.05,-55 142.05,-74"/>
<text text-anchor="middle" x="112.55" y="-62" font-family="Helvetica,sans-Serif" font-size="10.00">menu.hpp</text>
</a>
</g>
</g>
<!-- Node1&#45;&gt;Node4 -->
<g id="edge13" class="edge">
<title>Node1&#45;&gt;Node4</title>
<path fill="none" stroke="#63b8ff" d="M116.96,-209.37C115.88,-174.03 113.6,-99.79 112.82,-74.31"/>
<polygon fill="#63b8ff" stroke="#63b8ff" points="113.47,-209.85 117.28,-219.74 120.47,-209.63 113.47,-209.85"/>
</g>
<!-- Node5 -->
<g id="node5" class="node">
<title>Node5</title>
<g id="a_node5"><a xlink:href="rodada_8hpp.html" target="_top" xlink:title="Classe com a lógica da rodada.">
<polygon fill="white" stroke="#666666" points="205.05,-129 140.05,-129 140.05,-110 205.05,-110 205.05,-129"/>
<text text-anchor="middle" x="172.55" y="-117" font-family="Helvetica,sans-Serif" font-size="10.00">rodada.hpp</text>
</a>
</g>
</g>
<!-- Node1&#45;&gt;Node5 -->
<g id="edge14" class="edge">
<title>Node1&#45;&gt;Node5</title>
<path fill="none" stroke="#63b8ff" d="M126.74,-210.44C138.72,-186.92 159.19,-146.73 168.14,-129.16"/>
<polygon fill="#63b8ff" stroke="#63b8ff" points="123.47,-209.16 122.05,-219.66 129.71,-212.34 123.47,-209.16"/>
</g>
<!-- Node6 -->
<g id="node6" class="node">
<title>Node6</title>
<g id="a_node6"><a xlink:href="humano_8hpp.html" target="_top" xlink:title="Classe com a lógica do humano.">
<polygon fill="white" stroke="#666666" points="89.55,-184 19.55,-184 19.55,-165 89.55,-165 89.55,-184"/>
<text text-anchor="middle" x="54.55" y="-172" font-family="Helvetica,sans-Serif" font-size="10.00">humano.hpp</text>
</a>
</g>
</g>
<!-- Node1&#45;&gt;Node6 -->
<g id="edge8" class="edge">
<title>Node1&#45;&gt;Node6</title>
<path fill="none" stroke="#63b8ff" d="M99.51,-213.32C88.27,-203.87 74.23,-192.06 64.85,-184.17"/>
<polygon fill="#63b8ff" stroke="#63b8ff" points="97.52,-216.23 107.43,-219.98 102.03,-210.87 97.52,-216.23"/>
</g>
<!-- Node2&#45;&gt;Node3 -->
<g id="edge2" class="edge">
<title>Node2&#45;&gt;Node3</title>
<path fill="none" stroke="#63b8ff" d="M229.02,-155.57C233.96,-142.45 238.06,-124.49 231.55,-110 211.34,-65.05 159.21,-33.52 131.13,-19.19"/>
<polygon fill="#63b8ff" stroke="#63b8ff" points="225.75,-154.32 225.06,-164.89 232.19,-157.05 225.75,-154.32"/>
</g>
<!-- Node2&#45;&gt;Node4 -->
<g id="edge3" class="edge">
<title>Node2&#45;&gt;Node4</title>
<path fill="none" stroke="#63b8ff" d="M223.52,-154.57C224.61,-140.93 223.78,-122.75 214.55,-110 197.66,-86.69 165.88,-75.44 142.26,-70.1"/>
<polygon fill="#63b8ff" stroke="#63b8ff" points="220.02,-154.39 222.3,-164.74 226.97,-155.23 220.02,-154.39"/>
</g>
<!-- Node2&#45;&gt;Node5 -->
<g id="edge5" class="edge">
<title>Node2&#45;&gt;Node5</title>
<path fill="none" stroke="#63b8ff" d="M205.82,-157.24C197.41,-147.95 187.2,-136.68 180.33,-129.09"/>
<polygon fill="#63b8ff" stroke="#63b8ff" points="203.31,-159.69 212.62,-164.75 208.5,-154.99 203.31,-159.69"/>
</g>
<!-- Node4&#45;&gt;Node3 -->
<g id="edge4" class="edge">
<title>Node4&#45;&gt;Node3</title>
<path fill="none" stroke="#63b8ff" d="M112.55,-44.66C112.55,-35.93 112.55,-25.99 112.55,-19.09"/>
<polygon fill="#63b8ff" stroke="#63b8ff" points="109.05,-44.75 112.55,-54.75 116.05,-44.75 109.05,-44.75"/>
</g>
<!-- Node5&#45;&gt;Node3 -->
<g id="edge6" class="edge">
<title>Node5&#45;&gt;Node3</title>
<path fill="none" stroke="#63b8ff" d="M168.54,-100.07C165.19,-86.94 159.65,-69.17 151.55,-55 143.59,-41.09 130.85,-27.61 122.11,-19.2"/>
<polygon fill="#63b8ff" stroke="#63b8ff" points="165.14,-100.9 170.84,-109.83 171.95,-99.29 165.14,-100.9"/>
</g>
<!-- Node5&#45;&gt;Node4 -->
<g id="edge7" class="edge">
<title>Node5&#45;&gt;Node4</title>
<path fill="none" stroke="#63b8ff" d="M155.37,-103.32C144.67,-93.87 131.29,-82.06 122.36,-74.17"/>
<polygon fill="#63b8ff" stroke="#63b8ff" points="153.1,-105.99 162.91,-109.98 157.73,-100.74 153.1,-105.99"/>
</g>
<!-- Node6&#45;&gt;Node3 -->
<g id="edge9" class="edge">
<title>Node6&#45;&gt;Node3</title>
<path fill="none" stroke="#63b8ff" d="M54.68,-154.41C55.52,-130.19 59.3,-87.65 74.55,-55 81.17,-40.82 93.57,-27.6 102.41,-19.31"/>
<polygon fill="#63b8ff" stroke="#63b8ff" points="51.17,-154.63 54.46,-164.7 58.17,-154.78 51.17,-154.63"/>
</g>
<!-- Node6&#45;&gt;Node4 -->
<g id="edge10" class="edge">
<title>Node6&#45;&gt;Node4</title>
<path fill="none" stroke="#63b8ff" d="M64.08,-155.76C76.68,-132.28 98.42,-91.81 107.9,-74.16"/>
<polygon fill="#63b8ff" stroke="#63b8ff" points="60.94,-154.2 59.29,-164.66 67.11,-157.51 60.94,-154.2"/>
</g>
<!-- Node6&#45;&gt;Node5 -->
<g id="edge11" class="edge">
<title>Node6&#45;&gt;Node5</title>
<path fill="none" stroke="#63b8ff" d="M82.9,-160.77C104.67,-150.99 134.14,-137.75 153.24,-129.17"/>
<polygon fill="#63b8ff" stroke="#63b8ff" points="81.19,-157.69 73.51,-164.98 84.06,-164.08 81.19,-157.69"/>
</g>
</g>
</svg>
