<?xml version="1.0" encoding="UTF-8" standalone="no"?>
<!DOCTYPE svg PUBLIC "-//W3C//DTD SVG 1.1//EN"
 "http://www.w3.org/Graphics/SVG/1.1/DTD/svg11.dtd">
<!-- Generated by graphviz version 4.0.0 (20220529.0937)
 -->
<!-- Title: jogador.hpp Pages: 1 -->
<svg width="396pt" height="192pt"
 viewBox="0.00 0.00 396.00 192.00" xmlns="http://www.w3.org/2000/svg" xmlns:xlink="http://www.w3.org/1999/xlink">
<g id="graph0" class="graph" transform="scale(1 1) rotate(0) translate(4 188)">
<title>jogador.hpp</title>
<!-- Node1 -->
<g id="node1" class="node">
<title>Node1</title>
<g id="a_node1"><a xlink:title="Classe com a lógica do jogador.">
<polygon fill="#999999" stroke="#666666" points="219.5,-184 152.5,-184 152.5,-165 219.5,-165 219.5,-184"/>
<text text-anchor="middle" x="186" y="-172" font-family="Helvetica,sans-Serif" font-size="10.00">jogador.hpp</text>
</a>
</g>
</g>
<!-- Node2 -->
<g id="node2" class="node">
<title>Node2</title>
<g id="a_node2"><a xlink:href="carta_8hpp.html" target="_top" xlink:title="Classe com a lógica da carta.">
<polygon fill="white" stroke="#666666" points="186.5,-74 129.5,-74 129.5,-55 186.5,-55 186.5,-74"/>
<text text-anchor="middle" x="158" y="-62" font-family="Helvetica,sans-Serif" font-size="10.00">carta.hpp</text>
</a>
</g>
</g>
<!-- Node1&#45;&gt;Node2 -->
<g id="edge1" class="edge">
<title>Node1&#45;&gt;Node2</title>
<path fill="none" stroke="#63b8ff" d="M183.66,-164.98C181.21,-156.03 177.27,-141.54 174,-129 170.05,-113.85 165.72,-96.63 162.56,-83.95"/>
<polygon fill="#63b8ff" stroke="#63b8ff" points="165.93,-83 160.13,-74.14 159.14,-84.69 165.93,-83"/>
</g>
<!-- Node3 -->
<g id="node3" class="node">
<title>Node3</title>
<g id="a_node3"><a xlink:title=" ">
<polygon fill="#e0e0e0" stroke="#999999" points="50,-19 0,-19 0,0 50,0 50,-19"/>
<text text-anchor="middle" x="25" y="-7" font-family="Helvetica,sans-Serif" font-size="10.00">iomanip</text>
</a>
</g>
</g>
<!-- Node1&#45;&gt;Node3 -->
<g id="edge16" class="edge">
<title>Node1&#45;&gt;Node3</title>
<path fill="none" stroke="#63b8ff" d="M170.65,-164.96C156.63,-156.76 135.76,-143.51 120,-129 85.41,-97.15 52.91,-52.17 36.38,-27.81"/>
<polygon fill="#63b8ff" stroke="#63b8ff" points="39.14,-25.64 30.67,-19.28 33.32,-29.54 39.14,-25.64"/>
</g>
<!-- Node4 -->
<g id="node4" class="node">
<title>Node4</title>
<g id="a_node4"><a xlink:title=" ">
<polygon fill="#e0e0e0" stroke="#999999" points="125,-19 71,-19 71,0 125,0 125,-19"/>
<text text-anchor="middle" x="98" y="-7" font-family="Helvetica,sans-Serif" font-size="10.00">iostream</text>
</a>
</g>
</g>
<!-- Node1&#45;&gt;Node4 -->
<g id="edge17" class="edge">
<title>Node1&#45;&gt;Node4</title>
<path fill="none" stroke="#63b8ff" d="M172.32,-164.79C160.69,-156.75 144.29,-143.85 134,-129 112.54,-98.03 103.59,-53.93 100.08,-29.19"/>
<polygon fill="#63b8ff" stroke="#63b8ff" points="103.52,-28.5 98.79,-19.02 96.58,-29.38 103.52,-28.5"/>
</g>
<!-- Node5 -->
<g id="node5" class="node">
<title>Node5</title>
<g id="a_node5"><a xlink:title=" ">
<polygon fill="#e0e0e0" stroke="#999999" points="184.5,-19 143.5,-19 143.5,0 184.5,0 184.5,-19"/>
<text text-anchor="middle" x="164" y="-7" font-family="Helvetica,sans-Serif" font-size="10.00">string</text>
</a>
</g>
</g>
<!-- Node1&#45;&gt;Node5 -->
<g id="edge18" class="edge">
<title>Node1&#45;&gt;Node5</title>
<path fill="none" stroke="#63b8ff" d="M177.61,-164.85C162.54,-148.64 131.43,-111.91 120,-74 117.56,-65.92 116.79,-62.81 120,-55 124.81,-43.31 134.33,-33.05 143.3,-25.34"/>
<polygon fill="#63b8ff" stroke="#63b8ff" points="145.6,-27.98 151.22,-19 141.23,-22.51 145.6,-27.98"/>
</g>
<!-- Node6 -->
<g id="node6" class="node">
<title>Node6</title>
<g id="a_node6"><a xlink:title=" ">
<polygon fill="#e0e0e0" stroke="#999999" points="314.5,-19 279.5,-19 279.5,0 314.5,0 314.5,-19"/>
<text text-anchor="middle" x="297" y="-7" font-family="Helvetica,sans-Serif" font-size="10.00">map</text>
</a>
</g>
</g>
<!-- Node1&#45;&gt;Node6 -->
<g id="edge19" class="edge">
<title>Node1&#45;&gt;Node6</title>
<path fill="none" stroke="#63b8ff" d="M219.59,-165.38C239.35,-158.85 263.11,-147.6 277,-129 298.98,-99.58 300.19,-54.58 298.8,-29.35"/>
<polygon fill="#63b8ff" stroke="#63b8ff" points="302.28,-28.98 298.04,-19.27 295.3,-29.51 302.28,-28.98"/>
</g>
<!-- Node7 -->
<g id="node7" class="node">
<title>Node7</title>
<g id="a_node7"><a xlink:title=" ">
<polygon fill="#e0e0e0" stroke="#999999" points="388,-19 346,-19 346,0 388,0 388,-19"/>
<text text-anchor="middle" x="367" y="-7" font-family="Helvetica,sans-Serif" font-size="10.00">vector</text>
</a>
</g>
</g>
<!-- Node1&#45;&gt;Node7 -->
<g id="edge20" class="edge">
<title>Node1&#45;&gt;Node7</title>
<path fill="none" stroke="#63b8ff" d="M219.79,-165.92C243.24,-159.3 274.09,-147.75 296,-129 328.53,-101.17 350.21,-54.54 360.36,-28.85"/>
<polygon fill="#63b8ff" stroke="#63b8ff" points="363.73,-29.84 364,-19.24 357.19,-27.36 363.73,-29.84"/>
</g>
<!-- Node8 -->
<g id="node8" class="node">
<title>Node8</title>
<g id="a_node8"><a xlink:title=" ">
<polygon fill="#e0e0e0" stroke="#999999" points="261.5,-19 232.5,-19 232.5,0 261.5,0 261.5,-19"/>
<text text-anchor="middle" x="247" y="-7" font-family="Helvetica,sans-Serif" font-size="10.00">list</text>
</a>
</g>
</g>
<!-- Node1&#45;&gt;Node8 -->
<g id="edge21" class="edge">
<title>Node1&#45;&gt;Node8</title>
<path fill="none" stroke="#63b8ff" d="M212.57,-164.94C229.13,-158.06 249.12,-146.6 259,-129 276.82,-97.27 264.47,-53.18 255.01,-28.7"/>
<polygon fill="#63b8ff" stroke="#63b8ff" points="258.15,-27.14 251.11,-19.23 251.68,-29.81 258.15,-27.14"/>
</g>
<!-- Node9 -->
<g id="node9" class="node">
<title>Node9</title>
<g id="a_node9"><a xlink:href="baralho_8hpp.html" target="_top" xlink:title="Classe com a lógica do baralho.">
<polygon fill="white" stroke="#666666" points="250.5,-129 183.5,-129 183.5,-110 250.5,-110 250.5,-129"/>
<text text-anchor="middle" x="217" y="-117" font-family="Helvetica,sans-Serif" font-size="10.00">baralho.hpp</text>
</a>
</g>
</g>
<!-- Node1&#45;&gt;Node9 -->
<g id="edge8" class="edge">
<title>Node1&#45;&gt;Node9</title>
<path fill="none" stroke="#63b8ff" d="M191.12,-164.75C195.36,-157.49 201.53,-146.95 206.78,-137.98"/>
<polygon fill="#63b8ff" stroke="#63b8ff" points="209.95,-139.49 211.98,-129.09 203.91,-135.95 209.95,-139.49"/>
</g>
<!-- Node2&#45;&gt;Node3 -->
<g id="edge2" class="edge">
<title>Node2&#45;&gt;Node3</title>
<path fill="none" stroke="#63b8ff" d="M136.63,-54.98C114.85,-46.3 80.84,-32.75 56.08,-22.88"/>
<polygon fill="#63b8ff" stroke="#63b8ff" points="57.34,-19.62 46.76,-19.17 54.75,-26.12 57.34,-19.62"/>
</g>
<!-- Node2&#45;&gt;Node4 -->
<g id="edge3" class="edge">
<title>Node2&#45;&gt;Node4</title>
<path fill="none" stroke="#63b8ff" d="M148.36,-54.98C139.49,-47.15 126.13,-35.34 115.39,-25.86"/>
<polygon fill="#63b8ff" stroke="#63b8ff" points="117.63,-23.17 107.82,-19.17 112.99,-28.41 117.63,-23.17"/>
</g>
<!-- Node2&#45;&gt;Node5 -->
<g id="edge4" class="edge">
<title>Node2&#45;&gt;Node5</title>
<path fill="none" stroke="#63b8ff" d="M158.99,-54.75C159.78,-47.8 160.9,-37.85 161.89,-29.13"/>
<polygon fill="#63b8ff" stroke="#63b8ff" points="165.38,-29.42 163.03,-19.09 158.42,-28.63 165.38,-29.42"/>
</g>
<!-- Node2&#45;&gt;Node6 -->
<g id="edge5" class="edge">
<title>Node2&#45;&gt;Node6</title>
<path fill="none" stroke="#63b8ff" d="M180.33,-54.98C204.59,-45.74 243.35,-30.96 269.47,-21"/>
<polygon fill="#63b8ff" stroke="#63b8ff" points="271.04,-24.14 279.14,-17.31 268.55,-17.6 271.04,-24.14"/>
</g>
<!-- Node2&#45;&gt;Node7 -->
<g id="edge6" class="edge">
<title>Node2&#45;&gt;Node7</title>
<path fill="none" stroke="#63b8ff" d="M186.62,-56.24C225.81,-46.31 295.87,-28.54 336.17,-18.32"/>
<polygon fill="#63b8ff" stroke="#63b8ff" points="337.15,-21.68 345.98,-15.83 335.43,-14.9 337.15,-21.68"/>
</g>
<!-- Node2&#45;&gt;Node8 -->
<g id="edge7" class="edge">
<title>Node2&#45;&gt;Node8</title>
<path fill="none" stroke="#63b8ff" d="M172.3,-54.98C186.1,-46.77 207.24,-34.18 223.51,-24.49"/>
<polygon fill="#63b8ff" stroke="#63b8ff" points="225.64,-27.29 232.44,-19.17 222.06,-21.28 225.64,-27.29"/>
</g>
<!-- Node9&#45;&gt;Node2 -->
<g id="edge9" class="edge">
<title>Node9&#45;&gt;Node2</title>
<path fill="none" stroke="#63b8ff" d="M207.52,-109.98C198.8,-102.15 185.66,-90.34 175.1,-80.86"/>
<polygon fill="#63b8ff" stroke="#63b8ff" points="177.43,-78.25 167.65,-74.17 172.75,-83.46 177.43,-78.25"/>
</g>
<!-- Node9&#45;&gt;Node3 -->
<g id="edge10" class="edge">
<title>Node9&#45;&gt;Node3</title>
<path fill="none" stroke="#63b8ff" d="M188.8,-109.86C165.5,-102.13 131.98,-89.61 105,-74 81.43,-60.36 57.35,-40.24 41.86,-26.31"/>
<polygon fill="#63b8ff" stroke="#63b8ff" points="43.93,-23.47 34.19,-19.3 39.2,-28.63 43.93,-23.47"/>
</g>
<!-- Node9&#45;&gt;Node4 -->
<g id="edge11" class="edge">
<title>Node9&#45;&gt;Node4</title>
<path fill="none" stroke="#63b8ff" d="M183.28,-110.34C162.48,-103.71 136.69,-92.38 120,-74 108.74,-61.59 103.19,-43.12 100.49,-29.3"/>
<polygon fill="#63b8ff" stroke="#63b8ff" points="103.94,-28.72 98.87,-19.41 97.03,-29.84 103.94,-28.72"/>
</g>
<!-- Node9&#45;&gt;Node5 -->
<g id="edge12" class="edge">
<title>Node9&#45;&gt;Node5</title>
<path fill="none" stroke="#63b8ff" d="M214.85,-109.98C211.53,-97.51 204.53,-73.71 195,-55 190.1,-45.37 183.36,-35.43 177.41,-27.39"/>
<polygon fill="#63b8ff" stroke="#63b8ff" points="180.04,-25.06 171.18,-19.24 174.48,-29.31 180.04,-25.06"/>
</g>
<!-- Node9&#45;&gt;Node6 -->
<g id="edge13" class="edge">
<title>Node9&#45;&gt;Node6</title>
<path fill="none" stroke="#63b8ff" d="M223.55,-109.66C236.86,-91.69 267.27,-50.64 284.49,-27.38"/>
<polygon fill="#63b8ff" stroke="#63b8ff" points="287.45,-29.28 290.59,-19.16 281.82,-25.11 287.45,-29.28"/>
</g>
<!-- Node9&#45;&gt;Node7 -->
<g id="edge14" class="edge">
<title>Node9&#45;&gt;Node7</title>
<path fill="none" stroke="#63b8ff" d="M229.02,-109.84C254.69,-91.36 315.11,-47.86 346.8,-25.05"/>
<polygon fill="#63b8ff" stroke="#63b8ff" points="348.85,-27.88 354.92,-19.2 344.76,-22.2 348.85,-27.88"/>
</g>
<!-- Node9&#45;&gt;Node8 -->
<g id="edge15" class="edge">
<title>Node9&#45;&gt;Node8</title>
<path fill="none" stroke="#63b8ff" d="M219.46,-109.66C224.34,-92.09 235.35,-52.45 241.87,-28.95"/>
<polygon fill="#63b8ff" stroke="#63b8ff" points="245.29,-29.73 244.59,-19.16 238.55,-27.86 245.29,-29.73"/>
</g>
</g>
</svg>
