<?xml version="1.0" encoding="UTF-8" standalone="no"?>
<!DOCTYPE svg PUBLIC "-//W3C//DTD SVG 1.1//EN"
 "http://www.w3.org/Graphics/SVG/1.1/DTD/svg11.dtd">
<!-- Generated by graphviz version 4.0.0 (20220529.0937)
 -->
<!-- Title: jogo.hpp Pages: 1 -->
<svg width="1690pt" height="412pt"
 viewBox="0.00 0.00 1690.00 412.00" xmlns="http://www.w3.org/2000/svg" xmlns:xlink="http://www.w3.org/1999/xlink">
<g id="graph0" class="graph" transform="scale(1 1) rotate(0) translate(4 408)">
<title>jogo.hpp</title>
<!-- Node1 -->
<g id="node1" class="node">
<title>Node1</title>
<g id="a_node1"><a xlink:title="Classe com a lógica do jogo.">
<polygon fill="#999999" stroke="#666666" points="876.5,-404 823.5,-404 823.5,-385 876.5,-385 876.5,-404"/>
<text text-anchor="middle" x="850" y="-392" font-family="Helvetica,sans-Serif" font-size="10.00">jogo.hpp</text>
</a>
</g>
</g>
<!-- Node2 -->
<g id="node2" class="node">
<title>Node2</title>
<g id="a_node2"><a xlink:href="carta_8hpp.html" target="_top" xlink:title="Classe com a lógica da carta.">
<polygon fill="white" stroke="#666666" points="997.5,-74 940.5,-74 940.5,-55 997.5,-55 997.5,-74"/>
<text text-anchor="middle" x="969" y="-62" font-family="Helvetica,sans-Serif" font-size="10.00">carta.hpp</text>
</a>
</g>
</g>
<!-- Node1&#45;&gt;Node2 -->
<g id="edge1" class="edge">
<title>Node1&#45;&gt;Node2</title>
<path fill="none" stroke="#63b8ff" d="M876.54,-392.12C1001.71,-385.29 1527,-352.6 1527,-285.5 1527,-285.5 1527,-285.5 1527,-228.5 1527,-120.15 1134.47,-78.89 1007.86,-68.4"/>
<polygon fill="#63b8ff" stroke="#63b8ff" points="1008.08,-64.9 997.83,-67.58 1007.51,-71.88 1008.08,-64.9"/>
</g>
<!-- Node3 -->
<g id="node3" class="node">
<title>Node3</title>
<g id="a_node3"><a xlink:title=" ">
<polygon fill="#e0e0e0" stroke="#999999" points="405,-19 355,-19 355,0 405,0 405,-19"/>
<text text-anchor="middle" x="380" y="-7" font-family="Helvetica,sans-Serif" font-size="10.00">iomanip</text>
</a>
</g>
</g>
<!-- Node1&#45;&gt;Node3 -->
<g id="edge76" class="edge">
<title>Node1&#45;&gt;Node3</title>
<path fill="none" stroke="#63b8ff" d="M823.36,-392.65C687.26,-387.97 76,-362.67 76,-285.5 76,-285.5 76,-285.5 76,-118.5 76,-62.02 264.7,-27.5 344.76,-15.39"/>
<polygon fill="#63b8ff" stroke="#63b8ff" points="345.48,-18.82 354.86,-13.9 344.46,-11.9 345.48,-18.82"/>
</g>
<!-- Node4 -->
<g id="node4" class="node">
<title>Node4</title>
<g id="a_node4"><a xlink:title=" ">
<polygon fill="#e0e0e0" stroke="#999999" points="198,-19 144,-19 144,0 198,0 198,-19"/>
<text text-anchor="middle" x="171" y="-7" font-family="Helvetica,sans-Serif" font-size="10.00">iostream</text>
</a>
</g>
</g>
<!-- Node1&#45;&gt;Node4 -->
<g id="edge77" class="edge">
<title>Node1&#45;&gt;Node4</title>
<path fill="none" stroke="#63b8ff" d="M823.32,-392.97C711.97,-390.57 284.09,-379.5 153,-349 81.29,-332.32 0,-359.12 0,-285.5 0,-285.5 0,-285.5 0,-118.5 0,-55.59 83.75,-27.84 134.03,-16.85"/>
<polygon fill="#63b8ff" stroke="#63b8ff" points="134.82,-20.26 143.9,-14.81 133.4,-13.4 134.82,-20.26"/>
</g>
<!-- Node5 -->
<g id="node5" class="node">
<title>Node5</title>
<g id="a_node5"><a xlink:title=" ">
<polygon fill="#e0e0e0" stroke="#999999" points="1053.5,-19 1012.5,-19 1012.5,0 1053.5,0 1053.5,-19"/>
<text text-anchor="middle" x="1033" y="-7" font-family="Helvetica,sans-Serif" font-size="10.00">string</text>
</a>
</g>
</g>
<!-- Node1&#45;&gt;Node5 -->
<g id="edge78" class="edge">
<title>Node1&#45;&gt;Node5</title>
<path fill="none" stroke="#63b8ff" d="M876.51,-394.04C956.71,-395.12 1203.37,-394.23 1401,-349 1477.19,-331.56 1565,-363.66 1565,-285.5 1565,-285.5 1565,-285.5 1565,-228.5 1565,-119.35 1176.75,-37.6 1063.6,-16.09"/>
<polygon fill="#63b8ff" stroke="#63b8ff" points="1064,-12.6 1053.53,-14.19 1062.71,-19.48 1064,-12.6"/>
</g>
<!-- Node6 -->
<g id="node6" class="node">
<title>Node6</title>
<g id="a_node6"><a xlink:title=" ">
<polygon fill="#e0e0e0" stroke="#999999" points="1528.5,-19 1493.5,-19 1493.5,0 1528.5,0 1528.5,-19"/>
<text text-anchor="middle" x="1511" y="-7" font-family="Helvetica,sans-Serif" font-size="10.00">map</text>
</a>
</g>
</g>
<!-- Node1&#45;&gt;Node6 -->
<g id="edge79" class="edge">
<title>Node1&#45;&gt;Node6</title>
<path fill="none" stroke="#63b8ff" d="M876.74,-393.39C990.29,-392.69 1432.9,-387.49 1566,-349 1622.46,-332.67 1682,-344.27 1682,-285.5 1682,-285.5 1682,-285.5 1682,-118.5 1682,-51.58 1587.22,-24.44 1538.79,-14.94"/>
<polygon fill="#63b8ff" stroke="#63b8ff" points="1539.12,-11.45 1528.66,-13.08 1537.86,-18.33 1539.12,-11.45"/>
</g>
<!-- Node7 -->
<g id="node7" class="node">
<title>Node7</title>
<g id="a_node7"><a xlink:title=" ">
<polygon fill="#e0e0e0" stroke="#999999" points="686,-19 644,-19 644,0 686,0 686,-19"/>
<text text-anchor="middle" x="665" y="-7" font-family="Helvetica,sans-Serif" font-size="10.00">vector</text>
</a>
</g>
</g>
<!-- Node1&#45;&gt;Node7 -->
<g id="edge80" class="edge">
<title>Node1&#45;&gt;Node7</title>
<path fill="none" stroke="#63b8ff" d="M823.09,-387.94C796.21,-381.52 754.46,-369.19 723,-349 645.34,-299.17 623.65,-272.34 597,-184 580.44,-129.08 572.6,-104.84 601,-55 608.71,-41.47 622.42,-31.11 635.18,-23.81"/>
<polygon fill="#63b8ff" stroke="#63b8ff" points="637,-26.8 644.2,-19.03 633.72,-20.62 637,-26.8"/>
</g>
<!-- Node8 -->
<g id="node8" class="node">
<title>Node8</title>
<g id="a_node8"><a xlink:title=" ">
<polygon fill="#e0e0e0" stroke="#999999" points="1201.5,-19 1172.5,-19 1172.5,0 1201.5,0 1201.5,-19"/>
<text text-anchor="middle" x="1187" y="-7" font-family="Helvetica,sans-Serif" font-size="10.00">list</text>
</a>
</g>
</g>
<!-- Node1&#45;&gt;Node8 -->
<g id="edge81" class="edge">
<title>Node1&#45;&gt;Node8</title>
<path fill="none" stroke="#63b8ff" d="M876.8,-392.76C982.08,-389.68 1367.3,-376.71 1486,-349 1558.5,-332.08 1641,-359.95 1641,-285.5 1641,-285.5 1641,-285.5 1641,-228.5 1641,-36.32 1306.33,-13.44 1211.67,-10.82"/>
<polygon fill="#63b8ff" stroke="#63b8ff" points="1211.67,-7.32 1201.59,-10.59 1211.51,-14.31 1211.67,-7.32"/>
</g>
<!-- Node9 -->
<g id="node9" class="node">
<title>Node9</title>
<g id="a_node9"><a xlink:href="baralho_8hpp.html" target="_top" xlink:title="Classe com a lógica do baralho.">
<polygon fill="white" stroke="#666666" points="703.5,-129 636.5,-129 636.5,-110 703.5,-110 703.5,-129"/>
<text text-anchor="middle" x="670" y="-117" font-family="Helvetica,sans-Serif" font-size="10.00">baralho.hpp</text>
</a>
</g>
</g>
<!-- Node1&#45;&gt;Node9 -->
<g id="edge8" class="edge">
<title>Node1&#45;&gt;Node9</title>
<path fill="none" stroke="#63b8ff" d="M823.67,-384.88C803.17,-377.39 774.67,-365.19 753,-349 701.02,-310.16 681.43,-299.11 657,-239 644.61,-208.51 648.35,-197.43 654,-165 655.57,-156 658.8,-146.42 661.94,-138.46"/>
<polygon fill="#63b8ff" stroke="#63b8ff" points="665.22,-139.69 665.89,-129.12 658.77,-136.97 665.22,-139.69"/>
</g>
<!-- Node10 -->
<g id="node10" class="node">
<title>Node10</title>
<g id="a_node10"><a xlink:href="jogador_8hpp.html" target="_top" xlink:title="Classe com a lógica do jogador.">
<polygon fill="white" stroke="#666666" points="895.5,-184 828.5,-184 828.5,-165 895.5,-165 895.5,-184"/>
<text text-anchor="middle" x="862" y="-172" font-family="Helvetica,sans-Serif" font-size="10.00">jogador.hpp</text>
</a>
</g>
</g>
<!-- Node1&#45;&gt;Node10 -->
<g id="edge16" class="edge">
<title>Node1&#45;&gt;Node10</title>
<path fill="none" stroke="#63b8ff" d="M850.47,-384.95C852.23,-352.95 858.47,-239.68 860.96,-194.4"/>
<polygon fill="#63b8ff" stroke="#63b8ff" points="864.46,-194.4 861.52,-184.22 857.48,-194.02 864.46,-194.4"/>
</g>
<!-- Node11 -->
<g id="node11" class="node">
<title>Node11</title>
<g id="a_node11"><a xlink:href="humano_8hpp.html" target="_top" xlink:title="Classe com a lógica do humano.">
<polygon fill="white" stroke="#666666" points="746,-239 676,-239 676,-220 746,-220 746,-239"/>
<text text-anchor="middle" x="711" y="-227" font-family="Helvetica,sans-Serif" font-size="10.00">humano.hpp</text>
</a>
</g>
</g>
<!-- Node1&#45;&gt;Node11 -->
<g id="edge25" class="edge">
<title>Node1&#45;&gt;Node11</title>
<path fill="none" stroke="#63b8ff" d="M833.41,-384.99C806.45,-370.26 753.41,-337.41 726,-294 717.58,-280.67 713.88,-263.05 712.26,-249.76"/>
<polygon fill="#63b8ff" stroke="#63b8ff" points="715.71,-249.04 711.3,-239.41 708.74,-249.69 715.71,-249.04"/>
</g>
<!-- Node12 -->
<g id="node12" class="node">
<title>Node12</title>
<g id="a_node12"><a xlink:href="bot_8hpp.html" target="_top" xlink:title="Classe com a lógica do bot.">
<polygon fill="white" stroke="#666666" points="1071.5,-239 1022.5,-239 1022.5,-220 1071.5,-220 1071.5,-239"/>
<text text-anchor="middle" x="1047" y="-227" font-family="Helvetica,sans-Serif" font-size="10.00">bot.hpp</text>
</a>
</g>
</g>
<!-- Node1&#45;&gt;Node12 -->
<g id="edge35" class="edge">
<title>Node1&#45;&gt;Node12</title>
<path fill="none" stroke="#63b8ff" d="M876.69,-392.53C972.15,-388.44 1294.15,-369.2 1356,-294 1361.36,-287.48 1361.53,-281.38 1356,-275 1320.82,-234.39 1154.82,-229.99 1081.71,-230.07"/>
<polygon fill="#63b8ff" stroke="#63b8ff" points="1081.61,-226.57 1071.62,-230.11 1081.64,-233.57 1081.61,-226.57"/>
</g>
<!-- Node13 -->
<g id="node13" class="node">
<title>Node13</title>
<g id="a_node13"><a xlink:href="rodada_8hpp.html" target="_top" xlink:title="Classe com a lógica da rodada.">
<polygon fill="white" stroke="#666666" points="821.5,-294 756.5,-294 756.5,-275 821.5,-275 821.5,-294"/>
<text text-anchor="middle" x="789" y="-282" font-family="Helvetica,sans-Serif" font-size="10.00">rodada.hpp</text>
</a>
</g>
</g>
<!-- Node1&#45;&gt;Node13 -->
<g id="edge45" class="edge">
<title>Node1&#45;&gt;Node13</title>
<path fill="none" stroke="#63b8ff" d="M845.01,-384.66C834.95,-366.85 812.08,-326.37 798.89,-303.01"/>
<polygon fill="#63b8ff" stroke="#63b8ff" points="801.86,-301.14 793.89,-294.16 795.76,-304.59 801.86,-301.14"/>
</g>
<!-- Node14 -->
<g id="node14" class="node">
<title>Node14</title>
<g id="a_node14"><a xlink:href="menu_8hpp.html" target="_top" xlink:title="Classe com a lógica do menu.">
<polygon fill="white" stroke="#666666" points="1047.5,-349 988.5,-349 988.5,-330 1047.5,-330 1047.5,-349"/>
<text text-anchor="middle" x="1018" y="-337" font-family="Helvetica,sans-Serif" font-size="10.00">menu.hpp</text>
</a>
</g>
</g>
<!-- Node1&#45;&gt;Node14 -->
<g id="edge57" class="edge">
<title>Node1&#45;&gt;Node14</title>
<path fill="none" stroke="#63b8ff" d="M876.62,-385.1C904.84,-376.2 949.61,-362.08 981.19,-352.11"/>
<polygon fill="#63b8ff" stroke="#63b8ff" points="982.46,-355.38 990.95,-349.03 980.36,-348.71 982.46,-355.38"/>
</g>
<!-- Node2&#45;&gt;Node3 -->
<g id="edge2" class="edge">
<title>Node2&#45;&gt;Node3</title>
<path fill="none" stroke="#63b8ff" d="M940.19,-60.91C842.28,-52.1 522.44,-23.32 415.32,-13.68"/>
<polygon fill="#63b8ff" stroke="#63b8ff" points="415.33,-10.17 405.06,-12.75 414.7,-17.14 415.33,-10.17"/>
</g>
<!-- Node2&#45;&gt;Node4 -->
<g id="edge3" class="edge">
<title>Node2&#45;&gt;Node4</title>
<path fill="none" stroke="#63b8ff" d="M940.13,-61.58C818.12,-53.48 344.87,-22.05 208.17,-12.97"/>
<polygon fill="#63b8ff" stroke="#63b8ff" points="208.39,-9.48 198.18,-12.31 207.93,-16.46 208.39,-9.48"/>
</g>
<!-- Node2&#45;&gt;Node5 -->
<g id="edge4" class="edge">
<title>Node2&#45;&gt;Node5</title>
<path fill="none" stroke="#63b8ff" d="M979.28,-54.98C988.84,-47.07 1003.28,-35.11 1014.78,-25.58"/>
<polygon fill="#63b8ff" stroke="#63b8ff" points="1017.06,-28.24 1022.53,-19.17 1012.6,-22.85 1017.06,-28.24"/>
</g>
<!-- Node2&#45;&gt;Node6 -->
<g id="edge5" class="edge">
<title>Node2&#45;&gt;Node6</title>
<path fill="none" stroke="#63b8ff" d="M997.77,-60.56C1013.99,-58.91 1034.62,-56.82 1053,-55 1215.95,-38.84 1411.58,-20.03 1483.09,-13.17"/>
<polygon fill="#63b8ff" stroke="#63b8ff" points="1483.48,-16.65 1493.1,-12.21 1482.81,-9.68 1483.48,-16.65"/>
</g>
<!-- Node2&#45;&gt;Node7 -->
<g id="edge6" class="edge">
<title>Node2&#45;&gt;Node7</title>
<path fill="none" stroke="#63b8ff" d="M940.4,-58.51C883.23,-48.55 755.27,-26.24 696.1,-15.92"/>
<polygon fill="#63b8ff" stroke="#63b8ff" points="696.67,-12.47 686.22,-14.2 695.47,-19.37 696.67,-12.47"/>
</g>
<!-- Node2&#45;&gt;Node8 -->
<g id="edge7" class="edge">
<title>Node2&#45;&gt;Node8</title>
<path fill="none" stroke="#63b8ff" d="M997.95,-56.46C1041.22,-45.94 1122.01,-26.3 1162.52,-16.45"/>
<polygon fill="#63b8ff" stroke="#63b8ff" points="1163.47,-19.82 1172.36,-14.06 1161.81,-13.02 1163.47,-19.82"/>
</g>
<!-- Node9&#45;&gt;Node2 -->
<g id="edge9" class="edge">
<title>Node9&#45;&gt;Node2</title>
<path fill="none" stroke="#63b8ff" d="M703.72,-112.52C759.62,-102.61 871.17,-82.84 930.24,-72.37"/>
<polygon fill="#63b8ff" stroke="#63b8ff" points="931.05,-75.78 940.28,-70.59 929.83,-68.89 931.05,-75.78"/>
</g>
<!-- Node9&#45;&gt;Node3 -->
<g id="edge10" class="edge">
<title>Node9&#45;&gt;Node3</title>
<path fill="none" stroke="#63b8ff" d="M660.8,-109.6C645.92,-95.73 615.11,-69.09 584,-55 528.14,-29.69 457.03,-18.4 415.21,-13.65"/>
<polygon fill="#63b8ff" stroke="#63b8ff" points="415.56,-10.17 405.24,-12.58 414.81,-17.13 415.56,-10.17"/>
</g>
<!-- Node9&#45;&gt;Node4 -->
<g id="edge11" class="edge">
<title>Node9&#45;&gt;Node4</title>
<path fill="none" stroke="#63b8ff" d="M636.08,-110.36C584.08,-97.96 481.49,-73.79 394,-55 328.79,-40.99 252.52,-26.09 208.19,-17.58"/>
<polygon fill="#63b8ff" stroke="#63b8ff" points="208.65,-14.1 198.17,-15.66 207.33,-20.98 208.65,-14.1"/>
</g>
<!-- Node9&#45;&gt;Node5 -->
<g id="edge12" class="edge">
<title>Node9&#45;&gt;Node5</title>
<path fill="none" stroke="#63b8ff" d="M682.33,-109.8C702.57,-95.97 744.52,-69.08 784,-55 859.76,-27.99 954.56,-16.85 1002.39,-12.7"/>
<polygon fill="#63b8ff" stroke="#63b8ff" points="1002.72,-16.18 1012.4,-11.87 1002.15,-9.21 1002.72,-16.18"/>
</g>
<!-- Node9&#45;&gt;Node6 -->
<g id="edge13" class="edge">
<title>Node9&#45;&gt;Node6</title>
<path fill="none" stroke="#63b8ff" d="M703.75,-114.17C841.3,-96.5 1358.23,-30.12 1483.52,-14.03"/>
<polygon fill="#63b8ff" stroke="#63b8ff" points="1483.99,-17.5 1493.46,-12.75 1483.09,-10.56 1483.99,-17.5"/>
</g>
<!-- Node9&#45;&gt;Node7 -->
<g id="edge14" class="edge">
<title>Node9&#45;&gt;Node7</title>
<path fill="none" stroke="#63b8ff" d="M669.59,-109.66C668.78,-92.17 666.96,-52.8 665.87,-29.27"/>
<polygon fill="#63b8ff" stroke="#63b8ff" points="669.36,-28.99 665.4,-19.16 662.37,-29.31 669.36,-28.99"/>
</g>
<!-- Node9&#45;&gt;Node8 -->
<g id="edge15" class="edge">
<title>Node9&#45;&gt;Node8</title>
<path fill="none" stroke="#63b8ff" d="M702.52,-109.9C751.9,-97 848.84,-72.32 932,-55 1015.93,-37.52 1116.38,-21.38 1162.12,-14.29"/>
<polygon fill="#63b8ff" stroke="#63b8ff" points="1162.93,-17.71 1172.28,-12.73 1161.86,-10.79 1162.93,-17.71"/>
</g>
<!-- Node10&#45;&gt;Node2 -->
<g id="edge17" class="edge">
<title>Node10&#45;&gt;Node2</title>
<path fill="none" stroke="#63b8ff" d="M867.18,-164.62C874.99,-151.7 890.7,-127.36 908,-110 919.43,-98.53 934.03,-87.77 946.08,-79.7"/>
<polygon fill="#63b8ff" stroke="#63b8ff" points="948.23,-82.48 954.71,-74.09 944.41,-76.61 948.23,-82.48"/>
</g>
<!-- Node10&#45;&gt;Node3 -->
<g id="edge19" class="edge">
<title>Node10&#45;&gt;Node3</title>
<path fill="none" stroke="#63b8ff" d="M828.38,-169.87C782.31,-164.28 697.36,-151.74 628,-129 541.58,-100.67 446.38,-48.84 403.38,-24.21"/>
<polygon fill="#63b8ff" stroke="#63b8ff" points="404.95,-21.07 394.54,-19.11 401.45,-27.14 404.95,-21.07"/>
</g>
<!-- Node10&#45;&gt;Node4 -->
<g id="edge20" class="edge">
<title>Node10&#45;&gt;Node4</title>
<path fill="none" stroke="#63b8ff" d="M828.35,-169.8C774.17,-163.52 664.41,-149.41 573,-129 434.59,-98.09 273.9,-45.55 205.1,-22.24"/>
<polygon fill="#63b8ff" stroke="#63b8ff" points="206.22,-18.93 195.63,-19.02 203.97,-25.55 206.22,-18.93"/>
</g>
<!-- Node10&#45;&gt;Node5 -->
<g id="edge21" class="edge">
<title>Node10&#45;&gt;Node5</title>
<path fill="none" stroke="#63b8ff" d="M864.6,-164.82C871.64,-142.89 893.17,-84.86 932,-55 953.28,-38.64 981.51,-26.86 1002.72,-19.55"/>
<polygon fill="#63b8ff" stroke="#63b8ff" points="1004.1,-22.77 1012.5,-16.31 1001.91,-16.13 1004.1,-22.77"/>
</g>
<!-- Node10&#45;&gt;Node6 -->
<g id="edge22" class="edge">
<title>Node10&#45;&gt;Node6</title>
<path fill="none" stroke="#63b8ff" d="M895.53,-165.08C1009.33,-136.5 1379.56,-43.51 1483.59,-17.39"/>
<polygon fill="#63b8ff" stroke="#63b8ff" points="1484.5,-20.77 1493.34,-14.94 1482.79,-13.98 1484.5,-20.77"/>
</g>
<!-- Node10&#45;&gt;Node7 -->
<g id="edge23" class="edge">
<title>Node10&#45;&gt;Node7</title>
<path fill="none" stroke="#63b8ff" d="M851.69,-164.97C820.05,-138.79 724.09,-59.39 683.47,-25.79"/>
<polygon fill="#63b8ff" stroke="#63b8ff" points="685.63,-23.02 675.69,-19.34 681.16,-28.42 685.63,-23.02"/>
</g>
<!-- Node10&#45;&gt;Node8 -->
<g id="edge24" class="edge">
<title>Node10&#45;&gt;Node8</title>
<path fill="none" stroke="#63b8ff" d="M879.02,-164.97C933.07,-137.86 1100.97,-53.65 1163.35,-22.36"/>
<polygon fill="#63b8ff" stroke="#63b8ff" points="1165.05,-25.42 1172.42,-17.81 1161.91,-19.17 1165.05,-25.42"/>
</g>
<!-- Node10&#45;&gt;Node9 -->
<g id="edge18" class="edge">
<title>Node10&#45;&gt;Node9</title>
<path fill="none" stroke="#63b8ff" d="M831.15,-164.98C798.5,-155.97 746.8,-141.7 710.8,-131.76"/>
<polygon fill="#63b8ff" stroke="#63b8ff" points="711.66,-128.37 701.09,-129.08 709.8,-135.12 711.66,-128.37"/>
</g>
<!-- Node11&#45;&gt;Node2 -->
<g id="edge26" class="edge">
<title>Node11&#45;&gt;Node2</title>
<path fill="none" stroke="#63b8ff" d="M723.87,-219.67C758.83,-195.72 855.14,-129.98 888,-110 906.22,-98.92 927.36,-87.35 943.47,-78.79"/>
<polygon fill="#63b8ff" stroke="#63b8ff" points="945.11,-81.88 952.31,-74.12 941.84,-75.69 945.11,-81.88"/>
</g>
<!-- Node11&#45;&gt;Node3 -->
<g id="edge29" class="edge">
<title>Node11&#45;&gt;Node3</title>
<path fill="none" stroke="#63b8ff" d="M675.86,-222.56C621.09,-211.86 514.17,-185.04 442,-129 409.1,-103.46 391.87,-55.53 384.5,-29.13"/>
<polygon fill="#63b8ff" stroke="#63b8ff" points="387.83,-28.05 381.93,-19.26 381.06,-29.82 387.83,-28.05"/>
</g>
<!-- Node11&#45;&gt;Node4 -->
<g id="edge30" class="edge">
<title>Node11&#45;&gt;Node4</title>
<path fill="none" stroke="#63b8ff" d="M675.67,-222.61C632.8,-215.14 558.49,-201.13 496,-184 350.96,-144.23 268.1,-192.89 176,-74 166.37,-61.57 165.9,-43.36 167.38,-29.62"/>
<polygon fill="#63b8ff" stroke="#63b8ff" points="170.89,-29.77 168.92,-19.36 163.97,-28.73 170.89,-29.77"/>
</g>
<!-- Node11&#45;&gt;Node5 -->
<g id="edge31" class="edge">
<title>Node11&#45;&gt;Node5</title>
<path fill="none" stroke="#63b8ff" d="M718.33,-219.92C742.54,-192.1 823.28,-103.32 908,-55 938.21,-37.77 976.25,-25.39 1002.39,-18.13"/>
<polygon fill="#63b8ff" stroke="#63b8ff" points="1003.38,-21.48 1012.13,-15.5 1001.56,-14.72 1003.38,-21.48"/>
</g>
<!-- Node11&#45;&gt;Node6 -->
<g id="edge32" class="edge">
<title>Node11&#45;&gt;Node6</title>
<path fill="none" stroke="#63b8ff" d="M746.38,-222.68C791.4,-215.03 871.44,-200.6 939,-184 1105.61,-143.08 1144.94,-124.17 1309,-74 1371.5,-54.89 1444.61,-31.7 1483.46,-19.31"/>
<polygon fill="#63b8ff" stroke="#63b8ff" points="1485,-22.49 1493.47,-16.11 1482.88,-15.82 1485,-22.49"/>
</g>
<!-- Node11&#45;&gt;Node7 -->
<g id="edge33" class="edge">
<title>Node11&#45;&gt;Node7</title>
<path fill="none" stroke="#63b8ff" d="M699.9,-219.84C680.82,-204.16 642.48,-168.97 628,-129 615.09,-93.38 637.36,-50.81 652.58,-27.62"/>
<polygon fill="#63b8ff" stroke="#63b8ff" points="655.58,-29.44 658.36,-19.21 649.81,-25.47 655.58,-29.44"/>
</g>
<!-- Node11&#45;&gt;Node8 -->
<g id="edge34" class="edge">
<title>Node11&#45;&gt;Node8</title>
<path fill="none" stroke="#63b8ff" d="M746.03,-223.98C785.71,-218.06 851.75,-205.8 905,-184 1011.76,-140.3 1124.43,-58.5 1168.14,-25.18"/>
<polygon fill="#63b8ff" stroke="#63b8ff" points="1170.37,-27.89 1176.17,-19.02 1166.1,-22.33 1170.37,-27.89"/>
</g>
<!-- Node11&#45;&gt;Node9 -->
<g id="edge27" class="edge">
<title>Node11&#45;&gt;Node9</title>
<path fill="none" stroke="#63b8ff" d="M707.64,-219.66C700.94,-202.01 685.79,-162.09 676.88,-138.64"/>
<polygon fill="#63b8ff" stroke="#63b8ff" points="680.11,-137.27 673.29,-129.16 673.56,-139.75 680.11,-137.27"/>
</g>
<!-- Node11&#45;&gt;Node10 -->
<g id="edge28" class="edge">
<title>Node11&#45;&gt;Node10</title>
<path fill="none" stroke="#63b8ff" d="M735.26,-219.98C760.32,-211.19 799.63,-197.39 827.83,-187.49"/>
<polygon fill="#63b8ff" stroke="#63b8ff" points="829.02,-190.78 837.3,-184.17 826.7,-184.18 829.02,-190.78"/>
</g>
<!-- Node12&#45;&gt;Node2 -->
<g id="edge36" class="edge">
<title>Node12&#45;&gt;Node2</title>
<path fill="none" stroke="#63b8ff" d="M1050.15,-219.94C1057.19,-199.24 1071.92,-145.56 1050,-110 1040.45,-94.5 1023.45,-84 1007.49,-77.11"/>
<polygon fill="#63b8ff" stroke="#63b8ff" points="1008.35,-73.69 997.76,-73.28 1005.78,-80.2 1008.35,-73.69"/>
</g>
<!-- Node12&#45;&gt;Node3 -->
<g id="edge39" class="edge">
<title>Node12&#45;&gt;Node3</title>
<path fill="none" stroke="#63b8ff" d="M1022.26,-225.48C951,-216.33 739.7,-185.96 573,-129 518.63,-110.42 504.44,-104.9 456,-74 433.74,-59.8 410.84,-39.79 396.07,-26.05"/>
<polygon fill="#63b8ff" stroke="#63b8ff" points="398.44,-23.46 388.77,-19.13 393.63,-28.55 398.44,-23.46"/>
</g>
<!-- Node12&#45;&gt;Node4 -->
<g id="edge40" class="edge">
<title>Node12&#45;&gt;Node4</title>
<path fill="none" stroke="#63b8ff" d="M1022.11,-226.63C964.37,-222.02 816.98,-208.63 696,-184 519.94,-148.16 475.39,-136.65 307,-74 267.41,-59.27 223.43,-37.74 196.49,-23.92"/>
<polygon fill="#63b8ff" stroke="#63b8ff" points="197.87,-20.69 187.38,-19.2 194.65,-26.91 197.87,-20.69"/>
</g>
<!-- Node12&#45;&gt;Node5 -->
<g id="edge41" class="edge">
<title>Node12&#45;&gt;Node5</title>
<path fill="none" stroke="#63b8ff" d="M1054.15,-219.97C1060.77,-211.48 1070.15,-197.75 1074,-184 1076.27,-175.87 1074.53,-173.43 1074,-165 1072.44,-140.41 1072.57,-134 1067,-110 1060.25,-80.89 1048.23,-48.33 1040.44,-28.63"/>
<polygon fill="#63b8ff" stroke="#63b8ff" points="1043.59,-27.08 1036.61,-19.11 1037.1,-29.69 1043.59,-27.08"/>
</g>
<!-- Node12&#45;&gt;Node6 -->
<g id="edge42" class="edge">
<title>Node12&#45;&gt;Node6</title>
<path fill="none" stroke="#63b8ff" d="M1071.62,-228.84C1150.1,-228.46 1395.61,-215.56 1506,-74 1515.67,-61.6 1516.14,-43.39 1514.65,-29.64"/>
<polygon fill="#63b8ff" stroke="#63b8ff" points="1518.05,-28.73 1513.09,-19.37 1511.13,-29.78 1518.05,-28.73"/>
</g>
<!-- Node12&#45;&gt;Node7 -->
<g id="edge43" class="edge">
<title>Node12&#45;&gt;Node7</title>
<path fill="none" stroke="#63b8ff" d="M1033.31,-219.9C1013.53,-207.52 975.72,-184.07 943,-165 850.65,-111.17 738.99,-50.4 690.04,-23.97"/>
<polygon fill="#63b8ff" stroke="#63b8ff" points="691.58,-20.82 681.11,-19.16 688.25,-26.98 691.58,-20.82"/>
</g>
<!-- Node12&#45;&gt;Node8 -->
<g id="edge44" class="edge">
<title>Node12&#45;&gt;Node8</title>
<path fill="none" stroke="#63b8ff" d="M1056.12,-219.82C1064.88,-211.21 1078.2,-197.4 1088,-184 1126.98,-130.71 1162.74,-60.72 1178.51,-28.34"/>
<polygon fill="#63b8ff" stroke="#63b8ff" points="1181.71,-29.75 1182.9,-19.22 1175.41,-26.71 1181.71,-29.75"/>
</g>
<!-- Node12&#45;&gt;Node9 -->
<g id="edge37" class="edge">
<title>Node12&#45;&gt;Node9</title>
<path fill="none" stroke="#63b8ff" d="M1030.87,-219.78C1005.03,-206.17 952.41,-179.87 905,-165 839.85,-144.57 761.44,-132.03 713.68,-125.67"/>
<polygon fill="#63b8ff" stroke="#63b8ff" points="714.05,-122.18 703.68,-124.37 713.15,-129.13 714.05,-122.18"/>
</g>
<!-- Node12&#45;&gt;Node10 -->
<g id="edge38" class="edge">
<title>Node12&#45;&gt;Node10</title>
<path fill="none" stroke="#63b8ff" d="M1022.43,-221.46C991.62,-212.63 938.38,-197.38 901.74,-186.89"/>
<polygon fill="#63b8ff" stroke="#63b8ff" points="902.46,-183.45 891.88,-184.06 900.53,-190.18 902.46,-183.45"/>
</g>
<!-- Node13&#45;&gt;Node2 -->
<g id="edge46" class="edge">
<title>Node13&#45;&gt;Node2</title>
<path fill="none" stroke="#63b8ff" d="M801.85,-274.9C824.79,-259.05 873.36,-223.25 905,-184 930.82,-151.97 951.38,-107.99 961.72,-83.61"/>
<polygon fill="#63b8ff" stroke="#63b8ff" points="965.03,-84.76 965.62,-74.19 958.56,-82.09 965.03,-84.76"/>
</g>
<!-- Node13&#45;&gt;Node3 -->
<g id="edge51" class="edge">
<title>Node13&#45;&gt;Node3</title>
<path fill="none" stroke="#63b8ff" d="M756.23,-278.02C685.89,-264.69 518.74,-224.38 419,-129 391.05,-102.27 383.12,-55.17 380.87,-29.13"/>
<polygon fill="#63b8ff" stroke="#63b8ff" points="384.36,-28.83 380.21,-19.08 377.38,-29.29 384.36,-28.83"/>
</g>
<!-- Node13&#45;&gt;Node4 -->
<g id="edge52" class="edge">
<title>Node13&#45;&gt;Node4</title>
<path fill="none" stroke="#63b8ff" d="M756.36,-282.6C662.2,-278.5 385.4,-255.7 206,-129 180.88,-111.26 173.85,-103.14 164,-74 159.06,-59.39 161.55,-41.91 164.86,-29"/>
<polygon fill="#63b8ff" stroke="#63b8ff" points="168.22,-29.97 167.69,-19.38 161.51,-27.99 168.22,-29.97"/>
</g>
<!-- Node13&#45;&gt;Node5 -->
<g id="edge53" class="edge">
<title>Node13&#45;&gt;Node5</title>
<path fill="none" stroke="#63b8ff" d="M821.65,-279.35C895.66,-269.82 1070.59,-246.64 1081,-239 1109.23,-218.29 1114.21,-199.45 1108,-165 1098.74,-113.65 1092.22,-100.67 1067,-55 1061.55,-45.12 1054.05,-35.06 1047.49,-27.01"/>
<polygon fill="#63b8ff" stroke="#63b8ff" points="1049.99,-24.55 1040.87,-19.16 1044.64,-29.06 1049.99,-24.55"/>
</g>
<!-- Node13&#45;&gt;Node6 -->
<g id="edge54" class="edge">
<title>Node13&#45;&gt;Node6</title>
<path fill="none" stroke="#63b8ff" d="M821.73,-279.83C930.3,-267.37 1277.6,-225.17 1382,-184 1456.27,-154.71 1495.21,-148.46 1524,-74 1529.7,-59.26 1525.23,-41.58 1520.04,-28.62"/>
<polygon fill="#63b8ff" stroke="#63b8ff" points="1523.18,-27.08 1515.9,-19.39 1516.8,-29.95 1523.18,-27.08"/>
</g>
<!-- Node13&#45;&gt;Node7 -->
<g id="edge55" class="edge">
<title>Node13&#45;&gt;Node7</title>
<path fill="none" stroke="#63b8ff" d="M756.24,-278.84C729.29,-273.46 691.64,-262.16 667,-239 605.89,-181.54 591.45,-131.88 625,-55 629.8,-44 638.41,-33.87 646.42,-26.06"/>
<polygon fill="#63b8ff" stroke="#63b8ff" points="649.03,-28.41 654.06,-19.08 644.31,-23.24 649.03,-28.41"/>
</g>
<!-- Node13&#45;&gt;Node8 -->
<g id="edge56" class="edge">
<title>Node13&#45;&gt;Node8</title>
<path fill="none" stroke="#63b8ff" d="M821.64,-279.8C900,-270.81 1093.07,-247.86 1104,-239 1170.2,-185.31 1183.61,-74.13 1186.32,-29.57"/>
<polygon fill="#63b8ff" stroke="#63b8ff" points="1189.83,-29.47 1186.82,-19.32 1182.83,-29.13 1189.83,-29.47"/>
</g>
<!-- Node13&#45;&gt;Node9 -->
<g id="edge47" class="edge">
<title>Node13&#45;&gt;Node9</title>
<path fill="none" stroke="#63b8ff" d="M785.15,-274.95C779.35,-262.43 767.7,-238.59 755,-220 733.46,-188.46 703.55,-155.43 685.56,-136.48"/>
<polygon fill="#63b8ff" stroke="#63b8ff" points="687.86,-133.83 678.42,-129.03 682.81,-138.67 687.86,-133.83"/>
</g>
<!-- Node13&#45;&gt;Node10 -->
<g id="edge48" class="edge">
<title>Node13&#45;&gt;Node10</title>
<path fill="none" stroke="#63b8ff" d="M794.97,-274.66C807.06,-256.77 834.62,-216 850.38,-192.69"/>
<polygon fill="#63b8ff" stroke="#63b8ff" points="853.45,-194.4 856.15,-184.16 847.65,-190.48 853.45,-194.4"/>
</g>
<!-- Node13&#45;&gt;Node11 -->
<g id="edge49" class="edge">
<title>Node13&#45;&gt;Node11</title>
<path fill="none" stroke="#63b8ff" d="M776.47,-274.98C764.6,-266.92 746.54,-254.65 732.39,-245.03"/>
<polygon fill="#63b8ff" stroke="#63b8ff" points="734,-241.9 723.76,-239.17 730.06,-247.69 734,-241.9"/>
</g>
<!-- Node13&#45;&gt;Node12 -->
<g id="edge50" class="edge">
<title>Node13&#45;&gt;Node12</title>
<path fill="none" stroke="#63b8ff" d="M821.68,-276.79C870.54,-266.75 962.24,-247.91 1012.27,-237.63"/>
<polygon fill="#63b8ff" stroke="#63b8ff" points="1013.2,-241.02 1022.29,-235.58 1011.79,-234.16 1013.2,-241.02"/>
</g>
<!-- Node14&#45;&gt;Node2 -->
<g id="edge58" class="edge">
<title>Node14&#45;&gt;Node2</title>
<path fill="none" stroke="#63b8ff" d="M1026.11,-329.79C1040.64,-313.5 1070.58,-276.63 1081,-239 1091.6,-200.73 1109.13,-167.1 1067,-110 1052.89,-90.87 1028.61,-79.77 1007.75,-73.44"/>
<polygon fill="#63b8ff" stroke="#63b8ff" points="1008.41,-69.99 997.84,-70.69 1006.55,-76.73 1008.41,-69.99"/>
</g>
<!-- Node14&#45;&gt;Node3 -->
<g id="edge64" class="edge">
<title>Node14&#45;&gt;Node3</title>
<path fill="none" stroke="#63b8ff" d="M988.47,-337.64C845.06,-333.06 228,-308.8 228,-230.5 228,-230.5 228,-230.5 228,-118.5 228,-61.32 300.37,-31.63 345.24,-18.72"/>
<polygon fill="#63b8ff" stroke="#63b8ff" points="346.18,-22.09 354.9,-16.07 344.33,-15.33 346.18,-22.09"/>
</g>
<!-- Node14&#45;&gt;Node4 -->
<g id="edge65" class="edge">
<title>Node14&#45;&gt;Node4</title>
<path fill="none" stroke="#63b8ff" d="M988.42,-338.03C871.23,-335.96 439.49,-326.24 307,-294 180.06,-263.11 38,-306.14 38,-175.5 38,-175.5 38,-175.5 38,-118.5 38,-88.33 40.95,-76.61 62,-55 81.26,-35.23 110.52,-23.94 133.88,-17.68"/>
<polygon fill="#63b8ff" stroke="#63b8ff" points="134.95,-21.02 143.81,-15.22 133.26,-14.22 134.95,-21.02"/>
</g>
<!-- Node14&#45;&gt;Node5 -->
<g id="edge66" class="edge">
<title>Node14&#45;&gt;Node5</title>
<path fill="none" stroke="#63b8ff" d="M1047.62,-336.8C1126.27,-331.98 1335.76,-317.08 1356,-294 1461.72,-173.45 1162.35,-55.52 1063.48,-20.76"/>
<polygon fill="#63b8ff" stroke="#63b8ff" points="1064.36,-17.36 1053.77,-17.38 1062.07,-23.97 1064.36,-17.36"/>
</g>
<!-- Node14&#45;&gt;Node6 -->
<g id="edge67" class="edge">
<title>Node14&#45;&gt;Node6</title>
<path fill="none" stroke="#63b8ff" d="M1047.59,-338.11C1126.17,-336.6 1338.1,-329.27 1397,-294 1496.85,-234.22 1512.68,-187.36 1539,-74 1540.91,-65.77 1541.34,-63.11 1539,-55 1536.13,-45.06 1530.32,-35.2 1524.72,-27.29"/>
<polygon fill="#63b8ff" stroke="#63b8ff" points="1527.5,-25.16 1518.67,-19.3 1521.92,-29.39 1527.5,-25.16"/>
</g>
<!-- Node14&#45;&gt;Node7 -->
<g id="edge68" class="edge">
<title>Node14&#45;&gt;Node7</title>
<path fill="none" stroke="#63b8ff" d="M988.25,-337.3C917.09,-333.98 739.13,-322.94 688,-294 609.6,-249.63 594.91,-199.72 603,-110 605.23,-85.26 600.62,-76.54 613,-55 619.94,-42.93 631.42,-32.58 641.83,-24.91"/>
<polygon fill="#63b8ff" stroke="#63b8ff" points="643.97,-27.69 650.2,-19.12 639.99,-21.93 643.97,-27.69"/>
</g>
<!-- Node14&#45;&gt;Node8 -->
<g id="edge69" class="edge">
<title>Node14&#45;&gt;Node8</title>
<path fill="none" stroke="#63b8ff" d="M1047.54,-338.95C1124.3,-339.49 1327.49,-336.77 1376,-294 1470.5,-210.68 1276.94,-69.77 1209.22,-24.77"/>
<polygon fill="#63b8ff" stroke="#63b8ff" points="1210.82,-21.63 1200.54,-19.07 1206.98,-27.48 1210.82,-21.63"/>
</g>
<!-- Node14&#45;&gt;Node9 -->
<g id="edge59" class="edge">
<title>Node14&#45;&gt;Node9</title>
<path fill="none" stroke="#63b8ff" d="M988.34,-336.21C923.66,-330.86 772.04,-316.29 726,-294 693.73,-278.38 681.3,-271.87 667,-239 652.69,-206.09 659.27,-163.03 664.92,-138.92"/>
<polygon fill="#63b8ff" stroke="#63b8ff" points="668.36,-139.56 667.44,-129 661.58,-137.83 668.36,-139.56"/>
</g>
<!-- Node14&#45;&gt;Node10 -->
<g id="edge60" class="edge">
<title>Node14&#45;&gt;Node10</title>
<path fill="none" stroke="#63b8ff" d="M1017.19,-329.93C1015.61,-316.97 1011.11,-292.09 999,-275 970.65,-235.01 921.11,-204.9 890.01,-188.77"/>
<polygon fill="#63b8ff" stroke="#63b8ff" points="891.5,-185.6 880.99,-184.21 888.34,-191.85 891.5,-185.6"/>
</g>
<!-- Node14&#45;&gt;Node11 -->
<g id="edge61" class="edge">
<title>Node14&#45;&gt;Node11</title>
<path fill="none" stroke="#63b8ff" d="M988.2,-336.76C926.36,-332.65 786.63,-320.62 748,-294 732.27,-283.17 722.29,-263.29 716.71,-248.66"/>
<polygon fill="#63b8ff" stroke="#63b8ff" points="719.99,-247.43 713.4,-239.13 713.37,-249.72 719.99,-247.43"/>
</g>
<!-- Node14&#45;&gt;Node12 -->
<g id="edge62" class="edge">
<title>Node14&#45;&gt;Node12</title>
<path fill="none" stroke="#63b8ff" d="M1020.98,-329.69C1023.95,-320.75 1028.56,-306.49 1032,-294 1036.14,-278.96 1040.16,-261.73 1043,-249.02"/>
<polygon fill="#63b8ff" stroke="#63b8ff" points="1046.43,-249.7 1045.16,-239.18 1039.6,-248.19 1046.43,-249.7"/>
</g>
<!-- Node14&#45;&gt;Node13 -->
<g id="edge63" class="edge">
<title>Node14&#45;&gt;Node13</title>
<path fill="none" stroke="#63b8ff" d="M988.06,-331.57C948.05,-322.31 876.91,-305.85 831.39,-295.31"/>
<polygon fill="#63b8ff" stroke="#63b8ff" points="832.06,-291.87 821.53,-293.03 830.49,-298.69 832.06,-291.87"/>
</g>
<!-- Node15 -->
<g id="node15" class="node">
<title>Node15</title>
<g id="a_node15"><a xlink:title=" ">
<polygon fill="#e0e0e0" stroke="#999999" points="1152,-294 1122,-294 1122,-275 1152,-275 1152,-294"/>
<text text-anchor="middle" x="1137" y="-282" font-family="Helvetica,sans-Serif" font-size="10.00">set</text>
</a>
</g>
</g>
<!-- Node14&#45;&gt;Node15 -->
<g id="edge70" class="edge">
<title>Node14&#45;&gt;Node15</title>
<path fill="none" stroke="#63b8ff" d="M1037.12,-329.98C1057.61,-320.86 1090.19,-306.35 1112.54,-296.4"/>
<polygon fill="#63b8ff" stroke="#63b8ff" points="1114,-299.58 1121.71,-292.31 1111.15,-293.18 1114,-299.58"/>
</g>
<!-- Node16 -->
<g id="node16" class="node">
<title>Node16</title>
<g id="a_node16"><a xlink:title=" ">
<polygon fill="#e0e0e0" stroke="#999999" points="1215.5,-294 1170.5,-294 1170.5,-275 1215.5,-275 1215.5,-294"/>
<text text-anchor="middle" x="1193" y="-282" font-family="Helvetica,sans-Serif" font-size="10.00">cstdlib</text>
</a>
</g>
</g>
<!-- Node14&#45;&gt;Node16 -->
<g id="edge71" class="edge">
<title>Node14&#45;&gt;Node16</title>
<path fill="none" stroke="#63b8ff" d="M1046.12,-329.98C1077.38,-320.52 1127.78,-305.25 1160.65,-295.3"/>
<polygon fill="#63b8ff" stroke="#63b8ff" points="1161.69,-298.64 1170.25,-292.39 1159.66,-291.94 1161.69,-298.64"/>
</g>
<!-- Node17 -->
<g id="node17" class="node">
<title>Node17</title>
<g id="a_node17"><a xlink:title=" ">
<polygon fill="#e0e0e0" stroke="#999999" points="1282.5,-294 1233.5,-294 1233.5,-275 1282.5,-275 1282.5,-294"/>
<text text-anchor="middle" x="1258" y="-282" font-family="Helvetica,sans-Serif" font-size="10.00">fstream</text>
</a>
</g>
</g>
<!-- Node14&#45;&gt;Node17 -->
<g id="edge72" class="edge">
<title>Node14&#45;&gt;Node17</title>
<path fill="none" stroke="#63b8ff" d="M1047.56,-332.54C1085.92,-324.71 1155.15,-310.3 1223.14,-294.37"/>
<polygon fill="#63b8ff" stroke="#63b8ff" points="1224.23,-297.71 1233.16,-292.01 1222.62,-290.9 1224.23,-297.71"/>
</g>
<!-- Node18 -->
<g id="node18" class="node">
<title>Node18</title>
<g id="a_node18"><a xlink:title=" ">
<polygon fill="#e0e0e0" stroke="#999999" points="1347,-294 1301,-294 1301,-275 1347,-275 1347,-294"/>
<text text-anchor="middle" x="1324" y="-282" font-family="Helvetica,sans-Serif" font-size="10.00">cstring</text>
</a>
</g>
</g>
<!-- Node14&#45;&gt;Node18 -->
<g id="edge73" class="edge">
<title>Node14&#45;&gt;Node18</title>
<path fill="none" stroke="#63b8ff" d="M1047.78,-334.64C1096.56,-328.12 1196.71,-313.83 1291.01,-294.03"/>
<polygon fill="#63b8ff" stroke="#63b8ff" points="1291.94,-297.41 1300.99,-291.9 1290.48,-290.56 1291.94,-297.41"/>
</g>
<!-- Node19 -->
<g id="node19" class="node">
<title>Node19</title>
<g id="a_node19"><a xlink:title=" ">
<polygon fill="#e0e0e0" stroke="#999999" points="924,-294 878,-294 878,-275 924,-275 924,-294"/>
<text text-anchor="middle" x="901" y="-282" font-family="Helvetica,sans-Serif" font-size="10.00">cctype</text>
</a>
</g>
</g>
<!-- Node14&#45;&gt;Node19 -->
<g id="edge74" class="edge">
<title>Node14&#45;&gt;Node19</title>
<path fill="none" stroke="#63b8ff" d="M999.2,-329.98C980.38,-321.46 951.18,-308.23 929.5,-298.41"/>
<polygon fill="#63b8ff" stroke="#63b8ff" points="930.69,-295.11 920.14,-294.17 927.8,-301.48 930.69,-295.11"/>
</g>
<!-- Node20 -->
<g id="node20" class="node">
<title>Node20</title>
<g id="a_node20"><a xlink:title=" ">
<polygon fill="#e0e0e0" stroke="#999999" points="990,-294 942,-294 942,-275 990,-275 990,-294"/>
<text text-anchor="middle" x="966" y="-282" font-family="Helvetica,sans-Serif" font-size="10.00">stdlib.h</text>
</a>
</g>
</g>
<!-- Node14&#45;&gt;Node20 -->
<g id="edge75" class="edge">
<title>Node14&#45;&gt;Node20</title>
<path fill="none" stroke="#63b8ff" d="M1009.41,-329.75C1001.84,-322.03 990.62,-310.6 981.49,-301.28"/>
<polygon fill="#63b8ff" stroke="#63b8ff" points="983.93,-298.78 974.43,-294.09 978.93,-303.68 983.93,-298.78"/>
</g>
</g>
</svg>
