<?xml version="1.0" encoding="UTF-8" standalone="no"?>
<!DOCTYPE svg PUBLIC "-//W3C//DTD SVG 1.1//EN"
 "http://www.w3.org/Graphics/SVG/1.1/DTD/svg11.dtd">
<!-- Generated by graphviz version 4.0.0 (20220529.0937)
 -->
<!-- Title: menu.hpp Pages: 1 -->
<svg width="1673pt" height="357pt"
 viewBox="0.00 0.00 1673.00 357.00" xmlns="http://www.w3.org/2000/svg" xmlns:xlink="http://www.w3.org/1999/xlink">
<g id="graph0" class="graph" transform="scale(1 1) rotate(0) translate(4 353)">
<title>menu.hpp</title>
<!-- Node1 -->
<g id="node1" class="node">
<title>Node1</title>
<g id="a_node1"><a xlink:title="Classe com a lógica do menu.">
<polygon fill="#999999" stroke="#666666" points="1140.5,-349 1081.5,-349 1081.5,-330 1140.5,-330 1140.5,-349"/>
<text text-anchor="middle" x="1111" y="-337" font-family="Helvetica,sans-Serif" font-size="10.00">menu.hpp</text>
</a>
</g>
</g>
<!-- Node2 -->
<g id="node2" class="node">
<title>Node2</title>
<g id="a_node2"><a xlink:href="carta_8hpp.html" target="_top" xlink:title="Classe com a lógica da carta.">
<polygon fill="white" stroke="#666666" points="693.5,-74 636.5,-74 636.5,-55 693.5,-55 693.5,-74"/>
<text text-anchor="middle" x="665" y="-62" font-family="Helvetica,sans-Serif" font-size="10.00">carta.hpp</text>
</a>
</g>
</g>
<!-- Node1&#45;&gt;Node2 -->
<g id="edge1" class="edge">
<title>Node1&#45;&gt;Node2</title>
<path fill="none" stroke="#63b8ff" d="M1097.8,-329.99C1050.39,-299.48 884.12,-193.03 744,-110 726.06,-99.37 705.52,-87.82 689.89,-79.15"/>
<polygon fill="#63b8ff" stroke="#63b8ff" points="691.3,-75.93 680.85,-74.16 687.92,-82.06 691.3,-75.93"/>
</g>
<!-- Node3 -->
<g id="node3" class="node">
<title>Node3</title>
<g id="a_node3"><a xlink:title=" ">
<polygon fill="#e0e0e0" stroke="#999999" points="253,-19 203,-19 203,0 253,0 253,-19"/>
<text text-anchor="middle" x="228" y="-7" font-family="Helvetica,sans-Serif" font-size="10.00">iomanip</text>
</a>
</g>
</g>
<!-- Node1&#45;&gt;Node3 -->
<g id="edge57" class="edge">
<title>Node1&#45;&gt;Node3</title>
<path fill="none" stroke="#63b8ff" d="M1081.28,-338.81C904.6,-340.29 0,-342.41 0,-230.5 0,-230.5 0,-230.5 0,-118.5 0,-34.28 128.64,-15.65 192.67,-11.59"/>
<polygon fill="#63b8ff" stroke="#63b8ff" points="192.94,-15.08 202.73,-11.04 192.55,-8.09 192.94,-15.08"/>
</g>
<!-- Node4 -->
<g id="node4" class="node">
<title>Node4</title>
<g id="a_node4"><a xlink:title=" ">
<polygon fill="#e0e0e0" stroke="#999999" points="1281,-19 1227,-19 1227,0 1281,0 1281,-19"/>
<text text-anchor="middle" x="1254" y="-7" font-family="Helvetica,sans-Serif" font-size="10.00">iostream</text>
</a>
</g>
</g>
<!-- Node1&#45;&gt;Node4 -->
<g id="edge58" class="edge">
<title>Node1&#45;&gt;Node4</title>
<path fill="none" stroke="#63b8ff" d="M1129.37,-329.94C1144.57,-322.17 1166.03,-309.57 1181,-294 1239.8,-232.84 1241.03,-205.84 1277,-129 1291.45,-98.15 1309.77,-86.59 1297,-55 1292.31,-43.41 1283,-33.16 1274.24,-25.43"/>
<polygon fill="#63b8ff" stroke="#63b8ff" points="1276.44,-22.71 1266.49,-19.07 1272,-28.12 1276.44,-22.71"/>
</g>
<!-- Node5 -->
<g id="node5" class="node">
<title>Node5</title>
<g id="a_node5"><a xlink:title=" ">
<polygon fill="#e0e0e0" stroke="#999999" points="1160.5,-19 1119.5,-19 1119.5,0 1160.5,0 1160.5,-19"/>
<text text-anchor="middle" x="1140" y="-7" font-family="Helvetica,sans-Serif" font-size="10.00">string</text>
</a>
</g>
</g>
<!-- Node1&#45;&gt;Node5 -->
<g id="edge59" class="edge">
<title>Node1&#45;&gt;Node5</title>
<path fill="none" stroke="#63b8ff" d="M1126.65,-329.76C1138.81,-322.06 1154.93,-309.62 1163,-294 1208.06,-206.77 1178.55,-172.08 1183,-74 1183.38,-65.56 1186.16,-62.83 1183,-55 1178.31,-43.41 1169,-33.16 1160.24,-25.43"/>
<polygon fill="#63b8ff" stroke="#63b8ff" points="1162.44,-22.71 1152.49,-19.07 1158,-28.12 1162.44,-22.71"/>
</g>
<!-- Node6 -->
<g id="node6" class="node">
<title>Node6</title>
<g id="a_node6"><a xlink:title=" ">
<polygon fill="#e0e0e0" stroke="#999999" points="549.5,-19 514.5,-19 514.5,0 549.5,0 549.5,-19"/>
<text text-anchor="middle" x="532" y="-7" font-family="Helvetica,sans-Serif" font-size="10.00">map</text>
</a>
</g>
</g>
<!-- Node1&#45;&gt;Node6 -->
<g id="edge60" class="edge">
<title>Node1&#45;&gt;Node6</title>
<path fill="none" stroke="#63b8ff" d="M1081.42,-337.9C931.86,-334.48 266,-314.52 266,-230.5 266,-230.5 266,-230.5 266,-118.5 266,-82.58 285.44,-73.88 316,-55 375.75,-18.08 460.79,-11.22 504.19,-10.3"/>
<polygon fill="#63b8ff" stroke="#63b8ff" points="504.33,-13.8 514.28,-10.18 504.24,-6.8 504.33,-13.8"/>
</g>
<!-- Node7 -->
<g id="node7" class="node">
<title>Node7</title>
<g id="a_node7"><a xlink:title=" ">
<polygon fill="#e0e0e0" stroke="#999999" points="401,-19 359,-19 359,0 401,0 401,-19"/>
<text text-anchor="middle" x="380" y="-7" font-family="Helvetica,sans-Serif" font-size="10.00">vector</text>
</a>
</g>
</g>
<!-- Node1&#45;&gt;Node7 -->
<g id="edge61" class="edge">
<title>Node1&#45;&gt;Node7</title>
<path fill="none" stroke="#63b8ff" d="M1081.44,-338.09C949.36,-336.06 416.87,-325.95 350,-294 242.93,-242.85 153.43,-144.79 231,-55 260.3,-21.08 314.27,-12.44 348.58,-10.56"/>
<polygon fill="#63b8ff" stroke="#63b8ff" points="349.12,-14.04 358.98,-10.16 348.85,-7.04 349.12,-14.04"/>
</g>
<!-- Node8 -->
<g id="node8" class="node">
<title>Node8</title>
<g id="a_node8"><a xlink:title=" ">
<polygon fill="#e0e0e0" stroke="#999999" points="888.5,-19 859.5,-19 859.5,0 888.5,0 888.5,-19"/>
<text text-anchor="middle" x="874" y="-7" font-family="Helvetica,sans-Serif" font-size="10.00">list</text>
</a>
</g>
</g>
<!-- Node1&#45;&gt;Node8 -->
<g id="edge62" class="edge">
<title>Node1&#45;&gt;Node8</title>
<path fill="none" stroke="#63b8ff" d="M1107.66,-329.63C1093.26,-292.33 1033.17,-145.87 945,-55 931.45,-41.04 912.69,-29.52 897.85,-21.71"/>
<polygon fill="#63b8ff" stroke="#63b8ff" points="899.27,-18.5 888.76,-17.11 896.11,-24.75 899.27,-18.5"/>
</g>
<!-- Node9 -->
<g id="node9" class="node">
<title>Node9</title>
<g id="a_node9"><a xlink:href="baralho_8hpp.html" target="_top" xlink:title="Classe com a lógica do baralho.">
<polygon fill="white" stroke="#666666" points="693.5,-129 626.5,-129 626.5,-110 693.5,-110 693.5,-129"/>
<text text-anchor="middle" x="660" y="-117" font-family="Helvetica,sans-Serif" font-size="10.00">baralho.hpp</text>
</a>
</g>
</g>
<!-- Node1&#45;&gt;Node9 -->
<g id="edge8" class="edge">
<title>Node1&#45;&gt;Node9</title>
<path fill="none" stroke="#63b8ff" d="M1081.41,-335C1037.53,-329.3 952.96,-316.34 884,-294 780,-260.31 722.76,-276.18 664,-184 655.56,-170.76 655.26,-152.63 656.66,-139.14"/>
<polygon fill="#63b8ff" stroke="#63b8ff" points="660.15,-139.5 658.1,-129.1 653.22,-138.5 660.15,-139.5"/>
</g>
<!-- Node10 -->
<g id="node10" class="node">
<title>Node10</title>
<g id="a_node10"><a xlink:href="jogador_8hpp.html" target="_top" xlink:title="Classe com a lógica do jogador.">
<polygon fill="white" stroke="#666666" points="740.5,-184 673.5,-184 673.5,-165 740.5,-165 740.5,-184"/>
<text text-anchor="middle" x="707" y="-172" font-family="Helvetica,sans-Serif" font-size="10.00">jogador.hpp</text>
</a>
</g>
</g>
<!-- Node1&#45;&gt;Node10 -->
<g id="edge16" class="edge">
<title>Node1&#45;&gt;Node10</title>
<path fill="none" stroke="#63b8ff" d="M1081.19,-332.19C1024.52,-319.49 898.23,-287.84 801,-239 773.32,-225.1 744.18,-204.31 725.81,-190.35"/>
<polygon fill="#63b8ff" stroke="#63b8ff" points="727.77,-187.44 717.72,-184.1 723.49,-192.98 727.77,-187.44"/>
</g>
<!-- Node11 -->
<g id="node11" class="node">
<title>Node11</title>
<g id="a_node11"><a xlink:href="humano_8hpp.html" target="_top" xlink:title="Classe com a lógica do humano.">
<polygon fill="white" stroke="#666666" points="880,-239 810,-239 810,-220 880,-220 880,-239"/>
<text text-anchor="middle" x="845" y="-227" font-family="Helvetica,sans-Serif" font-size="10.00">humano.hpp</text>
</a>
</g>
</g>
<!-- Node1&#45;&gt;Node11 -->
<g id="edge25" class="edge">
<title>Node1&#45;&gt;Node11</title>
<path fill="none" stroke="#63b8ff" d="M1089.68,-329.84C1042.68,-310.76 930,-265.01 875.52,-242.89"/>
<polygon fill="#63b8ff" stroke="#63b8ff" points="876.63,-239.57 866.05,-239.05 874,-246.05 876.63,-239.57"/>
</g>
<!-- Node12 -->
<g id="node12" class="node">
<title>Node12</title>
<g id="a_node12"><a xlink:href="bot_8hpp.html" target="_top" xlink:title="Classe com a lógica do bot.">
<polygon fill="white" stroke="#666666" points="510.5,-239 461.5,-239 461.5,-220 510.5,-220 510.5,-239"/>
<text text-anchor="middle" x="486" y="-227" font-family="Helvetica,sans-Serif" font-size="10.00">bot.hpp</text>
</a>
</g>
</g>
<!-- Node1&#45;&gt;Node12 -->
<g id="edge35" class="edge">
<title>Node1&#45;&gt;Node12</title>
<path fill="none" stroke="#63b8ff" d="M1081.22,-338.17C982.44,-336.75 666.5,-329.48 572,-294 544.48,-283.67 518.09,-261.81 501.97,-246.65"/>
<polygon fill="#63b8ff" stroke="#63b8ff" points="504.14,-243.88 494.52,-239.42 499.27,-248.9 504.14,-243.88"/>
</g>
<!-- Node13 -->
<g id="node13" class="node">
<title>Node13</title>
<g id="a_node13"><a xlink:href="rodada_8hpp.html" target="_top" xlink:title="Classe com a lógica da rodada.">
<polygon fill="white" stroke="#666666" points="646.5,-294 581.5,-294 581.5,-275 646.5,-275 646.5,-294"/>
<text text-anchor="middle" x="614" y="-282" font-family="Helvetica,sans-Serif" font-size="10.00">rodada.hpp</text>
</a>
</g>
</g>
<!-- Node1&#45;&gt;Node13 -->
<g id="edge45" class="edge">
<title>Node1&#45;&gt;Node13</title>
<path fill="none" stroke="#63b8ff" d="M1081.45,-336.07C1010.31,-330.1 823.92,-313.76 669,-294 665.02,-293.49 660.88,-292.92 656.74,-292.33"/>
<polygon fill="#63b8ff" stroke="#63b8ff" points="656.94,-288.82 646.53,-290.82 655.91,-295.75 656.94,-288.82"/>
</g>
<!-- Node14 -->
<g id="node14" class="node">
<title>Node14</title>
<g id="a_node14"><a xlink:title=" ">
<polygon fill="#e0e0e0" stroke="#999999" points="1340,-294 1310,-294 1310,-275 1340,-275 1340,-294"/>
<text text-anchor="middle" x="1325" y="-282" font-family="Helvetica,sans-Serif" font-size="10.00">set</text>
</a>
</g>
</g>
<!-- Node1&#45;&gt;Node14 -->
<g id="edge63" class="edge">
<title>Node1&#45;&gt;Node14</title>
<path fill="none" stroke="#63b8ff" d="M1140.59,-331.85C1177.21,-323.52 1241.42,-308.55 1296,-294 1297.43,-293.62 1298.89,-293.22 1300.36,-292.81"/>
<polygon fill="#63b8ff" stroke="#63b8ff" points="1301.34,-296.17 1309.99,-290.05 1299.41,-289.44 1301.34,-296.17"/>
</g>
<!-- Node15 -->
<g id="node15" class="node">
<title>Node15</title>
<g id="a_node15"><a xlink:title=" ">
<polygon fill="#e0e0e0" stroke="#999999" points="1403.5,-294 1358.5,-294 1358.5,-275 1403.5,-275 1403.5,-294"/>
<text text-anchor="middle" x="1381" y="-282" font-family="Helvetica,sans-Serif" font-size="10.00">cstdlib</text>
</a>
</g>
</g>
<!-- Node1&#45;&gt;Node15 -->
<g id="edge64" class="edge">
<title>Node1&#45;&gt;Node15</title>
<path fill="none" stroke="#63b8ff" d="M1140.83,-333.66C1184.29,-326.45 1267.73,-312 1348.49,-293.96"/>
<polygon fill="#63b8ff" stroke="#63b8ff" points="1349.34,-297.36 1358.33,-291.75 1347.8,-290.53 1349.34,-297.36"/>
</g>
<!-- Node16 -->
<g id="node16" class="node">
<title>Node16</title>
<g id="a_node16"><a xlink:title=" ">
<polygon fill="#e0e0e0" stroke="#999999" points="1470.5,-294 1421.5,-294 1421.5,-275 1470.5,-275 1470.5,-294"/>
<text text-anchor="middle" x="1446" y="-282" font-family="Helvetica,sans-Serif" font-size="10.00">fstream</text>
</a>
</g>
</g>
<!-- Node1&#45;&gt;Node16 -->
<g id="edge65" class="edge">
<title>Node1&#45;&gt;Node16</title>
<path fill="none" stroke="#63b8ff" d="M1140.76,-335.17C1193.43,-329.06 1306.67,-314.9 1411.12,-294.21"/>
<polygon fill="#63b8ff" stroke="#63b8ff" points="1412.08,-297.59 1421.2,-292.19 1410.71,-290.72 1412.08,-297.59"/>
</g>
<!-- Node17 -->
<g id="node17" class="node">
<title>Node17</title>
<g id="a_node17"><a xlink:title=" ">
<polygon fill="#e0e0e0" stroke="#999999" points="1535,-294 1489,-294 1489,-275 1535,-275 1535,-294"/>
<text text-anchor="middle" x="1512" y="-282" font-family="Helvetica,sans-Serif" font-size="10.00">cstring</text>
</a>
</g>
</g>
<!-- Node1&#45;&gt;Node17 -->
<g id="edge66" class="edge">
<title>Node1&#45;&gt;Node17</title>
<path fill="none" stroke="#63b8ff" d="M1140.87,-336.32C1202.34,-331.53 1347.54,-318.66 1478.47,-294.05"/>
<polygon fill="#63b8ff" stroke="#63b8ff" points="1479.5,-297.41 1488.67,-292.1 1478.19,-290.54 1479.5,-297.41"/>
</g>
<!-- Node18 -->
<g id="node18" class="node">
<title>Node18</title>
<g id="a_node18"><a xlink:title=" ">
<polygon fill="#e0e0e0" stroke="#999999" points="1599,-294 1553,-294 1553,-275 1599,-275 1599,-294"/>
<text text-anchor="middle" x="1576" y="-282" font-family="Helvetica,sans-Serif" font-size="10.00">cctype</text>
</a>
</g>
</g>
<!-- Node1&#45;&gt;Node18 -->
<g id="edge67" class="edge">
<title>Node1&#45;&gt;Node18</title>
<path fill="none" stroke="#63b8ff" d="M1140.63,-337.06C1209.55,-333.38 1386.04,-321.99 1542.41,-294.02"/>
<polygon fill="#63b8ff" stroke="#63b8ff" points="1543.46,-297.38 1552.68,-292.15 1542.21,-290.49 1543.46,-297.38"/>
</g>
<!-- Node19 -->
<g id="node19" class="node">
<title>Node19</title>
<g id="a_node19"><a xlink:title=" ">
<polygon fill="#e0e0e0" stroke="#999999" points="1665,-294 1617,-294 1617,-275 1665,-275 1665,-294"/>
<text text-anchor="middle" x="1641" y="-282" font-family="Helvetica,sans-Serif" font-size="10.00">stdlib.h</text>
</a>
</g>
</g>
<!-- Node1&#45;&gt;Node19 -->
<g id="edge68" class="edge">
<title>Node1&#45;&gt;Node19</title>
<path fill="none" stroke="#63b8ff" d="M1140.63,-337.53C1216.61,-334.68 1424.65,-324.65 1606.91,-293.9"/>
<polygon fill="#63b8ff" stroke="#63b8ff" points="1607.68,-297.32 1616.95,-292.18 1606.5,-290.42 1607.68,-297.32"/>
</g>
<!-- Node2&#45;&gt;Node3 -->
<g id="edge2" class="edge">
<title>Node2&#45;&gt;Node3</title>
<path fill="none" stroke="#63b8ff" d="M636.33,-60.02C559.21,-50.67 347.51,-24.99 263.26,-14.78"/>
<polygon fill="#63b8ff" stroke="#63b8ff" points="263.52,-11.28 253.17,-13.55 262.68,-18.23 263.52,-11.28"/>
</g>
<!-- Node2&#45;&gt;Node4 -->
<g id="edge3" class="edge">
<title>Node2&#45;&gt;Node4</title>
<path fill="none" stroke="#63b8ff" d="M693.77,-61.1C770.91,-54.62 988.84,-36.15 1170,-19 1185.27,-17.56 1202.08,-15.87 1216.63,-14.39"/>
<polygon fill="#63b8ff" stroke="#63b8ff" points="1217.18,-17.85 1226.77,-13.35 1216.47,-10.88 1217.18,-17.85"/>
</g>
<!-- Node2&#45;&gt;Node5 -->
<g id="edge4" class="edge">
<title>Node2&#45;&gt;Node5</title>
<path fill="none" stroke="#63b8ff" d="M693.64,-60.3C777.69,-50.93 1023.13,-23.54 1109.5,-13.9"/>
<polygon fill="#63b8ff" stroke="#63b8ff" points="1109.91,-17.38 1119.46,-12.79 1109.13,-10.42 1109.91,-17.38"/>
</g>
<!-- Node2&#45;&gt;Node6 -->
<g id="edge5" class="edge">
<title>Node2&#45;&gt;Node6</title>
<path fill="none" stroke="#63b8ff" d="M643.63,-54.98C620.78,-45.88 584.48,-31.41 559.51,-21.46"/>
<polygon fill="#63b8ff" stroke="#63b8ff" points="560.49,-18.09 549.9,-17.63 557.9,-24.59 560.49,-18.09"/>
</g>
<!-- Node2&#45;&gt;Node7 -->
<g id="edge6" class="edge">
<title>Node2&#45;&gt;Node7</title>
<path fill="none" stroke="#63b8ff" d="M636.37,-58.18C582.53,-48.16 466.63,-26.61 411.02,-16.27"/>
<polygon fill="#63b8ff" stroke="#63b8ff" points="411.52,-12.8 401.05,-14.41 410.24,-19.68 411.52,-12.8"/>
</g>
<!-- Node2&#45;&gt;Node8 -->
<g id="edge7" class="edge">
<title>Node2&#45;&gt;Node8</title>
<path fill="none" stroke="#63b8ff" d="M693.62,-56.24C734.91,-45.77 810.47,-26.61 849.39,-16.74"/>
<polygon fill="#63b8ff" stroke="#63b8ff" points="850.5,-20.07 859.34,-14.22 848.78,-13.28 850.5,-20.07"/>
</g>
<!-- Node9&#45;&gt;Node2 -->
<g id="edge9" class="edge">
<title>Node9&#45;&gt;Node2</title>
<path fill="none" stroke="#63b8ff" d="M660.83,-109.75C661.48,-102.8 662.42,-92.85 663.24,-84.13"/>
<polygon fill="#63b8ff" stroke="#63b8ff" points="666.73,-84.37 664.19,-74.09 659.77,-83.72 666.73,-84.37"/>
</g>
<!-- Node9&#45;&gt;Node3 -->
<g id="edge10" class="edge">
<title>Node9&#45;&gt;Node3</title>
<path fill="none" stroke="#63b8ff" d="M626.46,-110.12C546.33,-90.08 344.37,-39.59 262.89,-19.22"/>
<polygon fill="#63b8ff" stroke="#63b8ff" points="263.67,-15.81 253.11,-16.78 261.97,-22.6 263.67,-15.81"/>
</g>
<!-- Node9&#45;&gt;Node4 -->
<g id="edge11" class="edge">
<title>Node9&#45;&gt;Node4</title>
<path fill="none" stroke="#63b8ff" d="M693.7,-112.5C741.42,-103.99 831.39,-87.9 908,-74 1020.42,-53.6 1153.32,-29.1 1216.72,-17.39"/>
<polygon fill="#63b8ff" stroke="#63b8ff" points="1217.45,-20.82 1226.65,-15.56 1216.18,-13.93 1217.45,-20.82"/>
</g>
<!-- Node9&#45;&gt;Node5 -->
<g id="edge12" class="edge">
<title>Node9&#45;&gt;Node5</title>
<path fill="none" stroke="#63b8ff" d="M693.54,-110.65C745.45,-98.54 848.44,-74.62 936,-55 997.53,-41.21 1069.63,-25.61 1109.53,-17.03"/>
<polygon fill="#63b8ff" stroke="#63b8ff" points="1110.38,-20.43 1119.42,-14.91 1108.91,-13.59 1110.38,-20.43"/>
</g>
<!-- Node9&#45;&gt;Node6 -->
<g id="edge13" class="edge">
<title>Node9&#45;&gt;Node6</title>
<path fill="none" stroke="#63b8ff" d="M649.53,-109.66C627.76,-91.3 577.41,-48.81 550.21,-25.87"/>
<polygon fill="#63b8ff" stroke="#63b8ff" points="552.16,-22.93 542.26,-19.16 547.65,-28.28 552.16,-22.93"/>
</g>
<!-- Node9&#45;&gt;Node7 -->
<g id="edge14" class="edge">
<title>Node9&#45;&gt;Node7</title>
<path fill="none" stroke="#63b8ff" d="M640.48,-109.89C611.7,-97.31 556.08,-73.38 508,-55 475.21,-42.47 437.17,-29.43 411.13,-20.73"/>
<polygon fill="#63b8ff" stroke="#63b8ff" points="412.03,-17.34 401.43,-17.51 409.82,-23.98 412.03,-17.34"/>
</g>
<!-- Node9&#45;&gt;Node8 -->
<g id="edge15" class="edge">
<title>Node9&#45;&gt;Node8</title>
<path fill="none" stroke="#63b8ff" d="M676.81,-109.8C700.62,-97.49 745.54,-74.35 784,-55 806.33,-43.76 831.89,-31.15 850.05,-22.23"/>
<polygon fill="#63b8ff" stroke="#63b8ff" points="851.88,-25.23 859.32,-17.68 848.8,-18.94 851.88,-25.23"/>
</g>
<!-- Node10&#45;&gt;Node2 -->
<g id="edge17" class="edge">
<title>Node10&#45;&gt;Node2</title>
<path fill="none" stroke="#63b8ff" d="M707.92,-164.91C708.92,-152.34 709.5,-128.44 702,-110 697.72,-99.47 690,-89.56 682.72,-81.78"/>
<polygon fill="#63b8ff" stroke="#63b8ff" points="684.71,-78.83 675.17,-74.24 679.77,-83.78 684.71,-78.83"/>
</g>
<!-- Node10&#45;&gt;Node3 -->
<g id="edge19" class="edge">
<title>Node10&#45;&gt;Node3</title>
<path fill="none" stroke="#63b8ff" d="M676.39,-164.97C645.96,-156.37 598.04,-142.47 557,-129 447.12,-92.95 318.61,-44.94 260.03,-22.73"/>
<polygon fill="#63b8ff" stroke="#63b8ff" points="261.17,-19.42 250.58,-19.14 258.69,-25.96 261.17,-19.42"/>
</g>
<!-- Node10&#45;&gt;Node4 -->
<g id="edge20" class="edge">
<title>Node10&#45;&gt;Node4</title>
<path fill="none" stroke="#63b8ff" d="M737.94,-165C769.83,-156.18 820.97,-141.9 865,-129 994.79,-90.96 1148.18,-43.49 1217.15,-22.01"/>
<polygon fill="#63b8ff" stroke="#63b8ff" points="1218.2,-25.35 1226.71,-19.03 1216.12,-18.67 1218.2,-25.35"/>
</g>
<!-- Node10&#45;&gt;Node5 -->
<g id="edge21" class="edge">
<title>Node10&#45;&gt;Node5</title>
<path fill="none" stroke="#63b8ff" d="M729.67,-164.97C802.08,-137.71 1027.85,-52.72 1109.85,-21.85"/>
<polygon fill="#63b8ff" stroke="#63b8ff" points="1111.21,-25.08 1119.34,-18.28 1108.75,-18.52 1111.21,-25.08"/>
</g>
<!-- Node10&#45;&gt;Node6 -->
<g id="edge22" class="edge">
<title>Node10&#45;&gt;Node6</title>
<path fill="none" stroke="#63b8ff" d="M681.78,-164.88C662.58,-157.46 636.27,-145.36 617,-129 582.39,-99.62 554.57,-53.27 541,-28.13"/>
<polygon fill="#63b8ff" stroke="#63b8ff" points="543.97,-26.27 536.22,-19.04 537.78,-29.52 543.97,-26.27"/>
</g>
<!-- Node10&#45;&gt;Node7 -->
<g id="edge23" class="edge">
<title>Node10&#45;&gt;Node7</title>
<path fill="none" stroke="#63b8ff" d="M683.03,-164.97C660.1,-156.58 624.71,-143.02 595,-129 523.05,-95.04 441.7,-47.6 402.93,-24.39"/>
<polygon fill="#63b8ff" stroke="#63b8ff" points="404.39,-21.19 394.02,-19.04 400.79,-27.19 404.39,-21.19"/>
</g>
<!-- Node10&#45;&gt;Node8 -->
<g id="edge24" class="edge">
<title>Node10&#45;&gt;Node8</title>
<path fill="none" stroke="#63b8ff" d="M715.98,-164.74C742.82,-138.53 822.76,-60.51 857.53,-26.57"/>
<polygon fill="#63b8ff" stroke="#63b8ff" points="860.27,-28.8 864.98,-19.31 855.38,-23.79 860.27,-28.8"/>
</g>
<!-- Node10&#45;&gt;Node9 -->
<g id="edge18" class="edge">
<title>Node10&#45;&gt;Node9</title>
<path fill="none" stroke="#63b8ff" d="M699.24,-164.75C692.53,-157.18 682.66,-146.05 674.49,-136.84"/>
<polygon fill="#63b8ff" stroke="#63b8ff" points="676.87,-134.25 667.62,-129.09 671.63,-138.89 676.87,-134.25"/>
</g>
<!-- Node11&#45;&gt;Node2 -->
<g id="edge26" class="edge">
<title>Node11&#45;&gt;Node2</title>
<path fill="none" stroke="#63b8ff" d="M836.34,-219.95C816.18,-200.15 764.39,-149.79 719,-110 707.58,-99.99 694.44,-89.15 683.98,-80.67"/>
<polygon fill="#63b8ff" stroke="#63b8ff" points="685.9,-77.72 675.92,-74.17 681.51,-83.17 685.9,-77.72"/>
</g>
<!-- Node11&#45;&gt;Node3 -->
<g id="edge29" class="edge">
<title>Node11&#45;&gt;Node3</title>
<path fill="none" stroke="#63b8ff" d="M809.73,-224.03C763.63,-217.67 680.67,-204.47 612,-184 489.01,-147.33 460.9,-129.13 345,-74 311.8,-58.21 274.68,-37.52 251.33,-24.12"/>
<polygon fill="#63b8ff" stroke="#63b8ff" points="252.93,-21 242.52,-19.03 249.43,-27.06 252.93,-21"/>
</g>
<!-- Node11&#45;&gt;Node4 -->
<g id="edge30" class="edge">
<title>Node11&#45;&gt;Node4</title>
<path fill="none" stroke="#63b8ff" d="M880.26,-227.84C952.69,-224.8 1120.63,-208.97 1230,-129 1253.98,-111.46 1259.15,-102.36 1268,-74 1272.72,-58.86 1268.05,-41.22 1262.87,-28.38"/>
<polygon fill="#63b8ff" stroke="#63b8ff" points="1266.06,-26.94 1258.77,-19.25 1259.67,-29.81 1266.06,-26.94"/>
</g>
<!-- Node11&#45;&gt;Node5 -->
<g id="edge31" class="edge">
<title>Node11&#45;&gt;Node5</title>
<path fill="none" stroke="#63b8ff" d="M880.4,-222.63C935.58,-212.02 1043.29,-185.32 1116,-129 1139.49,-110.81 1145.15,-102.36 1154,-74 1158.72,-58.86 1154.05,-41.22 1148.87,-28.38"/>
<polygon fill="#63b8ff" stroke="#63b8ff" points="1152.06,-26.94 1144.77,-19.25 1145.67,-29.81 1152.06,-26.94"/>
</g>
<!-- Node11&#45;&gt;Node6 -->
<g id="edge32" class="edge">
<title>Node11&#45;&gt;Node6</title>
<path fill="none" stroke="#63b8ff" d="M840.71,-219.89C825.93,-191.19 774,-98.12 702,-55 656.69,-27.87 594.94,-17.08 559.69,-12.94"/>
<polygon fill="#63b8ff" stroke="#63b8ff" points="559.96,-9.45 549.64,-11.86 559.21,-16.41 559.96,-9.45"/>
</g>
<!-- Node11&#45;&gt;Node7 -->
<g id="edge33" class="edge">
<title>Node11&#45;&gt;Node7</title>
<path fill="none" stroke="#63b8ff" d="M809.91,-222.4C772.91,-215.39 713.25,-202.42 664,-184 565.32,-147.09 540.97,-133.48 454,-74 432.97,-59.62 411.1,-40.21 396.64,-26.65"/>
<polygon fill="#63b8ff" stroke="#63b8ff" points="398.7,-23.78 389.04,-19.42 393.88,-28.85 398.7,-23.78"/>
</g>
<!-- Node11&#45;&gt;Node8 -->
<g id="edge34" class="edge">
<title>Node11&#45;&gt;Node8</title>
<path fill="none" stroke="#63b8ff" d="M857.75,-219.74C869.08,-211.5 885.58,-198.3 897,-184 914.25,-162.41 919.36,-155.82 926,-129 935.48,-90.69 907.46,-49.15 888.94,-26.86"/>
<polygon fill="#63b8ff" stroke="#63b8ff" points="891.38,-24.32 882.18,-19.05 886.08,-28.9 891.38,-24.32"/>
</g>
<!-- Node11&#45;&gt;Node9 -->
<g id="edge27" class="edge">
<title>Node11&#45;&gt;Node9</title>
<path fill="none" stroke="#63b8ff" d="M832.88,-219.79C814.95,-207.08 780.14,-183 749,-165 729.06,-153.48 705.75,-141.89 687.99,-133.43"/>
<polygon fill="#63b8ff" stroke="#63b8ff" points="689.29,-130.17 678.75,-129.07 686.3,-136.5 689.29,-130.17"/>
</g>
<!-- Node11&#45;&gt;Node10 -->
<g id="edge28" class="edge">
<title>Node11&#45;&gt;Node10</title>
<path fill="none" stroke="#63b8ff" d="M822.83,-219.98C800.23,-211.3 764.94,-197.75 739.25,-187.88"/>
<polygon fill="#63b8ff" stroke="#63b8ff" points="740.17,-184.49 729.58,-184.17 737.66,-191.02 740.17,-184.49"/>
</g>
<!-- Node12&#45;&gt;Node2 -->
<g id="edge36" class="edge">
<title>Node12&#45;&gt;Node2</title>
<path fill="none" stroke="#63b8ff" d="M491.49,-219.81C505.09,-198.82 542.24,-144.54 584,-110 599.46,-97.21 619.14,-86.3 635.23,-78.48"/>
<polygon fill="#63b8ff" stroke="#63b8ff" points="637.16,-81.44 644.72,-74.02 634.18,-75.11 637.16,-81.44"/>
</g>
<!-- Node12&#45;&gt;Node3 -->
<g id="edge39" class="edge">
<title>Node12&#45;&gt;Node3</title>
<path fill="none" stroke="#63b8ff" d="M461.36,-224.3C431.13,-218.42 378.97,-205.94 339,-184 306.12,-165.96 298.59,-158.16 275,-129 257.49,-107.35 255.34,-99.85 245,-74 239.17,-59.41 234.69,-42.15 231.8,-29.31"/>
<polygon fill="#63b8ff" stroke="#63b8ff" points="235.18,-28.39 229.67,-19.34 228.34,-29.85 235.18,-28.39"/>
</g>
<!-- Node12&#45;&gt;Node4 -->
<g id="edge40" class="edge">
<title>Node12&#45;&gt;Node4</title>
<path fill="none" stroke="#63b8ff" d="M510.9,-227.23C566.58,-223.94 705.09,-213.27 817,-184 978.5,-141.76 1160.84,-56.29 1227.67,-23.61"/>
<polygon fill="#63b8ff" stroke="#63b8ff" points="1229.6,-26.56 1237.03,-19.01 1226.51,-20.28 1229.6,-26.56"/>
</g>
<!-- Node12&#45;&gt;Node5 -->
<g id="edge41" class="edge">
<title>Node12&#45;&gt;Node5</title>
<path fill="none" stroke="#63b8ff" d="M510.59,-227.11C561.24,-223.73 680.5,-213.11 776,-184 885.93,-150.5 906.37,-123.66 1010,-74 1045.95,-56.77 1087.3,-36.5 1113.53,-23.57"/>
<polygon fill="#63b8ff" stroke="#63b8ff" points="1115.37,-26.57 1122.8,-19 1112.28,-20.29 1115.37,-26.57"/>
</g>
<!-- Node12&#45;&gt;Node6 -->
<g id="edge42" class="edge">
<title>Node12&#45;&gt;Node6</title>
<path fill="none" stroke="#63b8ff" d="M487.8,-219.95C494.57,-187.88 518.56,-74.2 528.07,-29.12"/>
<polygon fill="#63b8ff" stroke="#63b8ff" points="531.52,-29.73 530.16,-19.22 524.67,-28.29 531.52,-29.73"/>
</g>
<!-- Node12&#45;&gt;Node7 -->
<g id="edge43" class="edge">
<title>Node12&#45;&gt;Node7</title>
<path fill="none" stroke="#63b8ff" d="M461.3,-220.99C410.94,-204.19 297.32,-158.24 252,-74 230.62,-34.26 304.26,-18.93 348.67,-13.39"/>
<polygon fill="#63b8ff" stroke="#63b8ff" points="349.19,-16.86 358.73,-12.24 348.39,-9.9 349.19,-16.86"/>
</g>
<!-- Node12&#45;&gt;Node8 -->
<g id="edge44" class="edge">
<title>Node12&#45;&gt;Node8</title>
<path fill="none" stroke="#63b8ff" d="M510.82,-226.62C568.36,-221.9 708.96,-208.17 749,-184 811.19,-146.46 851.34,-64.93 866.81,-28.6"/>
<polygon fill="#63b8ff" stroke="#63b8ff" points="870.09,-29.83 870.67,-19.25 863.62,-27.16 870.09,-29.83"/>
</g>
<!-- Node12&#45;&gt;Node9 -->
<g id="edge37" class="edge">
<title>Node12&#45;&gt;Node9</title>
<path fill="none" stroke="#63b8ff" d="M499.95,-219.84C529.85,-201.28 600.41,-157.49 637.04,-134.75"/>
<polygon fill="#63b8ff" stroke="#63b8ff" points="639.34,-137.44 645.99,-129.2 635.65,-131.5 639.34,-137.44"/>
</g>
<!-- Node12&#45;&gt;Node10 -->
<g id="edge38" class="edge">
<title>Node12&#45;&gt;Node10</title>
<path fill="none" stroke="#63b8ff" d="M510.92,-222.52C547.86,-213.66 617.68,-196.92 663.26,-185.99"/>
<polygon fill="#63b8ff" stroke="#63b8ff" points="664.26,-189.35 673.16,-183.61 662.62,-182.54 664.26,-189.35"/>
</g>
<!-- Node13&#45;&gt;Node2 -->
<g id="edge46" class="edge">
<title>Node13&#45;&gt;Node2</title>
<path fill="none" stroke="#63b8ff" d="M611.77,-274.65C605.56,-248.14 590.25,-167.66 617,-110 622.55,-98.04 632.93,-87.78 642.62,-80.14"/>
<polygon fill="#63b8ff" stroke="#63b8ff" points="644.83,-82.86 650.82,-74.12 640.68,-77.21 644.83,-82.86"/>
</g>
<!-- Node13&#45;&gt;Node3 -->
<g id="edge51" class="edge">
<title>Node13&#45;&gt;Node3</title>
<path fill="none" stroke="#63b8ff" d="M581.26,-284.45C524.26,-284.88 404.27,-280.25 314,-239 256.29,-212.63 237.35,-190.81 223,-129 214.99,-94.53 219.99,-52.93 224.14,-29.31"/>
<polygon fill="#63b8ff" stroke="#63b8ff" points="227.62,-29.75 226.05,-19.27 220.74,-28.44 227.62,-29.75"/>
</g>
<!-- Node13&#45;&gt;Node4 -->
<g id="edge52" class="edge">
<title>Node13&#45;&gt;Node4</title>
<path fill="none" stroke="#63b8ff" d="M646.8,-281.77C708.66,-277.96 846.44,-266.85 959,-239 1094.83,-205.39 1149.58,-222.15 1254,-129 1280.24,-105.59 1291.75,-88.79 1282,-55 1279.13,-45.06 1273.32,-35.2 1267.72,-27.29"/>
<polygon fill="#63b8ff" stroke="#63b8ff" points="1270.5,-25.16 1261.67,-19.3 1264.92,-29.39 1270.5,-25.16"/>
</g>
<!-- Node13&#45;&gt;Node5 -->
<g id="edge53" class="edge">
<title>Node13&#45;&gt;Node5</title>
<path fill="none" stroke="#63b8ff" d="M646.69,-281.92C702.6,-278.49 819.69,-268.19 914,-239 1020.72,-205.97 1060.3,-207.28 1140,-129 1165.09,-104.36 1177.75,-88.79 1168,-55 1165.13,-45.06 1159.32,-35.2 1153.72,-27.29"/>
<polygon fill="#63b8ff" stroke="#63b8ff" points="1156.5,-25.16 1147.67,-19.3 1150.92,-29.39 1156.5,-25.16"/>
</g>
<!-- Node13&#45;&gt;Node6 -->
<g id="edge54" class="edge">
<title>Node13&#45;&gt;Node6</title>
<path fill="none" stroke="#63b8ff" d="M581.41,-279.22C501.82,-267.86 304,-233.77 304,-175.5 304,-175.5 304,-175.5 304,-118.5 304,-30.7 443.81,-14.18 504.47,-11.15"/>
<polygon fill="#63b8ff" stroke="#63b8ff" points="504.64,-14.64 514.49,-10.73 504.35,-7.65 504.64,-14.64"/>
</g>
<!-- Node13&#45;&gt;Node7 -->
<g id="edge55" class="edge">
<title>Node13&#45;&gt;Node7</title>
<path fill="none" stroke="#63b8ff" d="M581.05,-281.39C518.04,-276.82 383.31,-264.32 345,-239 267.35,-187.68 190.45,-130.42 245,-55 268.52,-22.48 316.63,-13.32 348.6,-10.96"/>
<polygon fill="#63b8ff" stroke="#63b8ff" points="348.98,-14.45 358.77,-10.4 348.59,-7.46 348.98,-14.45"/>
</g>
<!-- Node13&#45;&gt;Node8 -->
<g id="edge56" class="edge">
<title>Node13&#45;&gt;Node8</title>
<path fill="none" stroke="#63b8ff" d="M646.88,-281.81C711.19,-277.93 850.7,-266.51 889,-239 939.07,-203.03 947.14,-171.24 940,-110 937.09,-85.05 940.18,-76.38 927,-55 919.61,-43.01 907.88,-32.68 897.33,-24.99"/>
<polygon fill="#63b8ff" stroke="#63b8ff" points="899.1,-21.95 888.87,-19.18 895.13,-27.72 899.1,-21.95"/>
</g>
<!-- Node13&#45;&gt;Node9 -->
<g id="edge47" class="edge">
<title>Node13&#45;&gt;Node9</title>
<path fill="none" stroke="#63b8ff" d="M613.98,-274.86C614.2,-254.85 616.28,-204.1 631,-165 634.73,-155.09 640.95,-145.12 646.67,-137.14"/>
<polygon fill="#63b8ff" stroke="#63b8ff" points="649.52,-139.16 652.76,-129.08 643.94,-134.94 649.52,-139.16"/>
</g>
<!-- Node13&#45;&gt;Node10 -->
<g id="edge48" class="edge">
<title>Node13&#45;&gt;Node10</title>
<path fill="none" stroke="#63b8ff" d="M621.61,-274.66C637.22,-256.54 673.06,-214.91 692.99,-191.77"/>
<polygon fill="#63b8ff" stroke="#63b8ff" points="695.67,-194.02 699.54,-184.16 690.37,-189.45 695.67,-194.02"/>
</g>
<!-- Node13&#45;&gt;Node11 -->
<g id="edge49" class="edge">
<title>Node13&#45;&gt;Node11</title>
<path fill="none" stroke="#63b8ff" d="M646.61,-276.02C686.73,-266.81 755.05,-251.14 800.11,-240.8"/>
<polygon fill="#63b8ff" stroke="#63b8ff" points="800.95,-244.2 809.91,-238.55 799.38,-237.38 800.95,-244.2"/>
</g>
<!-- Node13&#45;&gt;Node12 -->
<g id="edge50" class="edge">
<title>Node13&#45;&gt;Node12</title>
<path fill="none" stroke="#63b8ff" d="M593.43,-274.98C572.57,-266.34 540.03,-252.87 516.23,-243.02"/>
<polygon fill="#63b8ff" stroke="#63b8ff" points="517.52,-239.76 506.94,-239.17 514.84,-246.23 517.52,-239.76"/>
</g>
</g>
</svg>
