<?xml version="1.0" encoding="UTF-8" standalone="no"?>
<!DOCTYPE svg PUBLIC "-//W3C//DTD SVG 1.1//EN"
 "http://www.w3.org/Graphics/SVG/1.1/DTD/svg11.dtd">
<!-- Generated by graphviz version 4.0.0 (20220529.0937)
 -->
<!-- Title: rodada.hpp Pages: 1 -->
<svg width="99pt" height="137pt"
 viewBox="0.00 0.00 99.00 137.00" xmlns="http://www.w3.org/2000/svg" xmlns:xlink="http://www.w3.org/1999/xlink">
<g id="graph0" class="graph" transform="scale(1 1) rotate(0) translate(4 133)">
<title>rodada.hpp</title>
<!-- Node1 -->
<g id="node1" class="node">
<title>Node1</title>
<g id="a_node1"><a xlink:title="Classe com a lógica da rodada.">
<polygon fill="#999999" stroke="#666666" points="65,-129 0,-129 0,-110 65,-110 65,-129"/>
<text text-anchor="middle" x="32.5" y="-117" font-family="Helvetica,sans-Serif" font-size="10.00">rodada.hpp</text>
</a>
</g>
</g>
<!-- Node2 -->
<g id="node2" class="node">
<title>Node2</title>
<g id="a_node2"><a xlink:href="jogo_8hpp.html" target="_top" xlink:title="Classe com a lógica do jogo.">
<polygon fill="white" stroke="#666666" points="59,-19 6,-19 6,0 59,0 59,-19"/>
<text text-anchor="middle" x="32.5" y="-7" font-family="Helvetica,sans-Serif" font-size="10.00">jogo.hpp</text>
</a>
</g>
</g>
<!-- Node1&#45;&gt;Node2 -->
<g id="edge1" class="edge">
<title>Node1&#45;&gt;Node2</title>
<path fill="none" stroke="#63b8ff" d="M26.98,-100.13C23.83,-87.48 20.81,-70.27 22.5,-55 23.9,-42.41 27.45,-28.17 29.93,-19.27"/>
<polygon fill="#63b8ff" stroke="#63b8ff" points="23.64,-101.19 29.67,-109.91 30.39,-99.34 23.64,-101.19"/>
</g>
<!-- Node3 -->
<g id="node3" class="node">
<title>Node3</title>
<g id="a_node3"><a xlink:href="menu_8hpp.html" target="_top" xlink:title="Classe com a lógica do menu.">
<polygon fill="white" stroke="#666666" points="91,-74 32,-74 32,-55 91,-55 91,-74"/>
<text text-anchor="middle" x="61.5" y="-62" font-family="Helvetica,sans-Serif" font-size="10.00">menu.hpp</text>
</a>
</g>
</g>
<!-- Node1&#45;&gt;Node3 -->
<g id="edge2" class="edge">
<title>Node1&#45;&gt;Node3</title>
<path fill="none" stroke="#63b8ff" d="M42.18,-100.82C47.1,-91.82 52.86,-81.29 56.8,-74.09"/>
<polygon fill="#63b8ff" stroke="#63b8ff" points="39.02,-99.3 37.29,-109.75 45.16,-102.66 39.02,-99.3"/>
</g>
<!-- Node3&#45;&gt;Node2 -->
<g id="edge3" class="edge">
<title>Node3&#45;&gt;Node2</title>
<path fill="none" stroke="#63b8ff" d="M51.82,-45.82C46.9,-36.82 41.14,-26.29 37.2,-19.09"/>
<polygon fill="#63b8ff" stroke="#63b8ff" points="48.84,-47.66 56.71,-54.75 54.98,-44.3 48.84,-47.66"/>
</g>
</g>
</svg>
