<?xml version="1.0" encoding="UTF-8" standalone="no"?>
<!DOCTYPE svg PUBLIC "-//W3C//DTD SVG 1.1//EN"
 "http://www.w3.org/Graphics/SVG/1.1/DTD/svg11.dtd">
<!-- Generated by graphviz version 4.0.0 (20220529.0937)
 -->
<!-- Title: rodada.hpp Pages: 1 -->
<svg width="1186pt" height="302pt"
 viewBox="0.00 0.00 1186.00 302.00" xmlns="http://www.w3.org/2000/svg" xmlns:xlink="http://www.w3.org/1999/xlink">
<g id="graph0" class="graph" transform="scale(1 1) rotate(0) translate(4 298)">
<title>rodada.hpp</title>
<!-- Node1 -->
<g id="node1" class="node">
<title>Node1</title>
<g id="a_node1"><a xlink:title="Classe com a lógica da rodada.">
<polygon fill="#999999" stroke="#666666" points="641.5,-294 576.5,-294 576.5,-275 641.5,-275 641.5,-294"/>
<text text-anchor="middle" x="609" y="-282" font-family="Helvetica,sans-Serif" font-size="10.00">rodada.hpp</text>
</a>
</g>
</g>
<!-- Node2 -->
<g id="node2" class="node">
<title>Node2</title>
<g id="a_node2"><a xlink:href="carta_8hpp.html" target="_top" xlink:title="Classe com a lógica da carta.">
<polygon fill="white" stroke="#666666" points="541.5,-74 484.5,-74 484.5,-55 541.5,-55 541.5,-74"/>
<text text-anchor="middle" x="513" y="-62" font-family="Helvetica,sans-Serif" font-size="10.00">carta.hpp</text>
</a>
</g>
</g>
<!-- Node1&#45;&gt;Node2 -->
<g id="edge1" class="edge">
<title>Node1&#45;&gt;Node2</title>
<path fill="none" stroke="#63b8ff" d="M576.33,-278.79C551.89,-273.47 519.75,-262.27 502,-239 467.16,-193.33 482.49,-166.28 494,-110 495.89,-100.74 499.79,-91.03 503.57,-83.04"/>
<polygon fill="#63b8ff" stroke="#63b8ff" points="506.74,-84.53 508.12,-74.02 500.49,-81.37 506.74,-84.53"/>
</g>
<!-- Node3 -->
<g id="node3" class="node">
<title>Node3</title>
<g id="a_node3"><a xlink:title=" ">
<polygon fill="#e0e0e0" stroke="#999999" points="139,-19 89,-19 89,0 139,0 139,-19"/>
<text text-anchor="middle" x="114" y="-7" font-family="Helvetica,sans-Serif" font-size="10.00">iomanip</text>
</a>
</g>
</g>
<!-- Node1&#45;&gt;Node3 -->
<g id="edge45" class="edge">
<title>Node1&#45;&gt;Node3</title>
<path fill="none" stroke="#63b8ff" d="M576.26,-281.2C449.76,-271.87 0,-234.56 0,-175.5 0,-175.5 0,-175.5 0,-118.5 0,-72.47 49.58,-40.18 83.35,-23.53"/>
<polygon fill="#63b8ff" stroke="#63b8ff" points="85.28,-26.49 92.82,-19.05 82.29,-20.16 85.28,-26.49"/>
</g>
<!-- Node4 -->
<g id="node4" class="node">
<title>Node4</title>
<g id="a_node4"><a xlink:title=" ">
<polygon fill="#e0e0e0" stroke="#999999" points="730,-19 676,-19 676,0 730,0 730,-19"/>
<text text-anchor="middle" x="703" y="-7" font-family="Helvetica,sans-Serif" font-size="10.00">iostream</text>
</a>
</g>
</g>
<!-- Node1&#45;&gt;Node4 -->
<g id="edge46" class="edge">
<title>Node1&#45;&gt;Node4</title>
<path fill="none" stroke="#63b8ff" d="M641.66,-283.67C702.1,-281.91 828.92,-267.96 869,-184 895.29,-128.93 871.99,-89.99 822,-55 797.23,-37.66 764.85,-26.13 740.13,-19.16"/>
<polygon fill="#63b8ff" stroke="#63b8ff" points="740.95,-15.75 730.38,-16.53 739.13,-22.51 740.95,-15.75"/>
</g>
<!-- Node5 -->
<g id="node5" class="node">
<title>Node5</title>
<g id="a_node5"><a xlink:title=" ">
<polygon fill="#e0e0e0" stroke="#999999" points="313.5,-19 272.5,-19 272.5,0 313.5,0 313.5,-19"/>
<text text-anchor="middle" x="293" y="-7" font-family="Helvetica,sans-Serif" font-size="10.00">string</text>
</a>
</g>
</g>
<!-- Node1&#45;&gt;Node5 -->
<g id="edge47" class="edge">
<title>Node1&#45;&gt;Node5</title>
<path fill="none" stroke="#63b8ff" d="M576.45,-277.22C499.82,-260.42 309.43,-206.38 242,-74 232.49,-55.33 251.07,-37 268.42,-24.87"/>
<polygon fill="#63b8ff" stroke="#63b8ff" points="270.76,-27.52 277.22,-19.12 266.93,-21.66 270.76,-27.52"/>
</g>
<!-- Node6 -->
<g id="node6" class="node">
<title>Node6</title>
<g id="a_node6"><a xlink:title=" ">
<polygon fill="#e0e0e0" stroke="#999999" points="1062.5,-19 1027.5,-19 1027.5,0 1062.5,0 1062.5,-19"/>
<text text-anchor="middle" x="1045" y="-7" font-family="Helvetica,sans-Serif" font-size="10.00">map</text>
</a>
</g>
</g>
<!-- Node1&#45;&gt;Node6 -->
<g id="edge48" class="edge">
<title>Node1&#45;&gt;Node6</title>
<path fill="none" stroke="#63b8ff" d="M641.5,-282.99C711.67,-281.24 882.14,-273.47 1020,-239 1093.42,-220.64 1178,-251.18 1178,-175.5 1178,-175.5 1178,-175.5 1178,-118.5 1178,-64.57 1111.29,-32.86 1072.36,-18.95"/>
<polygon fill="#63b8ff" stroke="#63b8ff" points="1073.26,-15.55 1062.66,-15.64 1071,-22.18 1073.26,-15.55"/>
</g>
<!-- Node7 -->
<g id="node7" class="node">
<title>Node7</title>
<g id="a_node7"><a xlink:title=" ">
<polygon fill="#e0e0e0" stroke="#999999" points="467,-19 425,-19 425,0 467,0 467,-19"/>
<text text-anchor="middle" x="446" y="-7" font-family="Helvetica,sans-Serif" font-size="10.00">vector</text>
</a>
</g>
</g>
<!-- Node1&#45;&gt;Node7 -->
<g id="edge49" class="edge">
<title>Node1&#45;&gt;Node7</title>
<path fill="none" stroke="#63b8ff" d="M576.48,-280.32C548.48,-275.82 509.04,-265.01 486,-239 432.42,-178.53 438.25,-72.52 443.28,-29.47"/>
<polygon fill="#63b8ff" stroke="#63b8ff" points="446.79,-29.67 444.6,-19.3 439.84,-28.77 446.79,-29.67"/>
</g>
<!-- Node8 -->
<g id="node8" class="node">
<title>Node8</title>
<g id="a_node8"><a xlink:title=" ">
<polygon fill="#e0e0e0" stroke="#999999" points="945.5,-19 916.5,-19 916.5,0 945.5,0 945.5,-19"/>
<text text-anchor="middle" x="931" y="-7" font-family="Helvetica,sans-Serif" font-size="10.00">list</text>
</a>
</g>
</g>
<!-- Node1&#45;&gt;Node8 -->
<g id="edge50" class="edge">
<title>Node1&#45;&gt;Node8</title>
<path fill="none" stroke="#63b8ff" d="M641.72,-282.75C746.05,-279.47 1064,-262.37 1064,-175.5 1064,-175.5 1064,-175.5 1064,-118.5 1064,-63.31 994.13,-31.39 955.67,-18"/>
<polygon fill="#63b8ff" stroke="#63b8ff" points="956.33,-14.53 945.74,-14.71 954.13,-21.17 956.33,-14.53"/>
</g>
<!-- Node9 -->
<g id="node9" class="node">
<title>Node9</title>
<g id="a_node9"><a xlink:href="baralho_8hpp.html" target="_top" xlink:title="Classe com a lógica do baralho.">
<polygon fill="white" stroke="#666666" points="655.5,-129 588.5,-129 588.5,-110 655.5,-110 655.5,-129"/>
<text text-anchor="middle" x="622" y="-117" font-family="Helvetica,sans-Serif" font-size="10.00">baralho.hpp</text>
</a>
</g>
</g>
<!-- Node1&#45;&gt;Node9 -->
<g id="edge8" class="edge">
<title>Node1&#45;&gt;Node9</title>
<path fill="none" stroke="#63b8ff" d="M609.7,-274.74C611.73,-249.31 617.65,-175.08 620.47,-139.69"/>
<polygon fill="#63b8ff" stroke="#63b8ff" points="623.99,-139.55 621.3,-129.31 617.01,-139 623.99,-139.55"/>
</g>
<!-- Node10 -->
<g id="node10" class="node">
<title>Node10</title>
<g id="a_node10"><a xlink:href="jogador_8hpp.html" target="_top" xlink:title="Classe com a lógica do jogador.">
<polygon fill="white" stroke="#666666" points="579.5,-184 512.5,-184 512.5,-165 579.5,-165 579.5,-184"/>
<text text-anchor="middle" x="546" y="-172" font-family="Helvetica,sans-Serif" font-size="10.00">jogador.hpp</text>
</a>
</g>
</g>
<!-- Node1&#45;&gt;Node10 -->
<g id="edge16" class="edge">
<title>Node1&#45;&gt;Node10</title>
<path fill="none" stroke="#63b8ff" d="M607.76,-274.74C605.67,-261.97 600.56,-237.82 590,-220 583.47,-208.98 573.62,-198.67 564.89,-190.76"/>
<polygon fill="#63b8ff" stroke="#63b8ff" points="567.18,-188.11 557.32,-184.21 562.6,-193.4 567.18,-188.11"/>
</g>
<!-- Node11 -->
<g id="node11" class="node">
<title>Node11</title>
<g id="a_node11"><a xlink:href="humano_8hpp.html" target="_top" xlink:title="Classe com a lógica do humano.">
<polygon fill="white" stroke="#666666" points="581,-239 511,-239 511,-220 581,-220 581,-239"/>
<text text-anchor="middle" x="546" y="-227" font-family="Helvetica,sans-Serif" font-size="10.00">humano.hpp</text>
</a>
</g>
</g>
<!-- Node1&#45;&gt;Node11 -->
<g id="edge25" class="edge">
<title>Node1&#45;&gt;Node11</title>
<path fill="none" stroke="#63b8ff" d="M598.88,-274.98C589.56,-267.15 575.53,-255.34 564.26,-245.86"/>
<polygon fill="#63b8ff" stroke="#63b8ff" points="566.21,-242.93 556.31,-239.17 561.71,-248.29 566.21,-242.93"/>
</g>
<!-- Node12 -->
<g id="node12" class="node">
<title>Node12</title>
<g id="a_node12"><a xlink:href="bot_8hpp.html" target="_top" xlink:title="Classe com a lógica do bot.">
<polygon fill="white" stroke="#666666" points="792.5,-239 743.5,-239 743.5,-220 792.5,-220 792.5,-239"/>
<text text-anchor="middle" x="768" y="-227" font-family="Helvetica,sans-Serif" font-size="10.00">bot.hpp</text>
</a>
</g>
</g>
<!-- Node1&#45;&gt;Node12 -->
<g id="edge35" class="edge">
<title>Node1&#45;&gt;Node12</title>
<path fill="none" stroke="#63b8ff" d="M634.55,-274.98C661.44,-266.02 703.93,-251.86 733.73,-241.92"/>
<polygon fill="#63b8ff" stroke="#63b8ff" points="734.92,-245.22 743.3,-238.73 732.71,-238.57 734.92,-245.22"/>
</g>
<!-- Node2&#45;&gt;Node3 -->
<g id="edge2" class="edge">
<title>Node2&#45;&gt;Node3</title>
<path fill="none" stroke="#63b8ff" d="M484.3,-59.69C412.88,-50.2 227.3,-25.55 149.32,-15.19"/>
<polygon fill="#63b8ff" stroke="#63b8ff" points="149.43,-11.68 139.06,-13.83 148.51,-18.61 149.43,-11.68"/>
</g>
<!-- Node2&#45;&gt;Node4 -->
<g id="edge3" class="edge">
<title>Node2&#45;&gt;Node4</title>
<path fill="none" stroke="#63b8ff" d="M541.86,-55.45C575.07,-46.19 629.69,-30.95 666,-20.82"/>
<polygon fill="#63b8ff" stroke="#63b8ff" points="667.03,-24.17 675.72,-18.11 665.15,-17.42 667.03,-24.17"/>
</g>
<!-- Node2&#45;&gt;Node5 -->
<g id="edge4" class="edge">
<title>Node2&#45;&gt;Node5</title>
<path fill="none" stroke="#63b8ff" d="M484.24,-56.57C442.6,-46.54 365.86,-28.05 323.35,-17.81"/>
<polygon fill="#63b8ff" stroke="#63b8ff" points="324.11,-14.4 313.57,-15.46 322.47,-21.2 324.11,-14.4"/>
</g>
<!-- Node2&#45;&gt;Node6 -->
<g id="edge5" class="edge">
<title>Node2&#45;&gt;Node6</title>
<path fill="none" stroke="#63b8ff" d="M541.6,-60.65C634.31,-51.41 925.77,-22.38 1017.25,-13.26"/>
<polygon fill="#63b8ff" stroke="#63b8ff" points="1017.78,-16.73 1027.38,-12.25 1017.09,-9.76 1017.78,-16.73"/>
</g>
<!-- Node2&#45;&gt;Node7 -->
<g id="edge6" class="edge">
<title>Node2&#45;&gt;Node7</title>
<path fill="none" stroke="#63b8ff" d="M502.24,-54.98C492.23,-47.07 477.11,-35.11 465.07,-25.58"/>
<polygon fill="#63b8ff" stroke="#63b8ff" points="466.97,-22.63 456.96,-19.17 462.63,-28.12 466.97,-22.63"/>
</g>
<!-- Node2&#45;&gt;Node8 -->
<g id="edge7" class="edge">
<title>Node2&#45;&gt;Node8</title>
<path fill="none" stroke="#63b8ff" d="M541.73,-59.86C619.45,-50 832.9,-22.94 906.03,-13.67"/>
<polygon fill="#63b8ff" stroke="#63b8ff" points="906.67,-17.11 916.15,-12.38 905.79,-10.17 906.67,-17.11"/>
</g>
<!-- Node9&#45;&gt;Node2 -->
<g id="edge9" class="edge">
<title>Node9&#45;&gt;Node2</title>
<path fill="none" stroke="#63b8ff" d="M604.49,-109.98C587.03,-101.5 559.99,-88.35 539.83,-78.54"/>
<polygon fill="#63b8ff" stroke="#63b8ff" points="541.36,-75.4 530.83,-74.17 538.29,-81.69 541.36,-75.4"/>
</g>
<!-- Node9&#45;&gt;Node3 -->
<g id="edge10" class="edge">
<title>Node9&#45;&gt;Node3</title>
<path fill="none" stroke="#63b8ff" d="M588.28,-111.33C496.43,-91.8 242.5,-37.82 149.08,-17.96"/>
<polygon fill="#63b8ff" stroke="#63b8ff" points="149.78,-14.53 139.27,-15.87 148.32,-21.37 149.78,-14.53"/>
</g>
<!-- Node9&#45;&gt;Node4 -->
<g id="edge11" class="edge">
<title>Node9&#45;&gt;Node4</title>
<path fill="none" stroke="#63b8ff" d="M628.63,-109.66C642.1,-91.69 672.89,-50.64 690.34,-27.38"/>
<polygon fill="#63b8ff" stroke="#63b8ff" points="693.31,-29.26 696.51,-19.16 687.71,-25.06 693.31,-29.26"/>
</g>
<!-- Node9&#45;&gt;Node5 -->
<g id="edge12" class="edge">
<title>Node9&#45;&gt;Node5</title>
<path fill="none" stroke="#63b8ff" d="M589.8,-109.97C559.76,-101.73 513.88,-88.41 475,-74 455.41,-66.74 451.53,-62.42 432,-55 395.29,-41.06 352.09,-27.69 323.71,-19.31"/>
<polygon fill="#63b8ff" stroke="#63b8ff" points="324.54,-15.91 313.96,-16.45 322.57,-22.62 324.54,-15.91"/>
</g>
<!-- Node9&#45;&gt;Node6 -->
<g id="edge13" class="edge">
<title>Node9&#45;&gt;Node6</title>
<path fill="none" stroke="#63b8ff" d="M655.55,-109.94C736.75,-89.2 942.7,-36.62 1017.4,-17.55"/>
<polygon fill="#63b8ff" stroke="#63b8ff" points="1018.61,-20.85 1027.44,-14.98 1016.88,-14.07 1018.61,-20.85"/>
</g>
<!-- Node9&#45;&gt;Node7 -->
<g id="edge14" class="edge">
<title>Node9&#45;&gt;Node7</title>
<path fill="none" stroke="#63b8ff" d="M613.86,-109.71C601.22,-96.46 575.64,-71.2 550,-55 526.92,-40.42 498.25,-28.55 476.86,-20.75"/>
<polygon fill="#63b8ff" stroke="#63b8ff" points="477.89,-17.41 467.29,-17.36 475.55,-24 477.89,-17.41"/>
</g>
<!-- Node9&#45;&gt;Node8 -->
<g id="edge15" class="edge">
<title>Node9&#45;&gt;Node8</title>
<path fill="none" stroke="#63b8ff" d="M646.5,-109.94C704.29,-89.74 848.54,-39.32 906.41,-19.09"/>
<polygon fill="#63b8ff" stroke="#63b8ff" points="907.88,-22.29 916.17,-15.68 905.57,-15.68 907.88,-22.29"/>
</g>
<!-- Node10&#45;&gt;Node2 -->
<g id="edge17" class="edge">
<title>Node10&#45;&gt;Node2</title>
<path fill="none" stroke="#63b8ff" d="M543.3,-164.66C537.93,-147.09 525.82,-107.45 518.64,-83.95"/>
<polygon fill="#63b8ff" stroke="#63b8ff" points="521.92,-82.7 515.65,-74.16 515.22,-84.74 521.92,-82.7"/>
</g>
<!-- Node10&#45;&gt;Node3 -->
<g id="edge19" class="edge">
<title>Node10&#45;&gt;Node3</title>
<path fill="none" stroke="#63b8ff" d="M523.38,-164.97C451.73,-137.93 229.58,-54.11 146.12,-22.62"/>
<polygon fill="#63b8ff" stroke="#63b8ff" points="147.25,-19.3 136.65,-19.05 144.77,-25.85 147.25,-19.3"/>
</g>
<!-- Node10&#45;&gt;Node4 -->
<g id="edge20" class="edge">
<title>Node10&#45;&gt;Node4</title>
<path fill="none" stroke="#63b8ff" d="M549.25,-164.61C554.26,-151.66 564.82,-127.29 579,-110 608.59,-73.92 653.18,-42.1 680.05,-24.65"/>
<polygon fill="#63b8ff" stroke="#63b8ff" points="682.21,-27.42 688.76,-19.09 678.45,-21.52 682.21,-27.42"/>
</g>
<!-- Node10&#45;&gt;Node5 -->
<g id="edge21" class="edge">
<title>Node10&#45;&gt;Node5</title>
<path fill="none" stroke="#63b8ff" d="M532.75,-164.97C491.69,-138.51 366.23,-57.68 315.07,-24.72"/>
<polygon fill="#63b8ff" stroke="#63b8ff" points="316.72,-21.62 306.42,-19.15 312.93,-27.5 316.72,-21.62"/>
</g>
<!-- Node10&#45;&gt;Node6 -->
<g id="edge22" class="edge">
<title>Node10&#45;&gt;Node6</title>
<path fill="none" stroke="#63b8ff" d="M577.11,-165C608.31,-156.36 657.67,-142.38 700,-129 819.06,-91.38 959.37,-41.42 1017.57,-20.44"/>
<polygon fill="#63b8ff" stroke="#63b8ff" points="1018.93,-23.67 1027.15,-16.98 1016.55,-17.09 1018.93,-23.67"/>
</g>
<!-- Node10&#45;&gt;Node7 -->
<g id="edge23" class="edge">
<title>Node10&#45;&gt;Node7</title>
<path fill="none" stroke="#63b8ff" d="M538.94,-164.83C525.44,-148.01 495.5,-109.46 475,-74 466.57,-59.41 458.74,-41.93 453.35,-29.01"/>
<polygon fill="#63b8ff" stroke="#63b8ff" points="456.44,-27.33 449.43,-19.39 449.96,-29.97 456.44,-27.33"/>
</g>
<!-- Node10&#45;&gt;Node8 -->
<g id="edge24" class="edge">
<title>Node10&#45;&gt;Node8</title>
<path fill="none" stroke="#63b8ff" d="M569.64,-164.97C593.55,-156.24 631.53,-142.15 664,-129 754.87,-92.21 860.76,-43.41 907.16,-21.72"/>
<polygon fill="#63b8ff" stroke="#63b8ff" points="908.81,-24.81 916.38,-17.4 905.84,-18.47 908.81,-24.81"/>
</g>
<!-- Node10&#45;&gt;Node9 -->
<g id="edge18" class="edge">
<title>Node10&#45;&gt;Node9</title>
<path fill="none" stroke="#63b8ff" d="M558.21,-164.98C569.78,-156.92 587.38,-144.65 601.16,-135.03"/>
<polygon fill="#63b8ff" stroke="#63b8ff" points="603.37,-137.76 609.57,-129.17 599.36,-132.02 603.37,-137.76"/>
</g>
<!-- Node11&#45;&gt;Node2 -->
<g id="edge26" class="edge">
<title>Node11&#45;&gt;Node2</title>
<path fill="none" stroke="#63b8ff" d="M533.51,-219.93C523.13,-211.99 509.12,-199.14 503,-184 489.51,-150.64 499.03,-107.77 506.47,-83.81"/>
<polygon fill="#63b8ff" stroke="#63b8ff" points="509.82,-84.82 509.66,-74.23 503.18,-82.62 509.82,-84.82"/>
</g>
<!-- Node11&#45;&gt;Node3 -->
<g id="edge29" class="edge">
<title>Node11&#45;&gt;Node3</title>
<path fill="none" stroke="#63b8ff" d="M510.79,-226.52C430.59,-221.65 236.63,-207.73 176,-184 110.44,-158.34 82.96,-141.21 62,-74 59.49,-65.94 58.47,-62.67 62,-55 67.75,-42.52 78.91,-32.24 89.42,-24.71"/>
<polygon fill="#63b8ff" stroke="#63b8ff" points="91.57,-27.49 97.97,-19.05 87.7,-21.65 91.57,-27.49"/>
</g>
<!-- Node11&#45;&gt;Node4 -->
<g id="edge30" class="edge">
<title>Node11&#45;&gt;Node4</title>
<path fill="none" stroke="#63b8ff" d="M561.33,-219.99C586.78,-205.03 637.54,-171.56 664,-129 683.94,-96.92 694.81,-53.56 699.72,-29.17"/>
<polygon fill="#63b8ff" stroke="#63b8ff" points="703.19,-29.61 701.61,-19.13 696.32,-28.31 703.19,-29.61"/>
</g>
<!-- Node11&#45;&gt;Node5 -->
<g id="edge31" class="edge">
<title>Node11&#45;&gt;Node5</title>
<path fill="none" stroke="#63b8ff" d="M510.93,-225.76C449.63,-220.42 326.1,-207.1 290,-184 239.65,-151.79 230.26,-110.68 252,-55 256.4,-43.73 265.14,-33.59 273.43,-25.85"/>
<polygon fill="#63b8ff" stroke="#63b8ff" points="275.82,-28.4 281.07,-19.2 271.23,-23.12 275.82,-28.4"/>
</g>
<!-- Node11&#45;&gt;Node6 -->
<g id="edge32" class="edge">
<title>Node11&#45;&gt;Node6</title>
<path fill="none" stroke="#63b8ff" d="M571.68,-219.92C596.73,-211.38 635.8,-197.62 669,-184 802.26,-129.34 957.23,-53.97 1018.31,-23.78"/>
<polygon fill="#63b8ff" stroke="#63b8ff" points="1020.21,-26.75 1027.62,-19.17 1017.1,-20.48 1020.21,-26.75"/>
</g>
<!-- Node11&#45;&gt;Node7 -->
<g id="edge33" class="edge">
<title>Node11&#45;&gt;Node7</title>
<path fill="none" stroke="#63b8ff" d="M532.38,-219.87C520.84,-211.89 504.67,-199.01 495,-184 462.85,-134.1 451.44,-62.92 447.69,-29.37"/>
<polygon fill="#63b8ff" stroke="#63b8ff" points="451.15,-28.77 446.66,-19.17 444.18,-29.47 451.15,-28.77"/>
</g>
<!-- Node11&#45;&gt;Node8 -->
<g id="edge34" class="edge">
<title>Node11&#45;&gt;Node8</title>
<path fill="none" stroke="#63b8ff" d="M565.1,-219.9C584.05,-211.23 613.83,-197.28 639,-184 742.41,-129.43 860.8,-55.31 908.93,-24.66"/>
<polygon fill="#63b8ff" stroke="#63b8ff" points="911.05,-27.46 917.6,-19.13 907.28,-21.56 911.05,-27.46"/>
</g>
<!-- Node11&#45;&gt;Node9 -->
<g id="edge27" class="edge">
<title>Node11&#45;&gt;Node9</title>
<path fill="none" stroke="#63b8ff" d="M555.44,-219.92C564.49,-211.38 578.19,-197.62 588,-184 598.38,-169.59 607.71,-151.62 613.95,-138.48"/>
<polygon fill="#63b8ff" stroke="#63b8ff" points="617.25,-139.68 618.27,-129.14 610.9,-136.75 617.25,-139.68"/>
</g>
<!-- Node11&#45;&gt;Node10 -->
<g id="edge28" class="edge">
<title>Node11&#45;&gt;Node10</title>
<path fill="none" stroke="#63b8ff" d="M546,-219.75C546,-212.8 546,-202.85 546,-194.13"/>
<polygon fill="#63b8ff" stroke="#63b8ff" points="549.5,-194.09 546,-184.09 542.5,-194.09 549.5,-194.09"/>
</g>
<!-- Node12&#45;&gt;Node2 -->
<g id="edge36" class="edge">
<title>Node12&#45;&gt;Node2</title>
<path fill="none" stroke="#63b8ff" d="M763.27,-219.88C750.52,-197.57 713.09,-137.74 664,-110 628.62,-90.01 583.4,-78.23 551.7,-71.87"/>
<polygon fill="#63b8ff" stroke="#63b8ff" points="551.99,-68.36 541.51,-69.91 550.67,-75.23 551.99,-68.36"/>
</g>
<!-- Node12&#45;&gt;Node3 -->
<g id="edge39" class="edge">
<title>Node12&#45;&gt;Node3</title>
<path fill="none" stroke="#63b8ff" d="M743.27,-227.33C691.13,-224.33 566.55,-214.32 467,-184 358.22,-150.87 337.78,-124.7 236,-74 202.23,-57.18 163.66,-36.93 139.09,-23.89"/>
<polygon fill="#63b8ff" stroke="#63b8ff" points="140.56,-20.71 130.09,-19.11 137.28,-26.89 140.56,-20.71"/>
</g>
<!-- Node12&#45;&gt;Node4 -->
<g id="edge40" class="edge">
<title>Node12&#45;&gt;Node4</title>
<path fill="none" stroke="#63b8ff" d="M792.53,-222.55C811.9,-216.41 837.66,-204.74 850,-184 866.82,-155.74 865.42,-139.05 850,-110 826.5,-65.71 773.49,-37.53 737.98,-22.87"/>
<polygon fill="#63b8ff" stroke="#63b8ff" points="739.05,-19.53 728.46,-19.09 736.46,-26.03 739.05,-19.53"/>
</g>
<!-- Node12&#45;&gt;Node5 -->
<g id="edge41" class="edge">
<title>Node12&#45;&gt;Node5</title>
<path fill="none" stroke="#63b8ff" d="M743.38,-228.55C695.06,-227.77 585.32,-221.6 503,-184 417.74,-145.06 338.62,-62.41 307.24,-27.08"/>
<polygon fill="#63b8ff" stroke="#63b8ff" points="309.54,-24.39 300.32,-19.17 304.27,-29 309.54,-24.39"/>
</g>
<!-- Node12&#45;&gt;Node6 -->
<g id="edge42" class="edge">
<title>Node12&#45;&gt;Node6</title>
<path fill="none" stroke="#63b8ff" d="M792.97,-226.53C860.05,-219.71 1043.89,-190.68 1116,-74 1130.11,-51.17 1097.8,-31.77 1072.26,-20.62"/>
<polygon fill="#63b8ff" stroke="#63b8ff" points="1073.49,-17.35 1062.91,-16.77 1070.82,-23.82 1073.49,-17.35"/>
</g>
<!-- Node12&#45;&gt;Node7 -->
<g id="edge43" class="edge">
<title>Node12&#45;&gt;Node7</title>
<path fill="none" stroke="#63b8ff" d="M766.47,-219.72C763.94,-206.93 758.05,-182.74 747,-165 728.56,-135.39 719.53,-130.07 691,-110 622.08,-61.53 526.06,-31.42 477.21,-18.25"/>
<polygon fill="#63b8ff" stroke="#63b8ff" points="477.82,-14.79 467.25,-15.63 476.03,-21.56 477.82,-14.79"/>
</g>
<!-- Node12&#45;&gt;Node8 -->
<g id="edge44" class="edge">
<title>Node12&#45;&gt;Node8</title>
<path fill="none" stroke="#63b8ff" d="M792.87,-221.01C814.37,-213.76 845.58,-201.32 869,-184 920.94,-145.59 941.48,-134.54 964,-74 970.25,-57.19 958.96,-39.14 947.92,-26.6"/>
<polygon fill="#63b8ff" stroke="#63b8ff" points="950.32,-24.05 940.89,-19.22 945.25,-28.88 950.32,-24.05"/>
</g>
<!-- Node12&#45;&gt;Node9 -->
<g id="edge37" class="edge">
<title>Node12&#45;&gt;Node9</title>
<path fill="none" stroke="#63b8ff" d="M759.45,-219.65C746.74,-206.77 721.81,-182.48 698,-165 682.08,-153.31 662.87,-142.09 647.75,-133.84"/>
<polygon fill="#63b8ff" stroke="#63b8ff" points="649.4,-130.75 638.93,-129.1 646.09,-136.92 649.4,-130.75"/>
</g>
<!-- Node12&#45;&gt;Node10 -->
<g id="edge38" class="edge">
<title>Node12&#45;&gt;Node10</title>
<path fill="none" stroke="#63b8ff" d="M743.39,-222.63C706.35,-213.78 635.69,-196.91 589.73,-185.94"/>
<polygon fill="#63b8ff" stroke="#63b8ff" points="590.3,-182.48 579.76,-183.56 588.67,-189.29 590.3,-182.48"/>
</g>
</g>
</svg>
